<?xml version="1.0" standalone="no"?>
<!DOCTYPE svg PUBLIC "-//W3C//DTD SVG 1.1//EN" "http://www.w3.org/Graphics/SVG/1.1/DTD/svg11.dtd" >
<svg>
<metadata>
Created by FontForge 20090914 at Wed Jun 19 15:15:17 2019
 By www-data
Copyright Emily Spadoni
1-23-2015

contact: penelopelime@verizon.net
</metadata>
<defs>
<font id="Sweet_Pea" horiz-adv-x="450" >
  <font-face 
    font-family="Sweet Pea"
    font-weight="400"
    font-stretch="normal"
    units-per-em="1024"
    panose-1="0 0 0 0 0 0 0 0 0 0"
    ascent="819"
    descent="-205"
    x-height="460.999"
    cap-height="781"
    bbox="-10.0029 -358.997 2703 958.996"
    underline-thickness="1"
    underline-position="-2"
    unicode-range="U+000D-U+FFAD"
  />
<missing-glyph horiz-adv-x="676" 
d="M184 102h308v578h-308v-145v-433zM133 731h410v-680h-410v680z" />
    <glyph glyph-name=".notdef" horiz-adv-x="676" 
d="M184 102h308v578h-308v-145v-433zM133 731h410v-680h-410v680z" />
    <glyph glyph-name="NULL" horiz-adv-x="0" 
 />
    <glyph glyph-name="NULL" horiz-adv-x="0" 
 />
    <glyph glyph-name="nonmarkingreturn" unicode="&#xd;" horiz-adv-x="0" 
 />
    <glyph glyph-name="space" unicode=" " horiz-adv-x="287" 
 />
    <glyph glyph-name="exclam" unicode="!" horiz-adv-x="192" 
d="M104 240c-5.33301 -14.667 -12.665 -21.998 -21.998 -21.998c-2 0 -4.33301 0.333008 -7 1c-12.667 3.33301 -20.334 17 -23.001 41c0.666992 33.333 0.666992 70 0 110s-1.66699 80 -3 120c-0.666992 26 -1.66699 51.667 -3 77c-0.666992 24.667 -1.66699 48 -3 70
c-2 41.333 -4 75.666 -6 102.999s-3.33301 41.666 -4 42.999c0.666992 16 10.667 24 30 24h6c22.667 -1.33301 41 -9.66602 55 -24.999c3.33301 -3.33301 6 -7.33301 8 -12s3.33301 -9.66699 4 -15c-2.66699 -0.666992 -5 -5.33398 -7 -14.001s-3.33301 -20.667 -4 -36
c-1.33301 -26.667 -1.66602 -62 -0.999023 -106c0 -43.333 -0.333008 -89 -1 -137c-0.666992 -39.333 -2.33398 -78.333 -5.00098 -117s-7.33398 -73.667 -14.001 -105zM128.001 41.002c2 -4.66699 3.00098 -9.66504 3.00098 -14.998c0 -7.33301 -2 -15.333 -6 -24
c-6 -16 -16 -26 -30 -30c-6 8.66699 -15 12.667 -27 12c-12.667 -0.666992 -21.334 4.66602 -26.001 15.999c-2.66699 6 -4 13.333 -4 22c0 4 0.333008 8.66699 1 14c2.66699 14.667 10 24.667 22 30c5.33301 2.66699 11.333 4 18 4s13.667 -2 21 -6
c14 -6.66699 23.333 -14.334 28 -23.001z" />
    <glyph glyph-name="quotedbl" unicode="&#x22;" horiz-adv-x="229" 
d="M40 784c6 11.333 16.999 17.001 32.999 17.001h1c16 0 28 -5 36 -15c4 -20 3.66699 -39 -1 -57l-15 -58c-4.66699 -10 -11.667 -18.667 -21 -26c-2 -2 -4.33301 -3.66699 -7 -5c-1.33301 -0.666992 -2.66602 -1 -3.99902 -1c-4.66699 0 -9 2.33301 -13 7
c-3.33301 6.66699 -6 14.667 -8 24c-1.33301 9.33301 -2 18.666 -2 27.999v2c0 18 1 35.333 3 52c2 17.333 1.33301 28 -2 32zM198.999 678.001c-2 -18.667 -7.66992 -30.334 -17.0029 -35.001c-1.33301 0 -2.66602 -0.333008 -3.99902 -1h-2
c-6.66699 0 -12.667 6.66699 -18 20c4.66699 19.333 2.33398 39 -6.99902 59c-6.66699 14 -10 28.333 -10 43c0 6.66699 0.666992 13.334 2 20.001c6 6.66699 15.667 13.334 29 20.001c3.33301 1.33301 6.33301 2 9 2c9.33301 0 16.333 -8 21 -24c2.66699 -12 3 -29 1 -51
c-1.33301 -22.667 -2.66602 -40.334 -3.99902 -53.001z" />
    <glyph glyph-name="numbersign" unicode="#" horiz-adv-x="426" 
d="M324 149c-2 -12 -7.66211 -18.3311 -16.9951 -18.998c-2.66699 0 -5.33398 0.666992 -8.00098 2c-14.667 4 -25.334 11.667 -32.001 23c-1.33301 14.667 -2 33.334 -2 56.001v1v63h-19c-20 -0.666992 -39.667 -1 -59 -1c-2.66699 -24.667 -4.66699 -47.667 -6 -69
c-4 -42.667 -3 -66 3 -70c-2.66699 -22 -10 -33 -22 -33h-1c-12.667 0 -23 5.33301 -31 16v6c0 15.333 1 38.333 3 69c2 24.667 4 51.334 6 80.001c-9.33301 -0.666992 -18.666 -1 -27.999 -1h-74c-12.667 2 -19 8 -19 18c0 2 0.333008 4.33301 1 7
c4 14.667 11.667 25.667 23 33c17.333 1.33301 39.666 2 66.999 2h36l4 49c0 4 0.333008 8.33301 1 13c-8 -0.666992 -16 -1 -24 -1c-34 -1.33301 -53 -6.33301 -57 -15c-22 4.66699 -33 12.667 -33 24v2c1.33301 12.667 7.66602 21.334 18.999 26.001
c12.667 1.33301 28 2.66602 46 3.99902c16.667 1.33301 34.334 2.33301 53.001 3l2 16c4.66699 44.667 8.66699 85.667 12 123s5.66602 64.666 6.99902 81.999c8 8.66699 18.333 13 31 13c2 0 3.66699 -0.333008 5 -1c15.333 -0.666992 23.333 -8 24 -22
c0.666992 -0.666992 1 -1.66699 1 -3c0 -3.33301 -0.666992 -9 -2 -17c-0.666992 -10 -2 -23 -4 -39c-4 -30 -9.33301 -66.333 -16 -109l-6 -41c21.333 0.666992 42.666 1 63.999 1c0.666992 1.33301 1 2.66602 1 3.99902c3.33301 53.333 6.66602 93.666 9.99902 120.999
c4 6 9.33301 9 16 9c1.33301 0 2.66602 -0.333008 3.99902 -1c8 -1.33301 14.333 -6.33301 19 -15c-0.666992 -8.66699 -0.666992 -37 0 -85v-34c18 -0.666992 34.333 -1.33398 49 -2.00098c11.333 -7.33301 17 -16 17 -26v-1c-0.666992 -11.333 -9 -18.333 -25 -21
c-5.33301 -0.666992 -19 -0.333984 -41 0.999023c0 -21.333 0.333008 -43.333 1 -66c12.667 -1.33301 24.667 -2.33301 36 -3c20.667 -1.33301 37.667 -2.66602 51 -3.99902c9.33301 -4.66699 14 -10.667 14 -18v-2c-1.33301 -8.66699 -8.33301 -15 -21 -19
c-5.33301 0.666992 -23.333 0.666992 -54 0c-8 -0.666992 -16.667 -1 -26 -1c0.666992 -24.667 1.33398 -47.667 2.00098 -69v-32c0 -14.667 -0.333008 -23.667 -1 -27zM233.005 394.002h-31c-2 -14.667 -3.66699 -29 -5 -43c-1.33301 -7.33301 -2.33301 -14.333 -3 -21
c24.667 -0.666992 49 -1.66699 73 -3c0.666992 22 1.66699 44 3 66c-12 0 -24.333 0.333008 -37 1z" />
    <glyph glyph-name="dollar" unicode="$" horiz-adv-x="320" 
d="M174 778c4.66699 17.333 10.9951 25.999 18.9951 25.999c1.33301 0 3 -0.333008 5 -1c10 -4.66699 18 -10.334 24 -17.001c1.33301 -8 2 -16.333 2 -25c0.666992 -14.667 -1.33301 -29.667 -6 -45c-6 -19.333 -8 -37 -6 -53c12.667 -3.33301 25.667 -8.66602 39 -15.999
c23.333 -13.333 40 -30.666 50 -51.999c4.66699 -12 7 -24.333 7 -37v-1c0 -14 -3.66699 -28 -11 -42c-16 -12 -29.333 -15.667 -40 -11c-11.333 4.66699 -14.333 15 -9 31c7.33301 24.667 3.66602 46.334 -11.001 65.001c-14.667 19.333 -32.334 28 -53.001 26
c-18.667 -2 -37.667 -12 -57 -30s-28.666 -39 -27.999 -63c0.666992 -18 6.33398 -34.333 17.001 -49s23.334 -29 38.001 -43l87 -79c30.667 -26.667 45.667 -61 45 -103c-0.666992 -40 -16.667 -72.333 -48 -97c-19.333 -14.667 -38.666 -25.667 -57.999 -33
c0 -5.33301 0.333008 -11.666 1 -18.999c0 -9.33301 0.333008 -18.666 1 -27.999c0.666992 -18 2 -35 4 -51c2 -15.333 4.66699 -25 8 -29c-9.33301 -8.66699 -18.666 -14.667 -27.999 -18c-2.66699 -0.666992 -5 -1 -7 -1c-6.66699 0 -12.334 4 -17.001 12
c-2.66699 13.333 -4 28.333 -4 45c0 7.33301 0.333008 15.333 1 24c1.33301 20.667 4 39.667 8 57h-8h-9c-28.667 0 -53.667 11 -75 33c-20 21.333 -30 44.666 -30 69.999v9c4.66699 12 11.334 19 20.001 21s14.334 -2.33301 17.001 -13
c-3.33301 -18.667 2.66699 -37.667 18 -57c14.667 -19.333 33.334 -27.666 56.001 -24.999c24.667 2.66699 44 14.667 58 36c13.333 22 19.666 45 18.999 69c-0.666992 28.667 -15 54 -43 76c-28 21.333 -54.333 46.666 -79 75.999c-13.333 16 -24.666 33.333 -33.999 52
c-8.66699 19.333 -13 41.666 -13 66.999c0 33.333 14.667 62.666 44 87.999c27.333 23.333 56.333 37 87 41c-1.33301 12.667 -2.33301 30.667 -3 54c-0.666992 10.667 -1 20 -1 28c0 14 1 24.667 3 32z" />
    <glyph glyph-name="percent" unicode="%" horiz-adv-x="550" 
d="M104 730c12.667 8 22.998 12.002 30.998 12.002s14 -3.66699 18 -11c8.66699 -14.667 9.66699 -26.667 3 -36c-12.667 -10.667 -23.334 -23.334 -32.001 -38.001s-15.334 -30 -20.001 -46c-11.333 -36.667 -13 -72 -5 -106s23.667 -51.333 47 -52
c16 -0.666992 30.333 4 43 14c12.667 10.667 23.334 24 32.001 40c12 24.667 18.667 52.667 20 84c0.666992 31.333 -5.66602 57.666 -18.999 78.999c-6 9.33301 -13 17.333 -21 24c-8.66699 6 -18.667 10.333 -30 13c-2 5.33301 -1.66699 10.666 1 15.999
c3.33301 5.33301 6.33301 8.33301 9 9c20.667 -2.66699 38 -11.667 52 -27c13.333 -15.333 23 -33.666 29 -54.999c6 -18.667 9 -38 9 -58c0 -15.333 -1.66699 -31 -5 -47c-7.33301 -38 -23 -68 -47 -90c-10.667 -9.33301 -22.667 -16.666 -36 -21.999s-28.333 -8 -45 -8
s-31.334 3.33301 -44.001 10c-13.333 6.66699 -24.666 16 -33.999 28s-17 26 -23 42c-5.33301 16 -8.66602 33 -9.99902 51c-0.666992 5.33301 -1 10.666 -1 15.999c0 28 5.33301 55.667 16 83c12.667 32.667 33.334 57.667 62.001 75zM56.998 34.002
c0 -22.667 -9.66797 -34.334 -29.001 -35.001h-3c-14.667 0 -22 4.33301 -22 13v5c0.666992 11.333 10.334 32.666 29.001 63.999c18.667 32 42.334 69.667 71.001 113l49 73l53 79l67 98l64 94c37.333 56.667 67.666 106 90.999 148c24 42 34 68.667 30 80
c7.33301 8 18.666 12 33.999 12h7c18.667 -1.33301 28.334 -8.66602 29.001 -21.999c0.666992 -0.666992 0.666992 -1.66699 0 -3c0 -1.33301 -0.666992 -2.66602 -2 -3.99902c-4.66699 -11.333 -17.667 -33.333 -39 -66l-76 -113l-51 -74l-54 -78l-66 -96l-62 -91
c-36.667 -54 -66.667 -99.667 -90 -137s-33.333 -57.333 -30 -60zM314.997 321.002c13.333 9.33301 24.3301 14.001 32.9971 14.001c7.33301 0 13 -3.33301 17 -10c8.66699 -14 10.334 -26 5.00098 -36c-15.333 -6.66699 -27.666 -15.667 -36.999 -27
c-10 -10.667 -17.667 -22.334 -23 -35.001c-5.33301 -14 -8.66602 -28.667 -9.99902 -44s-0.666016 -30.333 2.00098 -45c4 -27.333 12.333 -51 25 -71c13.333 -20 28 -29.667 44 -29c14 0.666992 26.667 4.33398 38 11.001c10.667 6.66699 19.667 15 27 25
c18.667 24.667 28 55.667 28 93c0.666992 37.333 -8 67.666 -26 90.999c-6.66699 8.66699 -14.667 16 -24 22c-8.66699 5.33301 -18.667 9 -30 11c-2.66699 4.66699 -2.33398 12.334 0.999023 23.001c2.66699 10 5.33398 15.333 8.00098 16
c36 -11.333 63.333 -33.333 82 -66s28 -66.667 28 -102v-2c0 -18.667 -2.33301 -36.667 -7 -54c-5.33301 -18 -13.333 -34 -24 -48c-10 -13.333 -22.667 -24.333 -38 -33c-15.333 -8 -33.333 -12.667 -54 -14h-8c-36 0 -64.333 16 -85 48
c-22.667 35.333 -34.334 74.333 -35.001 117v3c0 27.333 4.66699 53.666 14 78.999c10.667 26 27 47 49 63z" />
    <glyph glyph-name="ampersand" unicode="&#x26;" horiz-adv-x="560" 
d="M353 346c18 1.33301 41.667 2.33398 71 3.00098c30 1.33301 55 2 75 2c5.33301 -3.33301 10 -8.33301 14 -15c4 -6 1.33301 -9.33301 -8 -10c-7.33301 -0.666992 -18 -1 -32 -1h-38c-6 -51.333 -17.333 -97 -34 -137c12 -6.66699 23.333 -12.334 34 -17.001
c16.667 -7.33301 31.667 -11 45 -11c13.333 -0.666992 24.333 3.33301 33 12c23.333 -4.66699 35 -15.667 35 -33c0 -2 -0.333008 -4 -1 -6c-2.66699 -20.667 -15.667 -36 -39 -46c-7.33301 -3.33301 -16 -5.66602 -26 -6.99902c-9.33301 -1.33301 -19.666 -1 -30.999 1
c-26.667 4 -54.334 17.333 -83.001 40c-12 -18.667 -24.667 -35.334 -38 -50.001c-31.333 -34 -65.333 -57 -102 -69c-18 -6 -35 -9 -51 -9c-18 0 -35.333 3.33301 -52 10s-32.334 17.334 -47.001 32.001c-14 14.667 -26.333 33.334 -37 56.001
c-11.333 26.667 -17.666 51.667 -18.999 75v8c0 20 3 39.333 9 58c12.667 39.333 35 76.666 67 111.999l64 74c-14.667 36 -26.334 70 -35.001 102c-6 22.667 -10 44.334 -12 65.001c-2 20 -1.66699 37.333 1 52c6 29.333 15.333 54 28 74c13.333 20.667 28.333 37 45 49
c25.333 18 52.333 27 81 27s52.667 -8.33301 72 -25c10.667 -9.33301 19 -21 25 -35c6.66699 -14 10.334 -30.333 11.001 -49c0.666992 -32.667 -7.33301 -66 -24 -100s-37.334 -67.667 -62.001 -101c-22.667 -32 -46 -63.333 -70 -94l15 -23c30 -44 62.667 -83.333 98 -118
c14.667 -14.667 29.334 -27.334 44.001 -38.001c0.666992 2 1.66699 4.33301 3 7c16 32.667 26.333 71 31 115l-62 -3c-7.33301 0.666992 -10 4 -8 10c2.66699 5.33301 6 9.66602 10 12.999zM327 128.001c5.33301 5.33301 10.333 10.998 15 16.998
c-29.333 28.667 -57.333 62.334 -84 101.001c-22.667 32.667 -43.667 67.334 -63 104.001c-30 -36.667 -53.333 -71.667 -70 -105c-9.33301 -19.333 -15.666 -38 -18.999 -56c-3.33301 -17.333 -2.33301 -34 3 -50c16 -46.667 46.333 -70 91 -70
c45.333 -0.666992 87.666 19 126.999 59zM165 503.999c6.66699 -19.333 14.001 -37.9971 22.001 -55.9971l4 5c25.333 31.333 47 64.666 65 99.999c18.667 35.333 27.667 75 27 119c0 35.333 -10.667 57.333 -32 66c-21.333 9.33301 -42 4.66602 -62 -14.001
c-8.66699 -8 -16.334 -18.333 -23.001 -31s-11.667 -28 -15 -46c-8 -44.667 -3.33301 -92.334 14 -143.001z" />
    <glyph glyph-name="quotesingle" unicode="'" horiz-adv-x="114" 
d="M27 812c6.66699 11.333 17.666 17.332 32.999 17.999h1c16 -0.666992 28 -6 36 -16c4 -20 3.66699 -39 -1 -57l-15 -58c-4.66699 -10 -11.667 -18.667 -21 -26c-2 -2 -4.33301 -3.33301 -7 -4c-1.33301 -0.666992 -2.66602 -1 -3.99902 -1c-4.66699 0 -8.66699 2 -12 6
c-4 6.66699 -6.66699 14.667 -8 24c-2 9.33301 -3 19 -3 29v1c0 18.667 1 36.334 3 53.001s1.33301 27 -2 31z" />
    <glyph glyph-name="parenleft" unicode="(" horiz-adv-x="235" 
d="M224 -128c-2.66699 -17.333 -9.66602 -26.999 -20.999 -28.999h-5c-9.33301 0 -18.666 3.66699 -27.999 11c-22 39.333 -41.667 80.333 -59 123c-16.667 43.333 -31 87.333 -43 132c-22 84 -35.667 169 -41 255c-1.33301 26.667 -2 53 -2 79c0 56.667 3.66699 111 11 163
c9.33301 62.667 23.666 120 42.999 172s43.666 95 72.999 129c6.66699 6.66699 15.667 10 27 10c6 0 12.667 -1 20 -3c20.667 -4.66699 30.667 -14.334 30 -29.001v-2c-25.333 -24.667 -47 -53.667 -65 -87c-18.667 -33.333 -34 -69.333 -46 -108
c-23.333 -72 -36 -150.333 -38 -235c-2.66699 -84 3 -166.333 17 -247c11.333 -66 28 -128 50 -186c21.333 -58.667 47 -108 77 -148z" />
    <glyph glyph-name="parenright" unicode=")" horiz-adv-x="270" 
d="M48 892c2.66699 16.667 9.66602 26 20.999 28h5c9.33301 0 18.666 -3.66699 27.999 -11c34 -60 62 -124.333 84 -193c22 -69.333 38 -139 48 -209c6 -46 10 -91.667 12 -137c0.666992 -16.667 1 -33 1 -49c0 -28.667 -1 -56.667 -3 -84
c-5.33301 -79.333 -18.333 -152.333 -39 -219c-21.333 -66.667 -49.666 -120.334 -84.999 -161.001c-6.66699 -7.33301 -15.667 -10.666 -27 -9.99902c-6 0 -12.667 0.666992 -20 2c-20.667 5.33301 -30.667 15 -30 29v2c38.667 38.667 69.667 86.667 93 144
c22.667 56.667 38.667 118 48 184c10.667 79.333 12.334 161.333 5.00098 246c-8 84.667 -23.333 163.667 -46 237c-12 39.333 -26 76 -42 110s-33.667 64.333 -53 91z" />
    <glyph glyph-name="asterisk" unicode="*" horiz-adv-x="304" 
d="M290 747c2 -1.33301 3.00098 -4.33203 3.00098 -8.99902v-10c-9.33301 -14.667 -22.666 -23 -39.999 -25c-16.667 -2 -29 -4.66699 -37 -8c-4.66699 -6 -5.33398 -20.667 -2.00098 -44c2.66699 -23.333 1.33398 -41.666 -3.99902 -54.999
c-0.666992 -1.33301 -2 -2.33301 -4 -3c-2 -1.33301 -3.33301 -2 -4 -2c-12.667 0 -25.334 11.333 -38.001 34c-13.333 23.333 -24.333 37.333 -33 42c-4.66699 0 -19.667 -1.33301 -45 -4c-25.333 -2 -44.666 -2 -57.999 0c-1.33301 0 -3 1.33301 -5 4
c-1.33301 2.66699 -2 4.66699 -2 6v3c0 12 11.333 25 34 39c24 15.333 36 26 36 32c-2 5.33301 -7.33301 17.666 -16 36.999c-8.66699 20 -10.667 34.333 -6 43c0.666992 1.33301 2 2.66602 4 3.99902c2.66699 0.666992 5 0.666992 7 0c8.66699 -2 19.667 -9 33 -21
c13.333 -11.333 22.666 -18 27.999 -20c5.33301 4 15.666 14.333 30.999 31s23.333 27.334 24 32.001c0 6 1.66699 9 5 9c1.33301 0 2.33301 -0.333008 3 -1c6 -2.66699 10 -7 12 -13c3.33301 -7.33301 3 -22.333 -1 -45s-3.33301 -36.334 2 -41.001
c1.33301 -4 11.333 -6 30 -6c18 0.666992 32.333 -2.33301 43 -9z" />
    <glyph glyph-name="plus" unicode="+" horiz-adv-x="2089" 
d="M317 108c-33.333 -12.667 -65.9971 -13.3369 -97.9971 -2.00391s-61 30.333 -87 57c-38.667 40.667 -66.667 92 -84 154c-8.66699 30 -13 58.667 -13 86c0 30 5.33301 59 16 87c8 22.667 19.667 43 35 61c15.333 18.667 35 34.667 59 48c34.667 18.667 72 25 112 19
c40 -5.33301 81.333 -18.666 124 -39.999c44.667 -22.667 89.667 -52 135 -88c46 -35.333 90.667 -73 134 -113l148 -140c46.667 -45.333 87.334 -81.666 122.001 -108.999c18.667 -14.667 35.334 -25.667 50.001 -33c14 -8 26 -10.667 36 -8c18 4 28.667 18.667 32 44
c3.33301 24.667 1.66602 55 -5.00098 91c-4 19.333 -9 39.666 -15 60.999l-13 44c-34 30.667 -65.667 62.667 -95 96c-50 56 -85 106.667 -105 152c-10.667 24 -16 45.333 -16 64c0 19.333 6.66699 34.333 20 45c14 12 28.667 18 44 18h6c18 -2 36 -9.33301 54 -22
c33.333 -23.333 65.333 -61.666 96 -114.999c30 -52.667 54 -109.334 72 -170.001c7.33301 -26.667 13.333 -53 18 -79l3 -18l6 -5c46 -36.667 92.333 -69.667 139 -99c46 -30 88.667 -51 128 -63c20.667 -6.66699 40 -10.334 58 -11.001
c17.333 -0.666992 32.666 2 45.999 8c28 14.667 42 45.667 42 93c-0.666992 40.667 -6.33398 84 -17.001 130l-20 17c-44.667 38 -82.334 76.333 -113.001 115c-31.333 38.667 -49.666 73.334 -54.999 104.001c-2.66699 16.667 -1 32 5 46c6 13.333 17.667 24.666 35 33.999
c31.333 18 64 8.66699 98 -28c34 -37.333 62.333 -85.666 85 -144.999c16.667 -44.667 29 -91.667 37 -141c34.667 -26.667 71.334 -52.334 110.001 -77.001c55.333 -36 105.666 -63.333 150.999 -82c24 -10 46 -16.667 66 -20c19.333 -4 35.333 -3.33301 48 2
c14 6 16.333 21.333 7 46c-10 25.333 -25.667 52.333 -47 81c-27.333 36 -58.666 69 -93.999 99s-64.666 43.667 -87.999 41c-7.33301 13.333 -8.66602 26 -3.99902 38c5.33301 11.333 11.666 18 18.999 20c21.333 -3.33301 43.666 -10 66.999 -20s46.333 -22.667 69 -38
c42 -27.333 78 -60.666 108 -99.999c28.667 -36.667 43 -72.667 43 -108v-5c-0.666992 -18.667 -6.66699 -36.667 -18 -54c-11.333 -16.667 -29.333 -31.667 -54 -45c-11.333 -6.66699 -28 -8.33398 -50 -5.00098c-21.333 3.33301 -46 10.333 -74 21
c-51.333 19.333 -109.333 49.333 -174 90c-28 17.333 -55 35.333 -81 54c0.666992 -32 -2.33301 -61.333 -9 -88c-5.33301 -22.667 -14 -43 -26 -61c-11.333 -17.333 -26.333 -31.333 -45 -42c-16 -8.66699 -34.333 -13 -55 -13c-20.667 -0.666992 -43 2 -67 8
c-44.667 11.333 -93.334 32.333 -146.001 63c-42.667 25.333 -84.334 53.333 -125.001 84v-3c0.666992 -45.333 -6.33301 -84.666 -21 -117.999s-40.334 -54.666 -77.001 -63.999c-6 -2 -12.333 -3 -19 -3c-19.333 0 -40.666 6.33301 -63.999 19
c-32 16.667 -66.667 40.334 -104 71.001c-24.667 20 -50 42 -76 66l-80 75l-154 141c-52 46 -102.333 83.667 -151 113c-38.667 22.667 -75.667 37.667 -111 45c-34.667 7.33301 -66.667 3 -96 -13c-29.333 -16.667 -47 -47 -53 -91c-6.66699 -44.667 -4.66699 -91 6 -139
c4.66699 -20.667 10.667 -40.667 18 -60s15.666 -37.333 24.999 -54c18 -31.333 39.667 -55 65 -71c24.667 -16.667 51.667 -19.667 81 -9c24 9.33301 42.667 20.333 56 33s22.666 26 27.999 40c8 22.667 7 43.667 -3 63s-24.333 30 -43 32
c-8.66699 0.666992 -17.667 -0.666016 -27 -3.99902c-8.66699 -3.33301 -17.667 -9 -27 -17c-15.333 1.33301 -23.666 6.33301 -24.999 15c-0.666992 9.33301 3 19.333 11 30c21.333 9.33301 40.666 14.333 57.999 15c16.667 0 31.334 -3.33301 44.001 -10
c24 -12.667 39.333 -34.667 46 -66c6 -31.333 2 -62.333 -12 -93c-8 -16 -19 -30.667 -33 -44c-14 -14 -31.333 -25 -52 -33zM938.003 493.997c-22.667 48 -43.332 85.666 -61.999 112.999c-10 14.667 -18.667 25.667 -26 33c-8 6.66699 -14.333 8.33398 -19 5.00098
c-8 -6 -10 -16 -6 -30c3.33301 -14 11 -31 23 -51c23.333 -36.667 58.666 -79.667 105.999 -129l19 -20zM1476 441.996c-8.66699 22.667 -17.333 43.999 -26 63.999c-16.667 36.667 -33.334 66.334 -50.001 89.001c-16.667 22 -29.667 30.333 -39 25
c-7.33301 -4 -11 -10.667 -11 -20c0.666992 -8.66699 4.33398 -19.334 11.001 -32.001c12 -22.667 33.333 -49.667 64 -81c16.667 -17.333 34.667 -35 54 -53c-1.33301 2.66699 -2.33301 5.33398 -3 8.00098z" />
    <glyph glyph-name="comma" unicode="," horiz-adv-x="106" 
d="M22 37c6 10.667 15.999 16 29.999 16h1c14.667 -0.666992 25.334 -5.33398 32.001 -14.001c2 -10.667 3 -20.667 3 -30c-0.666992 -7.33301 -2 -14.666 -4 -21.999l-13 -53c-4.66699 -8.66699 -11 -16.334 -19 -23.001c-4 -3.33301 -7.66699 -5 -11 -5
s-6.66602 2 -9.99902 6c-4 6 -6.66699 13 -8 21c-1.33301 8.66699 -2 17.667 -2 27v1c0 16.667 1 32.334 3 47.001c1.33301 16 0.666016 25.667 -2.00098 29z" />
    <glyph glyph-name="hyphen" unicode="-" horiz-adv-x="316" 
d="M44 388c0.666992 0.666992 1.33301 1 2 1c7.33301 0 22.333 -2.66699 45 -8c24.667 -5.33301 50 -10 76 -14c21.333 -3.33301 40.333 -5 57 -5s26.667 3.66699 30 11c22.667 -4.66699 33.667 -13 33 -25v-1c-1.33301 -12.667 -7.33301 -21.667 -18 -27
c-24 -2 -48 -3.33301 -72 -4c-14 0 -28 0.666992 -42 2c-38 2 -77.333 5 -118 9c-11.333 6.66699 -17 18 -17 34s8 25 24 27z" />
    <glyph glyph-name="period" unicode="." horiz-adv-x="110" 
d="M95 -6c-3.33301 -12 -10.666 -20.6641 -21.999 -25.9971c-9.33301 -4.66699 -18 -7 -26 -7c-2 0 -4 0.333008 -6 1c-11.333 1.33301 -17.333 7.66602 -18 18.999s-3.33398 19.666 -8.00098 24.999c2 13.333 8 25.666 18 36.999c9.33301 9.33301 18.333 14 27 14h4
c12 -2 21 -10 27 -24c4 -9.33301 5.66699 -18.333 5 -27c0 -4 -0.333008 -8 -1 -12z" />
    <glyph glyph-name="slash" unicode="/" horiz-adv-x="574" 
d="M75 -1c0 -22 -9.66895 -33.334 -29.002 -34.001h-4c-14.667 0 -22 4.33301 -22 13c0.666992 0.666992 1 1.66699 1 3c0 8 4.66699 21.333 14 40c8.66699 18.667 20.334 41.334 35.001 68.001l106 181l128 212l55 91l49 85c28.667 49.333 51 91.333 67 126
c16.667 34.667 23.334 56.667 20.001 66c7.33301 8.66699 19 13 35 13h6c18.667 -1.33301 28.667 -9 30 -23v0c0 -5.33301 -9.66699 -24.333 -29 -57l-75 -126l-53 -86l-57 -94l-73 -118l-69 -114l-101 -171c-26.667 -47.333 -38 -72.333 -34 -75z" />
    <glyph glyph-name="zero" unicode="0" horiz-adv-x="530" 
d="M203 738c16.667 10 30.998 15.9971 42.998 17.9971c4.66699 0.666992 9 1 13 1c7.33301 0 13.666 -1 18.999 -3c16.667 -6.66699 26.667 -19 30 -37s1.33301 -33 -6 -45c-32 -26.667 -58.667 -65.334 -80 -116.001c-21.333 -50 -37 -102.667 -47 -158
c-4.66699 -29.333 -8 -58.666 -10 -87.999s-2.66699 -57 -2 -83c2 -48.667 9.66699 -89.334 23 -122.001s32 -49.334 56 -50.001c48.667 -1.33301 90.334 23.667 125.001 75c34 50.667 58 110.334 72 179.001c12 54 16.667 108.667 14 164s-13.334 102.333 -32.001 141
c-10 20.667 -22.667 38.334 -38 53.001c-15.333 14 -33.333 23.333 -54 28c-4 9.33301 -3.33301 16.333 2 21c4.66699 5.33301 9.66699 8.33301 15 9c20.667 -2.66699 39 -9.66699 55 -21c16.667 -11.333 31 -25.666 43 -42.999c22.667 -33.333 38.334 -75 47.001 -125
c6 -32.667 9 -66 9 -100c0 -18.667 -0.666992 -37.334 -2 -56.001c-5.33301 -55.333 -17.333 -109 -36 -161c-19.333 -52 -45.333 -95.333 -78 -130c-20 -21.333 -43 -38.333 -69 -51c-25.333 -12.667 -53.333 -19 -84 -19h-1c-25.333 0 -48 5.66699 -68 17
s-37.333 26.333 -52 45c-21.333 27.333 -37.666 61 -48.999 101s-18 82.667 -20 128v30c0 19.333 0.666992 39 2 59c2.66699 30.667 7 60.334 13 89.001c12 54.667 30.333 104.334 55 149.001s55.334 78.334 92.001 101.001z" />
    <glyph glyph-name="one" unicode="1" horiz-adv-x="314" 
d="M25 639c-8 2 -12.3271 6.00098 -12.9941 12.001v1c0 5.33301 2.66699 10 8 14c6 -2 16.667 2 32 12c15.333 9.33301 30.666 21 45.999 35c8 7.33301 15.333 15 22 23s12 15.667 16 23c2 14 11.333 21 28 21h1c17.333 -0.666992 33.666 -8 48.999 -22
c6 -6 11.667 -13.333 17 -22c4.66699 -8.66699 7.66699 -18.334 9 -29.001c-8 0.666992 -14 -17 -18 -53c-3.33301 -36.667 -5 -82.334 -5 -137.001c-0.666992 -30 -0.666992 -61.333 0 -94l2 -99c1.33301 -63.333 2.66602 -123.333 3.99902 -180s2 -100 2 -130
c10.667 -0.666992 20.667 -1 30 -1c8.66699 0.666992 17.667 1 27 1c5.33301 -4 8.66602 -7.33301 9.99902 -10v-3c0 -2 -1 -4.33301 -3 -7c-53.333 0.666992 -97.333 0.666992 -132 0s-72.667 -1.33398 -114 -2.00098c-2 1.33301 -3 4.33301 -3 9s1.66699 8 5 10
c17.333 0.666992 33 1.33398 47 2.00098c14.667 0.666992 29.334 0.666992 44.001 0c-10 66 -16.333 143.667 -19 233c-2.66699 88.667 -2.33398 173.334 0.999023 254.001c1.33301 43.333 3.66602 84 6.99902 122c2.66699 38 6 70.667 10 98
c-0.666992 -6 -7.33398 -14.667 -20.001 -26c-12.667 -12 -27 -22.667 -43 -32c-8 -5.33301 -16.333 -10 -25 -14c-8 -4 -15.333 -7 -22 -9z" />
    <glyph glyph-name="two" unicode="2" horiz-adv-x="574" 
d="M319 767c24 -4.66699 43.6621 -14.666 58.9951 -29.999c15.333 -16 27.333 -36 36 -60c16 -44 21 -98 15 -162s-19.667 -127.667 -41 -191c-8.66699 -28 -19 -55.333 -31 -82c-11.333 -26.667 -23.666 -51.334 -36.999 -74.001c-6 -9.33301 -11.667 -18.666 -17 -27.999
c20 -7.33301 40.667 -15.333 62 -24c44.667 -19.333 89 -27.666 133 -24.999c14.667 -2.66699 22.334 -9.33398 23.001 -20.001c0 -5.33301 -1.66699 -11.333 -5 -18c-9.33301 -20.667 -26 -34 -50 -40c-26 2.66699 -50.333 9 -73 19c-23.333 10 -45.666 21.333 -66.999 34
l-54 33c-11.333 -12.667 -22.666 -24.334 -33.999 -35.001c-29.333 -26.667 -59.333 -40 -90 -40c-18.667 0 -34.667 2.66699 -48 8c-13.333 4.66699 -24 11.334 -32 20.001c-13.333 13.333 -20 28.666 -20 45.999c0 7.33301 1.33301 15 4 23c8 26.667 29.667 45.667 65 57
c17.333 5.33301 36 6.33301 56 3c17.333 -3.33301 35.666 -8 54.999 -14l19 41c8.66699 21.333 17 43.666 25 66.999c8 24 15.333 48.333 22 73c16 56.667 28.333 113.334 37 170.001s11.667 104 9 142c-1.33301 20 -4.66602 36.667 -9.99902 50
c-4.66699 12.667 -12 20 -22 22c-11.333 2.66699 -22.666 1 -33.999 -5c-10.667 -6 -20.667 -14.333 -30 -25c-13.333 -16 -23 -35.333 -29 -58c-6 -22 -6 -41.667 0 -59c-2 -20 -13 -34.667 -33 -44s-37.333 -8.66602 -52 2.00098c-4.66699 3.33301 -8.66699 8 -12 14
s-5.33301 13.667 -6 23c4.66699 75.333 27.667 127.666 69 156.999c31.333 22 65.333 33 102 33c12 0 24 -1 36 -3zM121.995 157.001c-28.667 -8.66699 -40.667 -24.333 -36 -47c5.33301 -22.667 24.333 -34 57 -34c16.667 0.666992 34 13 52 37c6 8 11.667 16.667 17 26
c-31.333 20 -61.333 26 -90 18z" />
    <glyph glyph-name="three" unicode="3" horiz-adv-x="424" 
d="M68 715c-10.667 3.33301 -17.6631 11.998 -20.9961 25.998c-3.33301 14.667 1.33398 24.334 14.001 29.001c101.333 -4.66699 177.333 -8 228 -10c10 -3.33301 19 -9.66602 27 -18.999c8 -8.66699 11.333 -17.667 10 -27c-1.33301 -8 -4 -16 -8 -24
c-4.66699 -8.66699 -9.66699 -17.334 -15 -26.001c-10.667 -15.333 -22.334 -29.333 -35.001 -42c-12.667 -13.333 -22 -21.666 -28 -24.999c48 5.33301 88.667 -16.667 122 -66c30 -45.333 44.667 -105 44 -179v-21c-2.66699 -78.667 -21.334 -142.334 -56.001 -191.001
c-34 -48.667 -72.333 -84 -115 -106c-22.667 -12 -45.334 -20.333 -68.001 -25c-16.667 -3.33301 -32.334 -5 -47.001 -5h-15c-12.667 1.33301 -23.667 5.33301 -33 12c-9.33301 6 -17.333 14 -24 24c-16 22.667 -24.333 50.667 -25 84v10c0 28.667 4.66699 52 14 70
c6.66699 10.667 15.667 15.334 27 14.001c10.667 -2 15.667 -9.33301 15 -22c-4.66699 -8 -8 -21.667 -10 -41c-2.66699 -19.333 -3 -39 -1 -59c1.33301 -10.667 3.33301 -20.667 6 -30c2 -10 5 -18 9 -24c3.33301 -4.66699 6.66602 -8.33398 9.99902 -11.001
c4 -2.66699 8.33301 -4 13 -4c26.667 -0.666992 52.667 13 78 41c24.667 28 46.667 63 66 105c10.667 22.667 20 46.334 28 71.001c8.66699 24.667 15.667 49 21 73c12.667 58 16 110.333 10 157c-6 46 -26 71.333 -60 76c-24.667 4 -47.334 -1.33301 -68.001 -16
c-20.667 -14 -35.667 -23.333 -45 -28c-11.333 1.33301 -16.666 6 -15.999 14c0 8 3 19 9 33c17.333 13.333 37 30 59 50s40.667 39 56 57c8.66699 10 15.334 19 20.001 27c5.33301 8 8.33301 15 9 21c-2 3.33301 -14.333 5 -37 5s-47.667 -0.333008 -75 -1h-52
c-16.667 0.666992 -30.334 1.66699 -41.001 3z" />
    <glyph glyph-name="four" unicode="4" horiz-adv-x="574" 
d="M327 621c6.66699 21.333 16.3281 34.668 28.9951 40.001c2 0.666992 4.33301 1 7 1c10.667 0 22.334 -10.667 35.001 -32c-9.33301 -8 -14.666 -29.333 -15.999 -64s-1.33301 -75.667 0 -123c1.33301 -22.667 2.33301 -46.334 3 -71.001c19.333 0 38.333 0.333008 57 1
c27.333 0.666992 52 1 74 1c6 -3.33301 9 -7.66602 9 -12.999c0 -2 -0.333008 -3.66699 -1 -5c-2 -8 -7 -16.333 -15 -25c-39.333 -0.666992 -80 -2.33398 -122 -5.00098l4 -47c2.66699 -54 4.33398 -105.667 5.00098 -155s-1.66602 -89.666 -6.99902 -120.999
c-2 -25.333 -11 -38 -27 -38h-1c-16 0.666992 -31 11.667 -45 33c1.33301 67.333 2.66602 140.333 3.99902 219c0.666992 36 1 70.667 1 104l-25 -2c-30.667 -2.66699 -60 -4 -88 -4c-38 0 -73.333 2.66699 -106 8c-16.667 2 -29.334 9.66699 -38.001 23
c-3.33301 5.33301 -5 11.333 -5 18c0 9.33301 3.66699 19.666 11 30.999c18.667 38.667 42 80.667 70 126c28 44.667 52 86.667 72 126c10.667 20.667 19 40 25 58c6.66699 18 10 33.333 10 46c14.667 16 29.334 24 44.001 24c6 0 12 -1 18 -3
c21.333 -9.33301 36 -32 44 -68c-8.66699 -18 -22 -40.333 -40 -67l-57 -83l-84 -118c-26 -36.667 -37.667 -58.334 -35 -65.001c6.66699 -1.33301 32.334 -1.66602 77.001 -0.999023c33.333 0.666992 69.333 1 108 1l2 67c0.666992 36.667 1.33398 70.667 2.00098 102
c0 31.333 0.333008 58.333 1 81z" />
    <glyph glyph-name="five" unicode="5" horiz-adv-x="479" 
d="M380 708c-42.667 -12 -85.998 -16.333 -129.998 -13c-44.667 4 -79 6.66699 -103 8c-1.33301 -86 -2 -150.333 -2 -193c54 17.333 102.667 24.666 146 21.999c42.667 -3.33301 76.667 -24.333 102 -63c13.333 -20.667 23.666 -47 30.999 -79
c7.33301 -32.667 11 -72.334 11 -119.001v-1c0 -86 -25.667 -153.333 -77 -202c-44.667 -42.667 -98.334 -64 -161.001 -64c-10.667 0 -21.334 0.666992 -32.001 2c-32.667 3.33301 -61 17 -85 41s-38.333 51.667 -43 83c-1.33301 6.66699 -2 13.667 -2 21
c0 10.667 1.33301 21.334 4 32.001c4 18 12 35.333 24 52c9.33301 10 18 13.333 26 10c7.33301 -3.33301 11 -11.666 11 -24.999c-8.66699 -14 -14.667 -28 -18 -42c-2.66699 -14.667 -3 -28.667 -1 -42c3.33301 -24.667 13 -45.334 29 -62.001
c16.667 -17.333 36 -25.666 58 -24.999c19.333 0.666992 37 5 53 13s30.333 19 43 33c20 22 36 49 48 81s19.667 65 23 99c4.66699 50.667 -0.666016 97 -15.999 139c-14.667 42 -40 64.333 -76 67c-18.667 2 -36.334 -2.33301 -53.001 -13
c-17.333 -10.667 -32.666 -22 -45.999 -34l-21 -17c-6 -5.33301 -11.333 -9.33301 -16 -12c-12 0 -20.667 4.33301 -26 13c-5.33301 9.33301 -8.33301 17.333 -9 24c-2 9.33301 -4.33301 25.333 -7 48c-2.66699 23.333 -4.66699 49 -6 77c-2 42 -1.66699 82.667 1 122
c3.33301 40 11.666 63.667 24.999 71c5.33301 2.66699 10.333 4 15 4c6.66699 0 12.334 -2.33301 17.001 -7c8.66699 -8 17.667 -12.333 27 -13l140 -9c41.333 -2.66699 70.333 1.66602 87 12.999c20.667 10.667 33 7.66699 37 -9c4 -17.333 -5.33301 -27.666 -28 -30.999z
" />
    <glyph glyph-name="six" unicode="6" horiz-adv-x="464" 
d="M288 742c12.667 8 30.3291 12.6699 52.9961 14.0029c3.33301 0.666992 6.66602 1 9.99902 1c17.333 0 29.666 -4 36.999 -12c2.66699 -3.33301 4 -7.33301 4 -12c0.666992 -4.66699 -0.666016 -10 -3.99902 -16c-5.33301 -12 -20.666 -25 -45.999 -39
c-25.333 -13.333 -51.666 -36.666 -78.999 -69.999c-14.667 -18 -28.667 -39.667 -42 -65c-14 -26 -25.667 -57 -35 -93c35.333 21.333 72.666 27.333 111.999 18c38.667 -8.66699 71 -29.667 97 -63c14 -17.333 25.333 -38 34 -62s13.334 -50.667 14.001 -80v-6
c0 -19.333 -2 -39 -6 -59c-5.33301 -21.333 -12.333 -42 -21 -62c-17.333 -37.333 -40.666 -69 -69.999 -95c-28 -24 -59.333 -36 -94 -36h-4c-47.333 1.33301 -85.666 19.666 -114.999 54.999s-49.666 77.666 -60.999 126.999c-6 26 -9.33301 53 -10 81v15
c0 22.667 1.66699 44.667 5 66s8 44.333 14 69s14 50 24 76c17.333 47.333 41 93.666 71 138.999s67.333 81.666 112 108.999zM248.995 29.0029l3 -0.000976562c36 0 65.667 24 89 72c23.333 48.667 35 105 35 169v3c0 48.667 -16 89.667 -48 123
c-25.333 28 -54.333 42 -87 42c-7.33301 0 -14.666 -0.666992 -21.999 -2c-6.66699 -1.33301 -12.667 -5.66602 -18 -12.999c-6 -8 -11 -18.333 -15 -31c-8.66699 -23.333 -14.667 -52.333 -18 -87c-1.33301 -20 -2 -40.333 -2 -61c0 -14.667 0.333008 -29.667 1 -45
c3.33301 -44 11.666 -83.333 24.999 -118c12.667 -34 31.667 -51.333 57 -52z" />
    <glyph glyph-name="seven" unicode="7" horiz-adv-x="410" 
d="M48 769c6 -7.33301 26.3291 -9.32812 60.9961 -5.99512c34.667 2.66699 73.667 5 117 7c16.667 1.33301 33.667 2 51 2c6.66699 0 13.334 -0.333008 20.001 -1c24 0 46.333 -2 67 -6c8.66699 0 15.334 -4 20.001 -12c2 -4.66699 3 -9.33398 3 -14.001
c0 -3.33301 -0.666992 -7 -2 -11c-4 -10 -12 -34.667 -24 -74c-12 -38.667 -25.333 -84.667 -40 -138l-24 -90c-8.66699 -31.333 -16.667 -63 -24 -95c-12 -49.333 -22.667 -97.333 -32 -144s-16 -88.334 -20 -125.001c1.33301 -20 -4 -34.667 -16 -44
c-6 -4.66699 -12.333 -7 -19 -7c-5.33301 0 -10.666 1.66699 -15.999 5s-10 8.66602 -14 15.999s-7 16.666 -9 27.999c-2 12.667 0.666992 39 8 79c6.66699 40 15.667 86 27 138c6 27.333 12.667 55.666 20 84.999l20 88l43 176c12.667 50.667 19 77.667 19 81
c-4 0.666992 -12.667 0.666992 -26 0s-28.666 -2 -45.999 -4c-26.667 -2 -55 -4.33301 -85 -7c-30 -2 -54 -1.66699 -72 1c-24 2.66699 -37.333 13.667 -40 33v5c-0.666992 16.667 10.333 28 33 34z" />
    <glyph glyph-name="eight" unicode="8" horiz-adv-x="372" 
d="M120 744c14.667 8 29.0039 7 43.0039 -3c14 -10.667 17 -21 9 -31c-9.33301 -1.33301 -21.333 -9.66602 -36 -24.999c-14 -15.333 -25 -35 -33 -59c-4 -12.667 -6.33301 -26.334 -7 -41.001s1.33301 -29.667 6 -45c3.33301 -12 12.666 -24.667 27.999 -38l54 -46l2 -2
c24.667 29.333 45.667 57 63 83c11.333 16 20.666 31 27.999 45c6.66699 14 10.334 27 11.001 39c1.33301 12.667 0.333008 24.334 -3 35.001c-3.33301 11.333 -8.33301 21.333 -15 30c-11.333 16.667 -25 30 -41 40c-16.667 10 -30.334 15.667 -41.001 17
c-7.33301 12 -7.66602 21.667 -0.999023 29c4 3.33301 8.66699 5 14 5s12 -1.66699 20 -5c29.333 -11.333 56.666 -28.333 81.999 -51c26 -23.333 37 -58.666 33 -105.999c-1.33301 -14 -5.66602 -29 -12.999 -45c-7.33301 -15.333 -16.333 -31.333 -27 -48
c-20.667 -31.333 -45.667 -64.333 -75 -99c1.33301 -1.33301 2.66602 -2.33301 3.99902 -3c14.667 -12.667 28.334 -26.667 41.001 -42c24 -28 43.667 -60.667 59 -98c11.333 -26.667 17 -56.334 17 -89.001c0 -13.333 -1 -27 -3 -41c-3.33301 -25.333 -10 -47.333 -20 -66
s-22.333 -34.667 -37 -48s-31.334 -23.333 -50.001 -30c-18.667 -7.33301 -37.334 -11 -56.001 -11h-1c-34.667 0 -66.334 11.667 -95.001 35c-29.333 23.333 -45.666 59 -48.999 107c-2.66699 34 2.33301 67.333 15 100c12 33.333 28.333 65.666 49 96.999
c11.333 18 23.333 35.667 36 53l-34 39c-33.333 35.333 -54 65.666 -62 90.999c-6.66699 21.333 -10.334 41.333 -11.001 60v7c0 15.333 1.66699 30 5 44c6.66699 28.667 19 52.334 37 71.001c18 19.333 36 34.333 54 45zM141.004 318
c-20 -29.333 -36.334 -59.001 -49.001 -89.001c-13.333 -30 -18.666 -59.333 -15.999 -88c2 -30 16.333 -50 43 -60s51 -5.66699 73 13c10 8 18.333 18.667 25 32c6.66699 14 11 31 13 51c2 22.667 -1.33301 45.334 -10 68.001s-20 45 -34 67c-8 12 -16.333 23.667 -25 35z
" />
    <glyph glyph-name="nine" unicode="9" horiz-adv-x="429" 
d="M211 33c-12.667 -8.66699 -30.002 -14.6689 -52.002 -18.002c-6 -0.666992 -11.667 -1 -17 -1c-13.333 -0.666992 -23.333 2.33301 -30 9c-3.33301 3.33301 -5.33301 7.33301 -6 12c-0.666992 4 0.333008 9.33301 3 16s8.33398 14 17.001 22
c8.66699 8.66699 19.334 18.667 32.001 30c22.667 22 47.667 52.333 75 91s47.333 92 60 160c-18 -12.667 -37.333 -21.667 -58 -27s-41 -6.66602 -61 -3.99902c-37.333 4 -71 21 -101 51c-30 29.333 -47.667 71 -53 125c-0.666992 8.66699 -1 17.334 -1 26.001
c0 12.667 0.666992 25.667 2 39c3.33301 22 8.66602 43.333 15.999 64c14 38.667 35 72 63 100c27.333 27.333 59 42 95 44h8c22 0 42.667 -4.33301 62 -13c20.667 -10 39.334 -23.667 56.001 -41c30 -32.667 52 -74.667 66 -126c10.667 -39.333 16 -78.333 16 -117
c0 -10.667 -0.333008 -21.667 -1 -33c-3.33301 -40 -11.333 -85.333 -24 -136s-32 -99 -58 -145c-14 -24.667 -30 -48 -48 -70s-38.333 -41.333 -61 -58zM216.998 746.998c-20.667 -1.33301 -39.999 -13.999 -57.999 -37.999c-17.333 -24 -30.333 -53.667 -39 -89
c-4 -18.667 -6.66699 -38.334 -8 -59.001v-15c0 -16 1.33301 -32 4 -48c6 -40 24.333 -72.333 55 -97c20 -16.667 42.333 -25 67 -25c12 0 24.667 2 38 6c10 3.33301 18.333 16 25 38c6 22 9.66699 48 11 78v25v26c-0.666992 18 -2.33398 35.333 -5.00098 52
c-5.33301 40 -15.333 74.667 -30 104c-14 28.667 -32.333 43 -55 43c-1.33301 -0.666992 -3 -1 -5 -1z" />
    <glyph glyph-name="colon" unicode=":" horiz-adv-x="111" 
d="M18 389c-0.666992 1.33301 -1.00391 2.6709 -1.00391 4.00391c0 8 4.33301 17.333 13 28c10 11.333 21.333 16.666 34 15.999c2 -8.66699 8.33301 -14.334 19 -17.001s16.334 -9.33398 17.001 -20.001c0.666992 -10 -2 -20.667 -8 -32
c-3.33301 -6 -7.66602 -10.667 -12.999 -14c-3.33301 -2.66699 -7.66602 -4.33398 -12.999 -5.00098h-4c-10 0 -19.333 4.33301 -28 13c-9.33301 10 -14.666 19 -15.999 27zM40.9961 75.0049l4 -0.00292969c8.66699 0 17.334 -4.66699 26.001 -14
c10.667 -10.667 17 -22.667 19 -36c-4.66699 -6 -7.33398 -14.667 -8.00098 -26s-6.66699 -17.666 -18 -18.999h-6c-8.66699 0 -17.334 2 -26.001 6c-11.333 5.33301 -18.666 14 -21.999 26c-1.33301 4.66699 -2 9.33398 -2 14.001c0 8.66699 2 17.334 6 26.001
c6 13.333 15 21 27 23z" />
    <glyph glyph-name="semicolon" unicode=";" horiz-adv-x="114" 
d="M26 29c6 10.667 16.002 16 30.002 16h1c15.333 0 26.666 -4.66699 33.999 -14c1.33301 -9.33301 2 -18.333 2 -27c0 -9.33301 -1 -18 -3 -26c-4 -16.667 -8.66699 -34.667 -14 -54c-4.66699 -9.33301 -11 -17.333 -19 -24c-4 -3.33301 -7.66699 -5 -11 -5
c-4 0 -7.66699 2 -11 6c-4 6 -6.66699 13.333 -8 22s-2 17.667 -2 27v2c0 16.667 1 32.667 3 48c1.33301 15.333 0.666016 25 -2.00098 29zM22.002 389l-0.00292969 4.00098c-0.666992 8.66699 3.33301 18 12 28c10 11.333 21.333 17 34 17
c2.66699 -9.33301 9.33398 -15.333 20.001 -18s16.334 -9.33398 17.001 -20.001c0 -10 -2.66699 -20.667 -8 -32c-4 -6.66699 -8.66699 -11.667 -14 -15c-4 -2 -8 -3 -12 -3c-1.33301 -0.666992 -2.66602 -1 -3.99902 -1c-10.667 0 -20.334 4.33301 -29.001 13
c-9.33301 10 -14.666 19 -15.999 27z" />
    <glyph glyph-name="less" unicode="&#x3c;" horiz-adv-x="314" 
d="M305 463l-44 -31.002l-52 -34l-90 -60c-28 -18.667 -43 -31 -45 -37l37 -42l65 -71l39 -40c12 -12.667 23.333 -24 34 -34c4.66699 -11.333 5.33398 -22.666 2.00098 -33.999c-2.66699 -10 -8.33398 -14.667 -17.001 -14h-6c-4.66699 8 -16.667 23 -36 45l-66 72l-80 90
c-24 27.333 -36 44.333 -36 51v0c0.666992 6 10.667 17.333 30 34l68 58c32 25.333 62.667 51 92 77c30 25.333 47 44.333 51 57c4.66699 1.33301 9 2 13 2c2 0 4 -0.333008 6 -1c5.33301 -1.33301 10 -3.66602 14 -6.99902c10 -8.66699 17 -21.667 21 -39
c1.33301 -8.66699 2 -16.667 2 -24c0 -6.66699 -0.666992 -12.667 -2 -18z" />
    <glyph glyph-name="equal" unicode="=" horiz-adv-x="332" 
d="M48 343c-22 4.66699 -33.002 12.665 -33.002 23.998v2c1.33301 12.667 7.66602 21.334 18.999 26.001c38 4.66699 82.667 7.66699 134 9h43c34.667 0 66.334 -1 95.001 -3c10.667 -6.66699 16.334 -16.667 17.001 -30c0 -1.33301 -0.333008 -2.66602 -1 -3.99902
c-0.666992 -15.333 -9 -24.333 -25 -27h-2c-8.66699 0 -26 1.66699 -52 5c-29.333 4 -59.666 7 -90.999 9c-25.333 2 -48.333 2.33301 -69 1c-20 -1.33301 -31.667 -5.33301 -35 -12zM29.998 231.998c-12.667 2 -19 7.99902 -19 17.999c0 2 0.333008 4.33301 1 7
c4 14.667 12 25.667 24 33c28.667 2.66699 60 4 94 4c14 0 28.667 -0.333008 44 -1c51.333 -1.33301 96 -4 134 -8c9.33301 -4.66699 14 -10.667 14 -18v-3c-1.33301 -8 -8 -14 -20 -18c-6 0 -20 -0.666992 -42 -2c-22.667 -1.33301 -48 -2.66602 -76 -3.99902l-97 -6
c-24 -1.33301 -40.667 -2 -50 -2h-7z" />
    <glyph glyph-name="greater" unicode="&#x3e;" horiz-adv-x="325" 
d="M69 550c3.33301 -10 15.6621 -24.667 36.9951 -44l71 -62l90 -74c28 -23.333 42.333 -38.666 43 -45.999h1c0 -4.66699 -8.33301 -17 -25 -37c-17.333 -20.667 -37.666 -43.667 -60.999 -69l-84 -92c-27.333 -30 -43.666 -49.667 -48.999 -59
c-2 -0.666992 -3.66699 -1 -5 -1c-9.33301 0 -15.333 4.66699 -18 14c-3.33301 12 -2.66602 23.667 2.00098 35c10.667 9.33301 22.334 20.666 35.001 33.999l38 39l65 72c20 22 32.333 36 37 42c-2 5.33301 -17 17.333 -45 36l-90 60c-17.333 12 -34.666 23.333 -51.999 34
l-44 31c-1.33301 5.33301 -2 11.333 -2 18c0 7.33301 1 15.666 3 24.999c3.33301 16.667 10 29.334 20 38.001c4 4 8.66699 6.66699 14 8h6c4 0 8.33301 -0.666992 13 -2z" />
    <glyph glyph-name="question" unicode="?" horiz-adv-x="383" 
d="M10 595l-0.000976562 6.99707c0 40.667 17.333 77.334 52 110.001c36.667 34.667 78.334 54 125.001 58c4 0.666992 8.33301 1 13 1c15.333 0 30.666 -2.33301 45.999 -7c19.333 -5.33301 37.666 -15.333 54.999 -30c22.667 -20 38.667 -42 48 -66
c7.33301 -20 11 -40.333 11 -61c0 -5.33301 -0.333008 -10.333 -1 -15c-4 -48 -22.333 -93.667 -55 -137c-33.333 -43.333 -70.666 -73 -111.999 -89c-12 -4 -21.333 -10.333 -28 -19c-6 -8.66699 -10.333 -18 -13 -28c-5.33301 -19.333 -6.66602 -39.666 -3.99902 -60.999
c3.33301 -21.333 5.66602 -37.666 6.99902 -48.999c-3.33301 -16.667 -11.666 -25.334 -24.999 -26.001c-2.66699 0 -5.33398 0.333008 -8.00098 1c-18 3.33301 -27.667 13 -29 29c6.66699 8.66699 9.33398 26 8.00098 52c-0.666992 25.333 2 51.333 8 78
c3.33301 14 8.33301 27 15 39s16.667 22 30 30c16.667 10 34.334 25 53.001 45s35.334 42 50.001 66c22 36.667 36.667 73.334 44 110.001c6.66699 36.667 -3 63.334 -29 80.001c-19.333 12.667 -41.333 14 -66 4c-24.667 -10.667 -46.334 -26 -65.001 -46
c-12 -13.333 -21.667 -27.666 -29 -42.999c-6.66699 -16 -9.33398 -31 -8.00098 -45c-1.33301 -10.667 -4.33301 -19.334 -9 -26.001s-10 -11.334 -16 -14.001c-14 -6 -28.667 -3.66699 -44 7c-15.333 11.333 -23.333 26.333 -24 45zM171.999 24.9971
c-0.666992 -3.33301 -1.66602 -6.33008 -2.99902 -8.99707c-4 -7.33301 -10.333 -13 -19 -17c-8.66699 -4.66699 -17 -7 -25 -7c-2 0 -4.33301 0.333008 -7 1c-10.667 1.33301 -16.334 7.66602 -17.001 18.999s-3.33398 19.666 -8.00098 24.999c2 13.333 8 25.666 18 36.999
c8.66699 9.33301 17.334 14 26.001 14h5c12 -2 21 -10 27 -24s7 -27 3 -39z" />
    <glyph glyph-name="at" unicode="@" horiz-adv-x="701" 
d="M432 527c1.33301 -2 1.33301 -5.66699 0 -11c-2 -5.33301 -4.33301 -8.33301 -7 -9c-18.667 15.333 -36.334 17.666 -53.001 6.99902c-16 -11.333 -30.333 -29.666 -43 -54.999c-6.66699 -13.333 -12.334 -28 -17.001 -44c-5.33301 -16 -10 -32 -14 -48
c-8 -38.667 -11 -74 -9 -106c1.33301 -31.333 9.66602 -46.666 24.999 -45.999c7.33301 0.666992 15.333 11 24 31c8 20 16 43.333 24 70c10 32 18.667 63.333 26 94s11.333 48 12 52c2.66699 6.66699 10.667 13 24 19c14 5.33301 27.333 6 40 2c6 -2 11.333 -5 16 -9
c4 -4 7.33301 -9.66699 10 -17c-3.33301 -2.66699 -8.33301 -16 -15 -40c-6 -24.667 -11.667 -52.334 -17 -83.001c-6 -37.333 -10.333 -73.333 -13 -108c-2.66699 -34 -0.333984 -52.667 6.99902 -56c13.333 -6.66699 32.666 3 57.999 29
c24.667 25.333 46.334 59.333 65.001 102c10 23.333 18.333 48 25 74c6 26 8.66699 52.333 8 79c-1.33301 45.333 -13.666 90 -36.999 134c-22.667 44.667 -54.334 80.334 -95.001 107.001c-22 14 -46.333 24.333 -73 31c-26.667 7.33301 -55.667 9.33301 -87 6
c-20 -1.33301 -40 -6.66602 -60 -15.999c-20 -8.66699 -39 -20.667 -57 -36c-34 -28.667 -61.667 -69 -83 -121c-21.333 -51.333 -30.666 -114 -27.999 -188c0.666992 -18.667 3.33398 -38.334 8.00098 -59.001c4 -20.667 10.333 -41.334 19 -62.001
c14.667 -38 36 -74.333 64 -109c27.333 -34 60.666 -60.333 99.999 -79c32.667 -15.333 69.667 -23.666 111 -24.999c40.667 -1.33301 85.334 8 134.001 28c18.667 2.66699 26.667 -2 24 -14c-2 -12 -9.33301 -22.333 -22 -31c-56 -15.333 -106.667 -23 -152 -23h-20
c-50.667 2.66699 -95 12.667 -133 30c-46 20.667 -83.333 49.667 -112 87c-29.333 36.667 -51.333 76.334 -66 119.001c-7.33301 23.333 -13 46.666 -17 69.999s-6.33301 46 -7 68v13c0 72 12 134.333 36 187c26 56 60.333 100 103 132c23.333 17.333 48.666 31 75.999 41
c26.667 10 54.667 16 84 18c12.667 0.666992 25 1 37 1c56.667 0 106 -10.333 148 -31c50.667 -24.667 90 -59 118 -103c15.333 -24 27 -50.333 35 -79c8 -28 12.333 -57.667 13 -89v-11c0 -32 -4 -62.333 -12 -91c-8.66699 -31.333 -20 -60 -34 -86
c-26.667 -48.667 -58 -85.334 -94 -110.001c-36 -25.333 -64 -33.666 -84 -24.999c-11.333 5.33301 -20.333 12.666 -27 21.999c-7.33301 9.33301 -12.666 19.666 -15.999 30.999c-7.33301 28 -9 57.667 -5 89c4.66699 32 6.33398 54 5.00098 66
c-1.33301 -8.66699 -4.33301 -25 -9 -49c-5.33301 -24.667 -12.666 -48 -21.999 -70c-6 -14.667 -13 -27.334 -21 -38.001s-17.333 -16.667 -28 -18c-28 -4 -54 2 -78 18c-24 16.667 -39.333 38 -46 64c-4.66699 21.333 -6.66699 42.333 -6 63
c0.666992 21.333 3.66699 42 9 62c10 36.667 25 69.334 45 98.001s39 48.334 57 59.001c21.333 12 45 17.333 71 16c26.667 -1.33301 46 -9.33301 58 -24z" />
    <glyph glyph-name="A" unicode="A" 
d="M43 783c4.66699 8 10.6641 11.9961 17.9971 11.9961c4.66699 0 10.334 -1.66699 17.001 -5c15.333 -8.66699 23.666 -18 24.999 -28c2.66699 -10.667 5 -27 7 -49c2 -21.333 3.66699 -44.333 5 -69c2 -38 3.66699 -73.333 5 -106c1.33301 -33.333 3 -50.333 5 -51
c0.666992 3.33301 2.33398 9.33301 5.00098 18c2 8.66699 4.66699 18.667 8 30l24 77c10 28.667 21.333 56.334 34 83.001s26.667 49.334 42 68.001c14.667 18.667 30.334 27.667 47.001 27c33.333 -1.33301 59 -22.333 77 -63s31.333 -90.667 40 -150
c4.66699 -32 8 -65.667 10 -101s3.33301 -71 4 -107c0.666992 -28 1 -55.667 1 -83v-73c-1.33301 -50 -2.33301 -92 -3 -126v-48c0 -13.333 0.666992 -22.666 2 -27.999c-7.33301 -13.333 -21.666 -20 -42.999 -20c-4.66699 0 -9.66699 0.333008 -15 1
c-29.333 3.33301 -49 15 -59 35c-6 35.333 -8.66699 83.666 -8 144.999c0 25.333 0.333008 51.333 1 78c-3.33301 0 -6.66602 -0.333008 -9.99902 -1c-33.333 -4 -67 -10.333 -101 -19c-14 -3.33301 -27 -6.66602 -39 -9.99902c0 -2 0.333008 -4 1 -6
c6 -55.333 10.333 -116.666 13 -183.999c-4.66699 -13.333 -22.334 -17.333 -53.001 -12s-48.667 19 -54 41c-12 64 -20 126.333 -24 187c-3.33301 50 -5 97.333 -5 142v30c2 100.667 7.66699 184.667 17 252s11.333 105 6 113zM187.997 254.996
c34 6.66699 68.334 11.999 103.001 15.999h1c0.666992 30.667 1.66699 62 3 94c1.33301 34.667 2.33301 69.334 3 104.001c1.33301 34.667 2.33301 67.667 3 99c0.666992 58 -0.333008 106.333 -3 145c-2 38.667 -8 58.667 -18 60c-10.667 0.666992 -23.334 -12 -38.001 -38
s-29.334 -57.333 -44.001 -94c-18 -44 -33.667 -88.667 -47 -134c-14 -46 -21.333 -77 -22 -93c2.66699 -64.667 6.33398 -121.667 11.001 -171z" />
    <glyph glyph-name="B" unicode="B" horiz-adv-x="488" 
d="M48 761c2 20.667 10.665 28.332 25.998 22.999c15.333 -4.66699 26 -11.667 32 -21c8.66699 -24.667 15.334 -49.334 20.001 -74.001s8.33398 -48.334 11.001 -71.001c5.33301 -42 8.33301 -77.667 9 -107c0.666992 -30 3 -46.333 7 -49
c3.33301 3.33301 8.66602 26.333 15.999 69c7.33301 42 18.333 85.333 33 130c10 30 21.667 56.667 35 80c13.333 24 29 39.333 47 46c10 4 20 6 30 6c22.667 0 44.334 -8.66699 65.001 -26c30 -25.333 44.333 -57.333 43 -96c-0.666992 -32 -5.66699 -62 -15 -90
c-10 -28.667 -21.667 -55 -35 -79c-25.333 -44.667 -52.666 -80.334 -81.999 -107.001c-28.667 -26.667 -45 -42.334 -49 -47.001c11.333 2 25 3 41 3c16 -0.666992 32.667 -2.66699 50 -6c32 -6.66699 62.333 -21 91 -43c28 -22 43 -57 45 -105v-16
c0 -64 -18.667 -108 -56 -132c-41.333 -25.333 -96 -26.666 -164 -3.99902c-12 4 -18 13 -18 27c0.666992 13.333 3.66699 24.333 9 33h7c2.66699 -0.666992 5 -2.66699 7 -6c-2.66699 -20 9.33301 -31.333 36 -34s48.334 3.33301 65.001 18c11.333 9.33301 18 28.333 20 57
s-0.666992 57.334 -8 86.001c-4.66699 19.333 -11.667 37 -21 53s-20.666 27.667 -33.999 35c-22 12 -47.333 16.333 -76 13s-49.334 -8.33301 -62.001 -15c1.33301 -51.333 3.66602 -105.666 6.99902 -162.999c2.66699 -56.667 3.66699 -104.667 3 -144
c-4 -9.33301 -13.667 -14 -29 -14c-5.33301 0 -11.666 0.666992 -18.999 2c-26.667 4 -47.334 13.333 -62.001 28c-4 4 -7 8 -9 12c-2.66699 4.66699 -4.33398 9.33398 -5.00098 14.001c-15.333 108.667 -23 210 -23 304v17c0.666992 99.333 3 182.333 7 249
c2.66699 36 4.66699 66.333 6 91s1 42.334 -1 53.001zM309.998 768.998c-0.666992 0.666992 -1.33398 1.00098 -2.00098 1.00098c-10.667 0 -25.667 -18 -45 -54c-20 -39.333 -38.667 -89.333 -56 -150c-9.33301 -32.667 -17.333 -67.334 -24 -104.001
c-6.66699 -37.333 -11 -75 -13 -113c4.66699 -1.33301 9.33398 -2 14.001 -2c5.33301 0 11 1 17 3c10 4 17 9 21 15c14.667 22 28.667 49.667 42 83c14 33.333 26 67.666 36 102.999c14.667 52.667 24 101.334 28 146.001c0.666992 8.66699 1 16.667 1 24
c0 29.333 -6.33301 45.333 -19 48z" />
    <glyph glyph-name="C" unicode="C" horiz-adv-x="386" 
d="M353 583c-3.33301 -8.66699 -9.66895 -14.998 -19.002 -18.998c-10 -4 -16 -0.666992 -18 10c4 21.333 5.33301 46.333 4 75c-0.666992 28 -6.66699 52 -18 72c-6 11.333 -13.333 20.333 -22 27c-9.33301 6.66699 -20.666 10.667 -33.999 12
c-21.333 0.666992 -38.333 -20.666 -51 -63.999s-21.667 -92.333 -27 -147c-3.33301 -30 -5.66602 -59.333 -6.99902 -88c-1.33301 -29.333 -2 -56 -2 -80c0 -20 1.66699 -43.333 5 -70c3.33301 -26 8 -52.667 14 -80c10.667 -50.667 25.667 -96.334 45 -137.001
c18.667 -41.333 39 -62 61 -62c11.333 0 20.666 9.33301 27.999 28s12.666 40 15.999 64c2.66699 15.333 4.33398 31 5.00098 47s0.666992 30 0 42c2.66699 5.33301 7.66699 7.33301 15 6c8 -2 12.667 -6.66699 14 -14c0 -16.667 -1 -43.334 -3 -80.001
s-10.333 -67.667 -25 -93c-6 -10.667 -14 -19.334 -24 -26.001c-9.33301 -7.33301 -20.666 -11 -33.999 -11h-6c-26.667 0 -51 5 -73 15c-23.333 10.667 -44.666 25.667 -63.999 45c-34.667 36.667 -61.334 84.667 -80.001 144c-18 60 -27.667 122 -29 186v11
c0 49.333 6.33301 103.666 19 162.999c14.667 64 37.334 116.667 68.001 158c16.667 22.667 36 40 58 52c17.333 10 36.333 15 57 15c5.33301 0 10.666 -0.333008 15.999 -1c48.667 -5.33301 80.334 -26.666 95.001 -63.999c15.333 -36.667 20.666 -82 15.999 -136z" />
    <glyph glyph-name="D" unicode="D" horiz-adv-x="506" 
d="M52 784c4.66699 8 11.0029 11.998 19.0029 11.998c5.33301 0 11 -1.66699 17 -5c16.667 -8.66699 25.667 -18 27 -28c3.33301 -10.667 6.33301 -27 9 -49s5.33398 -46 8.00098 -72c4 -38 8 -74 12 -108c3.33301 -34 5.66602 -51.333 6.99902 -52
c2.66699 8.66699 9 31 19 67s23.333 73.333 40 112c8.66699 20.667 18.334 40 29.001 58c10 18.667 21 34 33 46c8.66699 8.66699 17.667 15.334 27 20.001s18.666 6.66699 27.999 6c41.333 -4 72.666 -24 93.999 -60s36.666 -79.667 45.999 -131c4.66699 -28 8 -57 10 -87
c1.33301 -30 2.33301 -60 3 -90v-5c0 -29.333 -2.66699 -64.666 -8 -105.999c-4.66699 -43.333 -13.667 -85 -27 -125c-7.33301 -21.333 -16 -41.333 -26 -60s-21.333 -34.667 -34 -48c-16 -16.667 -34.333 -28 -55 -34c-20.667 -6.66699 -44 -6 -70 2
c-11.333 3.33301 -18.333 11.666 -21 24.999c-2.66699 12.667 -2 23.334 2 32.001c2.66699 0.666992 5.33398 0.666992 8.00098 0c2 -0.666992 4.33301 -2 7 -4c-1.33301 -5.33301 0 -11.333 4 -18c4 -7.33301 8.66699 -11.333 14 -12c26.667 -6 47 9.66699 61 47
c14 36.667 24 79 30 127c4 31.333 6.66699 62 8 92c0.666992 30 0.666992 54.667 0 74c-1.33301 22 -3 47 -5 75c-2 27.333 -4.33301 55 -7 83c-4 52 -9.33301 99 -16 141s-14.334 63.333 -23.001 64c-10.667 1.33301 -24 -11 -40 -37c-15.333 -26 -31 -57.333 -47 -94
c-20 -44 -37.667 -88.667 -53 -134c-15.333 -46 -23.333 -77 -24 -93l23 -212c6 -64.667 8.33301 -130.334 7 -197.001c-3.33301 -9.33301 -13.666 -14 -30.999 -14c-4 0 -8 0.333008 -12 1c-25.333 2 -46 9.66699 -62 23l-10 10c-2.66699 4 -4.33398 8.33301 -5.00098 13
c-8 63.333 -13.333 122.333 -16 177c-3.33301 55.333 -5.33301 107 -6 155v49c0 68.667 1.66699 130.334 5 185.001c3.33301 67.333 3.66602 127 0.999023 179z" />
    <glyph glyph-name="E" unicode="E" horiz-adv-x="364" 
d="M120 784c8.66699 6.66699 17.3291 9.99707 25.9961 9.99707c4 0 7.66699 -0.666992 11 -2c12.667 -3.33301 23.334 -8.66602 32.001 -15.999c11.333 -4.66699 33 -6.66699 65 -6s61 2.66699 87 6c4.66699 0 7.66699 -1.66699 9 -5v-3c0 -2 -0.666992 -4 -2 -6
c-25.333 -11.333 -53 -18 -83 -20c-30.667 -1.33301 -52 -3.66602 -64 -6.99902c-1.33301 -2.66699 -3 -9.66699 -5 -21c-2 -10.667 -4 -24 -6 -40c-3.33301 -30.667 -7 -68.667 -11 -114s-7.33301 -91 -10 -137c-4 -57.333 -7 -109 -9 -155
c-1.33301 -46 -0.666016 -72.333 2.00098 -79c5.33301 -4.66699 22 -4.33398 50 0.999023c28 6 51.667 14.667 71 26c7.33301 0 11.333 -3.66699 12 -11s-1.33301 -13.666 -6 -18.999c-21.333 -14 -44.333 -22.333 -69 -25c-25.333 -3.33301 -42.333 -6 -51 -8
c-2.66699 -3.33301 -3 -12.333 -1 -27c2.66699 -14.667 6.33398 -30 11.001 -46c3.33301 -12.667 7.66602 -23.667 12.999 -33c4.66699 -10 9.33398 -15.333 14.001 -16c8.66699 -0.666992 27 4 55 14s52 19.667 72 29c1.33301 -2 2.33301 -4.66699 3 -8
s-0.333008 -7 -3 -11c-21.333 -12.667 -46.333 -24.667 -75 -36c-28 -12 -47 -19 -57 -21c-8 -1.33301 -16.333 -2 -25 -2c-15.333 0 -32 2 -50 6c-29.333 6.66699 -48.666 18 -57.999 34c-12 40.667 -21 83.334 -27 128.001c-6 44 -9.33301 89 -10 135v20
c0 78 7 155.667 21 233c16 84 38.667 161.333 68 232z" />
    <glyph glyph-name="F" unicode="F" horiz-adv-x="330" 
d="M297 775c8 0.666992 11.9961 -1.66504 11.9961 -6.99805v-1c-0.666992 -6 -4.33398 -10.333 -11.001 -13c-18 -3.33301 -42 -3.33301 -72 0c-29.333 3.33301 -47.666 2 -54.999 -4c-2.66699 -6 -5 -17 -7 -33c-2 -16.667 -3.66699 -36 -5 -58
c-2 -42.667 -3.33301 -91 -4 -145c-1.33301 -54 -3 -101.667 -5 -143c4.66699 -4.66699 20.334 -4 47.001 2s46.334 12 59.001 18c9.33301 3.33301 16.333 1.66602 21 -5.00098c4 -7.33301 3 -12.333 -3 -15c-12 -7.33301 -31.667 -13.333 -59 -18s-48 -8.33398 -62 -11.001
c-2 -4 -2.33301 -22 -1 -54c0.666992 -32 3.33398 -67.333 8.00098 -106c3.33301 -25.333 7.66602 -50 12.999 -74s12 -44.333 20 -61c0 -10.667 -3.33301 -20.334 -10 -29.001c-6.66699 -8 -15 -14.667 -25 -20c-13.333 -6 -27.666 -9 -42.999 -9h-7
c-18.667 1.33301 -34 8.33301 -46 21c-12 40 -21 82 -27 126s-9.33301 89 -10 135c-0.666992 10.667 -1 21 -1 31c0 75.333 6 151 18 227c12.667 86 29.334 165.667 50.001 239c4 10 17.333 15 40 15h3c24.667 0 50.334 -1.66699 77.001 -5
c18 -1.33301 35 -2.66602 51 -3.99902c15.333 -1.33301 26.666 -1 33.999 1z" />
    <glyph glyph-name="G" unicode="G" horiz-adv-x="455" 
d="M385 601c0 -8 -3.66211 -14.334 -10.9951 -19.001c-7.33301 -4 -13.333 -1.66699 -18 7l-3 72c-1.33301 32 -8 58.667 -20 80c-5.33301 10 -12 17.667 -20 23c-8 6 -17.667 9.33301 -29 10c-22 0.666992 -40.333 -13.666 -55 -42.999
c-15.333 -28.667 -27.333 -66 -36 -112c-4.66699 -24.667 -8.33398 -51.334 -11.001 -80.001c-2.66699 -28 -4.33398 -56.667 -5.00098 -86c-1.33301 -67.333 2 -134.333 10 -201c8 -66 20.667 -120.333 38 -163c8.66699 -22.667 19 -40.334 31 -53.001s25.333 -19 40 -19
c8.66699 0.666992 16 14 22 40c6 26.667 10.667 57.334 14 92.001c4 42 6.33301 82.333 7 121c1.33301 38.667 1.33301 59 0 61c-6 1.33301 -14.667 1.33301 -26 0s-21.666 -2 -30.999 -2c-16 -2 -23.667 2.33301 -23 13c0 11.333 7.33301 18.666 22 21.999
c22.667 4 45 5 67 3s44 -2 66 0c14 0.666992 21 -4.33301 21 -15v-1c0 -11.333 -6.33301 -17.333 -19 -18c-8.66699 -0.666992 -19 -0.666992 -31 0c-11.333 0 -19 -0.666992 -23 -2c1.33301 -11.333 1.66602 -29.666 0.999023 -54.999c-1.33301 -26 -3 -54 -5 -84
c-4 -44.667 -9.66699 -87.667 -17 -129c-6.66699 -40.667 -15.334 -63.334 -26.001 -68.001c-6.66699 -4.66699 -17.334 -7 -32.001 -7c-2.66699 0 -5 0.333008 -7 1c-18.667 0.666992 -37.667 4 -57 10c-10 2.66699 -19.333 6.33398 -28 11.001
c-9.33301 4.66699 -17 9.66699 -23 15c-51.333 48 -87 105.667 -107 173c-18 58 -27 116.667 -27 176c0 8.66699 0.333008 17.667 1 27c1.33301 36 5.66602 71 12.999 105c7.33301 34.667 17 67 29 97c22 56 50.667 101.667 86 137c33.333 34 70 51 110 51h5
c44.667 -1.33301 73.667 -19.666 87 -54.999c14 -34.667 20.667 -79.667 20 -135z" />
    <glyph glyph-name="H" unicode="H" horiz-adv-x="435" 
d="M361 775c4.66699 7.33301 11.668 10.6689 21.001 10.002c4 0 8.33301 -0.333008 13 -1c14.667 -4 22 -11.333 22 -22v-4c-7.33301 -46 -13.666 -96.333 -18.999 -151c-5.33301 -54 -9.66602 -108 -12.999 -162c-3.33301 -65.333 -5.33301 -127.666 -6 -186.999
c-0.666992 -58.667 0 -107.667 2 -147c0.666992 -21.333 2 -39 4 -53c1.33301 -14 3.33301 -23 6 -27c-4.66699 -9.33301 -13.667 -15 -27 -17h-4c-11.333 0 -20.666 7 -27.999 21c-4 42.667 -6.66699 84.334 -8 125.001c-0.666992 19.333 -1 39 -1 59v14
c-27.333 -6.66699 -55 -10.334 -83 -11.001c-24 -1.33301 -48 -3 -72 -5c6.66699 -62.667 16 -122.667 28 -180c0 -5.33301 -2 -10.333 -6 -15c-5.33301 -6 -14 -12.333 -26 -19c-14 -7.33301 -27.333 -11 -40 -11c-6.66699 0 -13.334 1 -20.001 3
c-6 2 -11.333 5.33301 -16 10c-5.33301 4.66699 -9.33301 11 -12 19c-13.333 36.667 -23.333 73.667 -30 111s-10.667 73.666 -12 108.999c-1.33301 18 -2 35.667 -2 53c0 47.333 3.33301 93 10 137c9.33301 59.333 19.666 112 30.999 158c10 38 19 70 27 96
c8 26.667 12.333 45.334 13 56.001c6 8.66699 14 13 24 13c6 0 13 -2 21 -6c18.667 -10 28.667 -25.333 30 -46c-24.667 -122.667 -34.334 -240.334 -29.001 -353.001c1.33301 -39.333 3.66602 -77.333 6.99902 -114c23.333 2 47 3.66699 71 5
c29.333 1.33301 58 4.66602 86 9.99902l1 28c2.66699 75.333 7.66699 152.666 15 231.999c8 78.667 15.333 166 22 262z" />
    <glyph glyph-name="I" unicode="I" horiz-adv-x="304" 
d="M217 779c8 0 11.002 -2.33105 9.00195 -6.99805s-4.66699 -8.66699 -8 -12c-19.333 -0.666992 -35 -0.333984 -47 0.999023c-12.667 1.33301 -20.667 1.33301 -24 0l22 -138l21 -130c11.333 -78.667 19.666 -155.667 24.999 -231s4 -153.666 -4 -234.999
c6.66699 0 16.334 -1 29.001 -3c13.333 -2 28 -4 44 -6c4 -1.33301 6 -3.66602 6 -6.99902c0 -0.666992 -0.333008 -1.33398 -1 -2.00098c-1.33301 -4 -4.33301 -7 -9 -9c-62.667 4 -110.334 7.66699 -143.001 11c-33.333 3.33301 -67.333 3 -102 -1
c-2.66699 2.66699 -4 6 -4 10c0 3.33301 1.33301 6.33301 4 9c10.667 0 21.334 0.666992 32.001 2s21.667 1.33301 33 0c-2.66699 50 -4.33398 100.667 -5.00098 152v154c1.33301 93.333 2.66602 178.666 3.99902 255.999c2 77.333 1.33301 133.333 -2 168
c-9.33301 -0.666992 -21 -0.666992 -35 0s-28.667 1 -44 1c-4 2 -5.66699 4.66699 -5 8c0 3.33301 1.66699 6.66602 5 9.99902c14.667 0.666992 29 1 43 1c26 0 50.333 -0.333008 73 -1c35.333 -0.666992 63 -1 83 -1z" />
    <glyph glyph-name="J" unicode="J" horiz-adv-x="427" 
d="M29 322c0.666992 11.333 6.66699 14.3311 18 8.99805c11.333 -4.66699 17.666 -13 18.999 -25c-2 -9.33301 -5.33301 -28.333 -10 -57c-4.66699 -29.333 -6.66699 -59.333 -6 -90c0 -21.333 2 -41.333 6 -60c4 -19.333 11 -34.666 21 -45.999
c8 -10 18.333 -16.667 31 -20c13.333 -3.33301 29.333 -1.66602 48 5.00098c8 2.66699 15.333 10.667 22 24s12.334 30.666 17.001 51.999c8.66699 39.333 15 89.333 19 150s7 124 9 190l4 162c0.666992 53.333 2 101.666 4 144.999
c-12 0.666992 -32 0.333984 -60 -0.999023c-28 -0.666992 -48.667 -2 -62 -4c-3.33301 2.66699 -6.33301 7 -9 13s1.33301 9.66699 12 11c24 0.666992 48.333 1 73 1c28.667 0 58 -0.333008 88 -1c55.333 -1.33301 95 -2.66602 119 -3.99902c10 0.666992 15 -1.33301 15 -6
v-1c-0.666992 -6 -4.66699 -10.333 -12 -13c-22 0.666992 -44.333 1.66699 -67 3s-40 2 -52 2c7.33301 -31.333 14.666 -67 21.999 -107s13.666 -82 18.999 -126c10 -82.667 12.667 -166 8 -250c-4 -84.667 -24 -154 -60 -208c-7.33301 -12 -16.666 -22 -27.999 -30
c-12 -8.66699 -24.333 -15.667 -37 -21c-25.333 -10.667 -50.666 -16.667 -75.999 -18h-13c-18 0 -31.333 2.33301 -40 7c-9.33301 6 -17.333 15 -24 27c-6 12.667 -11 27.667 -15 45c-6.66699 30 -10 65.333 -10 106v8c0.666992 43.333 3 86 7 128z" />
    <glyph glyph-name="K" unicode="K" horiz-adv-x="540" 
d="M435 728c4.66699 -37.333 2.66699 -72.334 -6 -105.001c-8.66699 -33.333 -21 -64 -37 -92c-10.667 -18.667 -22 -36 -34 -52l-37 -45c-22.667 -24.667 -43 -44.667 -61 -60c-18.667 -15.333 -29 -24.666 -31 -27.999c4 -5.33301 12 -26 24 -62
c12.667 -36.667 28.667 -75 48 -115c12.667 -26.667 27 -51.667 43 -75c15.333 -23.333 32 -40.666 50 -51.999c15.333 -10 31 -14.667 47 -14c16.667 0.666992 33.667 9.33398 51 26.001c14 7.33301 22 4.66602 24 -8.00098c0.666992 -2 1 -4 1 -6
c0 -10 -5.33301 -18.333 -16 -25c-18 -10.667 -36.333 -16 -55 -16h-8c-21.333 2 -42 9 -62 21c-31.333 18.667 -60.666 46 -87.999 82s-51.333 73.333 -72 112c-10.667 20.667 -20.334 41 -29.001 61c-8.66699 19.333 -15.667 37.333 -21 54h-7
c-0.666992 -34.667 -3 -70 -7 -106c-5.33301 -54 -17.333 -106.667 -36 -158c-1.33301 -3.33301 -2.66602 -6.33301 -3.99902 -9c-8.66699 -16 -22.334 -24 -41.001 -24h-7c-25.333 2.66699 -39.333 17 -42 43c7.33301 35.333 13.333 80.666 18 135.999
c4 56 7 113.333 9 172c1.33301 57.333 1.33301 112.333 0 165c-0.666992 52 -2.66699 94.667 -6 128c-2 17.333 -4.33301 31 -7 41c-2 10.667 -4.66699 16 -8 16c-1.33301 24 7 39 25 45c6 1.33301 11.333 2 16 2c10.667 0 19.334 -4.66699 26.001 -14
c0 -6 1.66699 -15.667 5 -29s7 -30 11 -50c8.66699 -36 18 -80.667 28 -134c9.33301 -52 15.666 -107.667 18.999 -167c27.333 2 53.666 20.667 78.999 56c30.667 42.667 57.334 90.667 80.001 144c12.667 28.667 23.667 57 33 85c10 28 18 52.333 24 73
c2.66699 14 8.33398 21 17.001 21c3.33301 0 6.66602 -1 9.99902 -3c14 -6 25.333 -17.333 34 -34z" />
    <glyph glyph-name="L" unicode="L" horiz-adv-x="342" 
d="M94 779c5.33301 8.66699 12.333 12.999 21 12.999c7.33301 0 16.333 -3 27 -9c22.667 -13.333 37 -37.333 43 -72c8 -34 13 -74.333 15 -121c2.66699 -46.667 3.33398 -95 2.00098 -145l-4 -97c-2 -32 -4.33301 -63 -7 -93
c-4.66699 -55.333 -9.66699 -103.666 -15 -144.999c-4.66699 -40.667 -8 -66.667 -10 -78c28 4 58 7.66699 90 11s53.333 3 64 -1c4.66699 -3.33301 7 -7 7 -11s-1.66699 -7 -5 -9c-6.66699 0 -19.667 -0.333008 -39 -1s-38.666 -2 -57.999 -4
c-11.333 -0.666992 -21.333 -2 -30 -4c-9.33301 -1.33301 -17 -3.33301 -23 -6c-8.66699 -4.66699 -18.334 -8.33398 -29.001 -11.001c-10.667 -3.33301 -21.334 -5.66602 -32.001 -6.99902c-6.66699 -0.666992 -13 -1 -19 -1c-12.667 0 -24.667 1.66699 -36 5
c-16.667 4.66699 -26.334 13.667 -29.001 27c19.333 186 37 343.667 53 473c16.667 130 21.334 225.333 14.001 286z" />
    <glyph glyph-name="M" unicode="M" horiz-adv-x="689" 
d="M45 788c4 12 12.6641 18.001 25.9971 18.001c3.33301 0 7.33301 -0.333008 12 -1c20.667 -4 35.334 -15.333 44.001 -34c2 -23.333 4 -51.666 6 -84.999l4 -102c2 -52 3.33301 -99 4 -141c1.33301 -42 2.33301 -65 3 -69c2 14.667 8.33301 43.334 19 86.001
c11.333 42.667 24 86 38 130c9.33301 29.333 19 56 29 80c9.33301 24.667 18.333 43 27 55c5.33301 8 15.333 12 30 12c14 0 27 -5 39 -15c6 -5.33301 11.333 -12 16 -20c4.66699 -8.66699 7.66699 -18.667 9 -30c0.666992 -17.333 1.33398 -43.666 2.00098 -78.999
c0 -34.667 0.333008 -72 1 -112c0 -20.667 0.333008 -41.334 1 -62.001v-60c0.666992 -34.667 1.33398 -64 2.00098 -88s1.33398 -36.333 2.00098 -37c1.33301 1.33301 3.33301 6 6 14c2 8.66699 5 20 9 34c6 26.667 14.333 60.667 25 102
c11.333 41.333 24.666 83.666 39.999 126.999c16 44.667 35 86.667 57 126c21.333 39.333 46 69 74 89c14.667 10.667 31.667 10.667 51 0s32.333 -26.667 39 -48c3.33301 -16.667 5 -38.667 5 -66c0 -10.667 -0.333008 -22.334 -1 -35.001
c-1.33301 -44 -4.33301 -92 -9 -144l-8 -85c-2.66699 -28.667 -5 -57 -7 -85c-4.66699 -52 -8 -99.667 -10 -143c-1.33301 -42.667 0.666992 -73.667 6 -93c2 -18.667 -7.66699 -29.334 -29 -32.001c-4 -0.666992 -7.66699 -1 -11 -1c-16.667 0 -32 5.66699 -46 17
c-5.33301 4.66699 -10 10.334 -14 17.001s-6.66699 14.334 -8 23.001c-3.33301 67.333 -3.33301 130.666 0 189.999s8 113.666 14 162.999c12 91.333 25 163.333 39 216s18 80.334 12 83.001c-12 3.33301 -26 -6.33398 -42 -29.001
c-15.333 -23.333 -31.333 -53.666 -48 -90.999c-8.66699 -20 -17.334 -41.667 -26.001 -65c-8.66699 -22.667 -17 -46 -25 -70c-15.333 -46 -29 -91.667 -41 -137c-12.667 -45.333 -22 -83.666 -28 -114.999c-2.66699 -10 -6.33398 -17.667 -11.001 -23
c-4.66699 -6 -10 -10.333 -16 -13c-14 -5.33301 -28.667 -4 -44 4c-15.333 8.66699 -24.666 19 -27.999 31c-8 32 -12.667 69.333 -14 112c-0.666992 42.667 -0.333984 85.667 0.999023 129c1.33301 42 3.33301 82 6 120c2.66699 37.333 4 67.666 4 90.999
c0 12.667 -0.666992 22.667 -2 30s-3.33301 11 -6 11c-8 1.33301 -19.667 -17.667 -35 -57c-15.333 -40 -30 -83.667 -44 -131c-11.333 -39.333 -21.333 -76.333 -30 -111c-8 -35.333 -12.333 -59.333 -13 -72c2 -34 4.33301 -65 7 -93
c2.66699 -28.667 4.33398 -59.334 5.00098 -92.001c-2 -10 -5 -19 -9 -27c-4.66699 -8.66699 -9.66699 -16.334 -15 -23.001c-18.667 -20 -40 -31.333 -64 -34s-37.333 6 -40 26c-6.66699 38.667 -10.334 83.667 -11.001 135c-0.666992 14.667 -1 29.667 -1 45
c0 36.667 1 74 3 112c2.66699 64.667 6.33398 127.667 11.001 189c4.66699 60.667 8.33398 111.334 11.001 152.001c0.666992 22 1 40 1 54c0 14.667 -1.33301 23.667 -4 27z" />
    <glyph glyph-name="N" unicode="N" horiz-adv-x="465" 
d="M48 775c8.66699 15.333 20.332 23.0029 34.999 23.0029c3.33301 0 6.33301 -0.333008 9 -1c19.333 -3.33301 32.666 -14 39.999 -32c7.33301 -70.667 11.333 -137.334 12 -200.001c0.666992 -62 -0.666016 -109.667 -3.99902 -143c2 4 5 11.667 9 23
s9.33301 25.333 16 42c12.667 30.667 30.334 67 53.001 109c23.333 42.667 53.666 84.667 90.999 126c7.33301 7.33301 15 12.333 23 15c8.66699 2 17 2.33301 25 1c16 -3.33301 30.333 -12 43 -26s20 -29.333 22 -46c3.33301 -24 5.33301 -49.667 6 -77
c0.666992 -26.667 0.333984 -54.334 -0.999023 -83.001c-2 -52.667 -5.66699 -106 -11 -160c-5.33301 -53.333 -8.66602 -102 -9.99902 -146c-1.33301 -36 0 -67 4 -93c4 -26.667 12.333 -45 25 -55c1.33301 -4 2 -7.66699 2 -11s-0.666992 -6.66602 -2 -9.99902
c-1.33301 -6 -4 -11 -8 -15c-9.33301 -11.333 -23.666 -17 -42.999 -17h-9c-24 2 -41 10.667 -51 26c-18.667 28 -29.334 69 -32.001 123c-2 54 -0.333008 111.333 5 172c5.33301 60 12 118.333 20 175c8.66699 56.667 15 103 19 139c2 19.333 3 34.666 3 45.999
c-0.666992 11.333 -2.66699 17 -6 17c-16 2.66699 -37 -16.333 -63 -57c-25.333 -40 -49 -84.333 -71 -133c-15.333 -32.667 -28 -63.667 -38 -93c-10.667 -30 -17.334 -53.333 -20.001 -70c-0.666992 -13.333 -0.666992 -29.333 0 -48
c0 -19.333 0.666992 -39.666 2 -60.999c1.33301 -40 2.33301 -79.333 3 -118c1.33301 -39.333 -0.666992 -66.333 -6 -81c-8 -16 -26 -22.667 -54 -20s-45.667 16 -53 40c-8.66699 32.667 -13 77 -13 133v3c0 57.333 2 117.666 6 180.999c2 33.333 4.33301 66.666 7 99.999
l8 94l10 142c2 39.333 1 61.333 -3 66z" />
    <glyph glyph-name="O" unicode="O" horiz-adv-x="481" 
d="M252 -2l-4.99902 0.00292969c-38 0 -69.667 7 -95 21c-27.333 14.667 -49.333 34 -66 58c-11.333 16 -20.333 33.667 -27 53c-7.33301 18.667 -13.333 38.667 -18 60c-8 38.667 -12 79 -12 121c-0.666992 4 -1 7.66699 -1 11c0 38 1.33301 73.333 4 106
c2 34 5.66699 67.333 11 100c5.33301 32 12.666 62 21.999 90c17.333 52 43.666 93.667 78.999 125c30 25.333 68.667 38 116 38c10.667 0 21.334 -0.333008 32.001 -1c14.667 -2 29 -9 43 -21c14.667 -12 28 -27.667 40 -47c23.333 -36.667 42.333 -83.334 57 -140.001
c15.333 -56.667 23.333 -114.334 24 -173.001v-7c0 -29.333 -2 -59.333 -6 -90c-4 -33.333 -10 -65.333 -18 -96c-15.333 -57.333 -38 -106 -68 -146c-30 -40.667 -67.333 -61.334 -112 -62.001zM406.001 402.003c0.666992 0.666992 1.00195 1.66895 1.00195 3.00195
c-0.666992 22.667 -2.33398 47 -5.00098 73c-2.66699 27.333 -7 55 -13 83c-10 50.667 -23.333 96 -40 136c-17.333 40 -35.666 61 -54.999 63h-4c-22 0 -43 -17.667 -63 -53c-20.667 -38 -37.667 -82.667 -51 -134c-7.33301 -28 -13 -56.333 -17 -85
c-4.66699 -28.667 -7.33398 -56 -8.00098 -82c-0.666992 -9.33301 -1 -19.333 -1 -30c0 -14.667 0.333008 -30.334 1 -47.001c1.33301 -28.667 3.66602 -58 6.99902 -88c6.66699 -54.667 17.667 -104.334 33 -149.001c16 -44.667 38 -68 66 -70h8
c35.333 -0.666992 63 19 83 59c20.667 42.667 35.667 92 45 148c4.66699 30 8 60 10 90s3 57.667 3 83z" />
    <glyph glyph-name="P" unicode="P" horiz-adv-x="486" 
d="M131 763c7.33301 -24.667 12.334 -48.6689 15.001 -72.002c3.33301 -24 5.33301 -46.667 6 -68c2 -39.333 2 -72.666 0 -99.999c-2 -26.667 -1 -41.334 3 -44.001c3.33301 2.66699 10.333 24 21 64c10.667 39.333 24.667 79.333 42 120c12 28 25.333 52.667 40 74
c15.333 22 32 36 50 42c22 6 45 2.33301 69 -11s43.333 -31 58 -53c8.66699 -12.667 15 -25.667 19 -39c4 -10.667 6 -21.667 6 -33c0 -2 -0.333008 -4.33301 -1 -7c-2 -30 -12.333 -62 -31 -96c-18.667 -33.333 -41 -65 -67 -95c-38 -46 -78 -84.333 -120 -115
c-41.333 -31.333 -69 -45 -83 -41c-1.33301 -50.667 1 -100 7 -148s7.66699 -91.333 5 -130c-1.33301 -12.667 -9 -19 -23 -19c-14.667 0 -30 4 -46 12c-12.667 6 -24.334 14 -35.001 24c-10 9.33301 -15.333 19.333 -16 30c-6 62 -9.33301 121.667 -10 179v28
c0 46.667 1 91.334 3 134.001c4.66699 94 11.667 173.667 21 239c8.66699 64.667 12 107.334 10 128.001c2 15.333 7.66699 23 17 23c2.66699 0 6 -0.666992 10 -2c14.667 -6.66699 24.667 -14.667 30 -24zM156.001 330.998c3.33301 -6 8.00098 -9 14.001 -9
c4.66699 0 10.334 1.66699 17.001 5c14.667 8.66699 24.667 15.334 30 20.001c18.667 16 36.667 40 54 72s32.333 65.667 45 101c7.33301 19.333 13.333 38.666 18 57.999c5.33301 19.333 9.66602 37.666 12.999 54.999c4 23.333 6 44.333 6 63c0 8 -0.333008 15.333 -1 22
c-2 24 -10 38.667 -24 44h-2c-10.667 0 -27.334 -18.667 -50.001 -56c-24 -41.333 -47 -93.333 -69 -156c-12 -34 -22.333 -69.667 -31 -107c-9.33301 -37.333 -16 -74.666 -20 -111.999z" />
    <glyph glyph-name="Q" unicode="Q" horiz-adv-x="466" 
d="M421 386l-0.000976562 -25.001c0 -22.667 -1 -45.334 -3 -68.001c-2.66699 -31.333 -7 -61.333 -13 -90c-11.333 -52.667 -27.666 -97.667 -48.999 -135c-2 -2.66699 -3.66699 -5.33398 -5 -8.00098c5.33301 -6 10.666 -12.333 15.999 -19
c17.333 -21.333 36.333 -39.666 57 -54.999c10 -8.66699 15.333 -16 16 -22c0 -4 -2.66699 -7.66699 -8 -11c-6 -4 -11.667 -5.66699 -17 -5c-4.66699 0 -9 1.66699 -13 5c-10.667 6.66699 -22 16.667 -34 30c-12.667 13.333 -25 27.333 -37 42l-4 4
c-13.333 -13.333 -27.333 -21 -42 -23c-12 -1.33301 -24 -2 -36 -2c-42 0 -77.667 11 -107 33c-37.333 28 -65.666 68.333 -84.999 121c-10.667 28 -18.667 59 -24 93s-8.33301 70 -9 108v16c0 24 0.666992 49.333 2 76c2.66699 32.667 7 65.334 13 98.001
c12 60 34 113 66 159c31.333 46.667 78.666 71 141.999 73h3c22.667 0 42.334 -6 59.001 -18c17.333 -12.667 32.333 -29.667 45 -51c24 -40 40.667 -90.333 50 -151c9.33301 -61.333 15 -119.666 17 -174.999zM253.999 109.999
c-5.33301 6.66699 -8.00098 12.335 -8.00098 17.002c0 3.33301 1.33301 6.33301 4 9c3.33301 3.33301 7.33301 5 12 5s10.334 -1.66699 17.001 -5c5.33301 -2 11.333 -6.33301 18 -13s13.667 -14.667 21 -24l17 -21c2.66699 5.33301 5 10.666 7 15.999
c16.667 40 29.667 85.333 39 136c5.33301 27.333 9.66602 54.666 12.999 81.999c2.66699 26 4 49.667 4 71v4c-0.666992 46 -5 96.333 -13 151s-22.667 101 -44 139c-11.333 20 -24.666 36.333 -39.999 49c-15.333 12 -33.333 18 -54 18h-1c-26.667 0 -46 -19.667 -58 -59
c-12.667 -40 -21.334 -85 -26.001 -135c-2.66699 -34 -4 -67 -4 -99v-82c0.666992 -26.667 3.66699 -54 9 -82c4.66699 -28.667 11 -56.334 19 -83.001c14 -49.333 31 -91.333 51 -126c18.667 -33.333 35.334 -49.666 50.001 -48.999h2c8.66699 1.33301 17 6.33301 25 15
l-33 41c-14.667 18 -23.667 26.333 -27 25z" />
    <glyph glyph-name="R" unicode="R" horiz-adv-x="550" 
d="M129 774c12.667 -44.667 19.667 -88.9961 21 -132.996c0.666992 -44 0.666992 -80.667 0 -110c-0.666992 -16 -0.666992 -28.667 0 -38c0 -10 1 -16 3 -18c3.33301 3.33301 11 23.666 23 60.999c12.667 37.333 28.667 75.666 48 114.999c12.667 26 27 49.333 43 70
c15.333 20.667 32 34 50 40c22 6 45 2.66699 69 -10c24 -13.333 43.333 -31.333 58 -54c8 -12 14.333 -24.667 19 -38c3.33301 -10.667 5 -21.334 5 -32.001v-7c-2 -22.667 -8.66699 -45 -20 -67c-11.333 -22.667 -25.666 -44.334 -42.999 -65.001
c-14 -16.667 -29.667 -32.334 -47 -47.001c-16.667 -15.333 -33.667 -29.333 -51 -42c-22 -16.667 -43.667 -31 -65 -43c19.333 -12.667 37 -31.334 53 -56.001c20 -31.333 39.333 -63.333 58 -96c9.33301 -17.333 19.333 -34 30 -50c10 -16 20.333 -29.667 31 -41
c13.333 -14.667 27.666 -24.667 42.999 -30c14.667 -5.33301 31 -3.66602 49 5.00098c16 6 24 0.666992 24 -16v-1c-0.666992 -17.333 -13 -28 -37 -32c-10 -2 -19.667 -3 -29 -3c-18 0 -34.667 4 -50 12c-23.333 11.333 -44.666 27.666 -63.999 48.999
c-24 25.333 -46 54.333 -66 87c-20 32 -40 61 -60 87c-11.333 13.333 -22.666 25 -33.999 35c-8 6.66699 -16.333 12 -25 16c-4.66699 -1.33301 -8.66699 -1.66602 -12 -0.999023c-0.666992 -50 3.33301 -101.333 12 -154c8.66699 -52 9.33398 -98 2.00098 -138
c-0.666992 -12.667 -8.33398 -19 -23.001 -19s-30 4 -46 12c-13.333 6 -25 14 -35 24c-10.667 9.33301 -16.334 19.333 -17.001 30c-8 56.667 -12.667 112.667 -14 168c-0.666992 17.333 -1 34.333 -1 51c0 36.667 1 72.334 3 107.001c5.33301 94 13.666 175 24.999 243
s15.666 112 12.999 132c2.66699 15.333 8.33398 23 17.001 23c2.66699 0 6 -0.666992 10 -2c14.667 -6 24.667 -14 30 -24zM155 352.004l7.99902 -0.00195312c8 0 16.333 1.66699 25 5c12 4.66699 20.667 9.33398 26 14.001c18.667 16 37 38.333 55 67
c18 29.333 34 60 48 92c21.333 48 35.333 93.667 42 137c2 10.667 3 20.334 3 29.001c-0.666992 26 -8.66699 42 -24 48c-1.33301 0.666992 -2.33301 1 -3 1c-5.33301 0 -12.333 -4 -21 -12c-10.667 -10 -22.667 -24.333 -36 -43c-24 -35.333 -48.667 -83 -74 -143
c-25.333 -60.667 -41.666 -125.667 -48.999 -195z" />
    <glyph glyph-name="S" unicode="S" horiz-adv-x="436" 
d="M421 618c-7.33301 -14 -17.002 -20.9932 -29.002 -20.9932c-12 -0.666992 -19.333 6.66602 -22 21.999c4.66699 16.667 5.66699 36 3 58c-2 22.667 -9 41.667 -21 57c-6 8.66699 -14 15.334 -24 20.001c-9.33301 5.33301 -20.666 7.66602 -33.999 6.99902
c-14 0 -26.667 -2.66699 -38 -8c-12 -6 -22.667 -13.667 -32 -23c-17.333 -16.667 -30.666 -37.334 -39.999 -62.001s-14.666 -46.667 -15.999 -66c0 -14 2.33301 -28 7 -42c5.33301 -14 12.333 -28 21 -42c16.667 -26.667 37.334 -54.667 62.001 -84
c25.333 -28.667 48.666 -59.334 69.999 -92.001c17.333 -27.333 31.666 -56 42.999 -86c10.667 -30.667 15 -63.334 13 -98.001c-0.666992 -18.667 -4.66699 -36 -12 -52s-16.333 -30.667 -27 -44c-21.333 -24 -47 -42.333 -77 -55c-29.333 -12 -57.666 -18.333 -84.999 -19
c-1.33301 0 -2.33301 0.333008 -3 1c-54.667 0.666992 -95.334 20.334 -122.001 59.001c-18 25.333 -27 57.666 -27 96.999c0 20.667 2.33301 43 7 67c19.333 20 37.333 25 54 15c16.667 -10.667 20.334 -26.667 11.001 -48c-8.66699 -21.333 -12 -45 -10 -71s10 -48 24 -66
c7.33301 -10 16.666 -18 27.999 -24c11.333 -5.33301 24.333 -8.33301 39 -9c12.667 0 24.667 2.66699 36 8c10.667 5.33301 20 12.666 28 21.999c16.667 16.667 29 37.334 37 62.001c8.66699 24.667 13.667 46.667 15 66c1.33301 16 -0.666992 31.667 -6 47
c-4.66699 16 -11.667 31.667 -21 47c-16.667 29.333 -38 58.666 -64 87.999s-49.667 59.666 -71 90.999c-18.667 26 -33.667 53 -45 81s-15.666 57.333 -12.999 88c4.66699 58 29 101.667 73 131c43.333 28.667 90 43 140 43c45.333 0 79.666 -17.667 102.999 -53
c18 -27.333 27 -56 27 -86c0 -8.66699 -0.666992 -17.334 -2 -26.001z" />
    <glyph glyph-name="T" unicode="T" horiz-adv-x="342" 
d="M320 769l-0.000976562 -5.99902c0 -2.66699 -0.666992 -5 -2 -7c-1.33301 -3.33301 -6.33301 -5.33301 -15 -6l-103 9c18 -130.667 28.333 -260.667 31 -390c2 -130 -5.66699 -247.333 -23 -352c-8 -8.66699 -19 -13 -33 -13h-3c-15.333 0.666992 -30 5 -44 13
c-8.66699 5.33301 -16.334 12 -23.001 20s-10.667 16.667 -12 26c4 1.33301 7.33301 8 10 20c2.66699 12.667 5 29 7 49c4 38 7.33301 86.333 10 145l8 180c2 62.667 4.33301 121.334 7 176.001c2.66699 55.333 6 96.666 10 123.999c-13.333 2 -31.666 2 -54.999 0
s-46.666 -2 -69.999 0c-3.33301 3.33301 -5 7 -5 11c-0.666992 4.66699 4.33301 8 15 10h56c33.333 0 66.666 -0.333008 99.999 -1c52.667 -0.666992 97.334 -3.33398 134.001 -8.00098z" />
    <glyph glyph-name="U" unicode="U" horiz-adv-x="515" 
d="M479 -4c-5.33301 -8 -13 -12.002 -23 -12.002c-6 0 -13.333 1.66699 -22 5c-21.333 9.33301 -31 19 -29 29c-2.66699 9.33301 -5.33398 20.333 -8.00098 33c-3.33301 13.333 -6.33301 27.333 -9 42c-5.33301 27.333 -10 55.666 -14 84.999c-4.66699 30 -7 55 -7 75
c-3.33301 -10 -12 -32 -26 -66c-14.667 -34.667 -32.667 -67.334 -54 -98.001c-14 -20.667 -29 -38 -45 -52s-32.667 -20.333 -50 -19c-15.333 0.666992 -29.666 5.33398 -42.999 14.001c-12.667 8.66699 -24.334 20.334 -35.001 35.001
c-18.667 27.333 -33.667 63.333 -45 108c-10.667 44.667 -19 92.334 -25 143.001c-3.33301 34 -6 68.333 -8 103s-3.33301 68.334 -4 101.001c-2 60 -2.66699 113 -2 159c0 46 -1.33301 75.333 -4 88c5.33301 15.333 15.333 24.666 30 27.999
c5.33301 0.666992 10.666 1 15.999 1c9.33301 0 18.666 -1.66699 27.999 -5c10 -3.33301 19 -8.33301 27 -15c8.66699 -7.33301 15 -15.333 19 -24c8 -38 13.333 -87 16 -147c2.66699 -59.333 4 -120.666 4 -183.999c0.666992 -61.333 1 -120.666 1 -177.999
c0 -56.667 2 -102.667 6 -138c2 -18.667 4.66699 -33.667 8 -45c3.33301 -10.667 7.66602 -16.334 12.999 -17.001c16.667 -0.666992 37 15.333 61 48c24.667 32.667 46.334 68.667 65.001 108c12.667 26 23.334 51 32.001 75c8 23.333 12 42 12 56
c0.666992 8 1.33398 20.333 2.00098 37c0.666992 17.333 1.66699 36.666 3 57.999c2 41.333 5 87.333 9 138c4 51.333 10.667 98 20 140c4 15.333 16.333 23 37 23c20.667 0.666992 36.334 -8.66602 47.001 -27.999c-13.333 -121.333 -24 -225.333 -32 -312
s-10.333 -161.334 -7 -224.001c1.33301 -33.333 5 -64 11 -92c6 -27.333 14.333 -52.666 25 -75.999z" />
    <glyph glyph-name="V" unicode="V" horiz-adv-x="539" 
d="M30 744c-0.666992 2.66699 -0.999023 5.00098 -0.999023 7.00098c0.666992 6 1.66699 11.333 3 16c2 6 5.33301 11 10 15c8.66699 8 20 12 34 12c5.33301 0 10.666 -0.333008 15.999 -1c21.333 -4 41.333 -13.333 60 -28c10 -7.33301 18.667 -16.666 26 -27.999
c8 -10.667 13.333 -22.667 16 -36c8.66699 -30 16.334 -69 23.001 -117c7.33301 -47.333 14 -97 20 -149c3.33301 -26.667 6.33301 -53.334 9 -80.001l8 -77l12 -115c3.33301 -32 6 -51 8 -57c2 0 5 5.33301 9 16c3.33301 10.667 7.33301 25.334 12 44.001l31 132
c12 53.333 26 108.333 42 165c16 58.667 34 114.334 54 167.001c20 52 42 92.333 66 121c4.66699 4 10.667 3.33301 18 -2c3.33301 -2.66699 5 -5.66699 5 -9c0 -4.66699 -2.33301 -10.334 -7 -17.001c-11.333 -2.66699 -23 -18 -35 -46s-24.333 -63 -37 -105
c-6.66699 -22.667 -13.334 -46.667 -20.001 -72l-20 -79c-8.66699 -32.667 -17 -65.667 -25 -99l-23 -96c-14 -56.667 -27 -105 -39 -145s-22 -61.667 -30 -65c-14.667 -6 -27.667 -9 -39 -9c-4 0 -7.66699 0.333008 -11 1c-13.333 3.33301 -24 9.66602 -32 18.999
c-15.333 18 -24.666 42.333 -27.999 73c-2.66699 30.667 -6.33398 54 -11.001 70c-2.66699 12 -7 37 -13 75l-20 129l-13 79c-4.66699 27.333 -9.66699 54 -15 80c-9.33301 49.333 -19.333 93.666 -30 132.999s-21.667 65.333 -33 78z" />
    <glyph glyph-name="W" unicode="W" horiz-adv-x="686" 
d="M17 785c7.33301 18.667 23.335 27.998 48.002 27.998h1c24.667 0 45 -7.33301 61 -22c6 -5.33301 10.667 -11.333 14 -18s5.33301 -14 6 -22c-10 -54.667 -16.667 -109 -20 -163s-4.33301 -105.667 -3 -155c1.33301 -90.667 6.66602 -166.667 15.999 -228
c10 -61.333 15.333 -92 16 -92c3.33301 0 6.33301 3.33301 9 10s5.33398 16.334 8.00098 29.001c4.66699 22.667 10 53 16 91s13 77.667 21 119c8 43.333 17.333 85.666 28 126.999c11.333 42 24.666 77.333 39.999 106c6 12 17.667 19.667 35 23c18 4 33.333 1.33301 46 -8
c6 -4 10.667 -9.66699 14 -17c4 -6.66699 6 -15 6 -25c-1.33301 -32 -1.33301 -71.667 0 -119c1.33301 -46.667 4 -94.334 8 -143.001l8 -74c3.33301 -24.667 7 -48 11 -70c6.66699 -40 15 -73 25 -99c10 -26.667 21.333 -39.667 34 -39
c3.33301 0.666992 5.33301 9.33398 6 26.001c0 16.667 0.333008 40 1 70c1.33301 56 6.66602 132.333 15.999 229c8.66699 96.667 31 205.667 67 327c2 6 5.33301 11.333 10 16c4 5.33301 8.66699 9.66602 14 12.999c21.333 14 45 18 71 12
c22 -5.33301 32.667 -14.666 32 -27.999c0 -3.33301 -0.666992 -6.66602 -2 -9.99902c-9.33301 -17.333 -18.666 -46.666 -27.999 -87.999c-8.66699 -41.333 -17.667 -87.333 -27 -138c-5.33301 -28 -10.333 -56.333 -15 -85s-9.66699 -57 -15 -85
c-9.33301 -54 -19 -103.667 -29 -149c-9.33301 -45.333 -19.333 -79 -30 -101c-11.333 -20 -27.666 -32.667 -48.999 -38c-6 -1.33301 -11.667 -2.33301 -17 -3c-13.333 0 -24.333 5 -33 15c-22.667 26 -39.667 60.667 -51 104c-12 44 -20.667 89.333 -26 136
c-5.33301 46 -8.33301 90.333 -9 133s-1.33398 78 -2.00098 106v35c-0.666992 8.66699 -1.33398 13.667 -2.00098 15c-0.666992 0 -2 -3.66699 -4 -11c-2.66699 -7.33301 -5.66699 -17.333 -9 -30l-23 -88l-27 -111l-28 -109c-8.66699 -34 -15.334 -59.333 -20.001 -76
c-2.66699 -8 -6.66699 -15 -12 -21c-5.33301 -6.66699 -11.666 -12.334 -18.999 -17.001c-21.333 -15.333 -45.333 -23 -72 -23c-26.667 -0.666992 -42.667 7.33301 -48 24c-8.66699 24.667 -16 64.334 -22 119.001c-6 55.333 -11 114.666 -15 177.999l-6 101
c-1.33301 34 -3 66.333 -5 97c-2.66699 58 -5.66699 107.333 -9 148s-7 63.334 -11 68.001z" />
    <glyph glyph-name="X" unicode="X" horiz-adv-x="515" 
d="M81 49c-6.66699 -6.66699 -13.333 -10 -20 -10c-3.33301 0 -6.33301 0.666992 -9 2c-8 2.66699 -12.333 7.66699 -13 15c0 1.33301 0.333008 3 1 5c8 2.66699 24.333 22 49 58c24 36 52 80.333 84 133l55 91c1.33301 2.66699 3 5.66699 5 9
c-18.667 44.667 -39 89.667 -61 135c-40.667 80.667 -86.667 152.667 -138 216c-4 7.33301 -6 15 -6 23c0 10 3.33301 20 10 30c8.66699 12.667 18.667 19 30 19c4 0 8.33301 -1 13 -3c6 -9.33301 18.333 -26 37 -50c19.333 -24 42 -53.667 68 -89
c30.667 -42.667 64 -92.667 100 -150l12 -21l75 124l79 128c4.66699 7.33301 11.334 11 20.001 11c3.33301 0 7 -0.666992 11 -2c12 -3.33301 18 -9.33301 18 -18c0 -1.33301 -0.333008 -2.66602 -1 -3.99902c-29.333 -38.667 -56.333 -78.667 -81 -120l-71 -124l-23 -43
c20 -36.667 38.667 -75.334 56 -116.001c15.333 -35.333 28.666 -72 39.999 -110c11.333 -37.333 20 -75.333 26 -114c0.666992 -4 1 -7.66699 1 -11c0 -6 -0.666992 -11.333 -2 -16c-2.66699 -7.33301 -6.66699 -14 -12 -20c-11.333 -12.667 -26.333 -20 -45 -22
c-3.33301 -0.666992 -6 -1 -8 -1c-14 0 -23 4 -27 12l-34 109c-13.333 39.333 -28 80 -44 122l-18 46l-34 -60c-40 -72 -87.667 -133.333 -143 -184z" />
    <glyph glyph-name="Y" unicode="Y" horiz-adv-x="419" 
d="M279 -29c-3.33301 -4 -9.66895 -5.99902 -19.002 -5.99902c-10.667 0 -25.334 2.66699 -44.001 8c-33.333 10.667 -48 25.667 -44 45c16 -2.66699 30 11.333 42 42s22.667 67 32 109c6.66699 33.333 12.334 67 17.001 101c4.66699 34.667 8.33398 64.667 11.001 90
c1.33301 13.333 2.66602 25 3.99902 35c0.666992 9.33301 1 16 1 20c-4 -10.667 -11.667 -26.334 -23 -47.001s-31.333 -31 -60 -31c-24.667 0.666992 -46.667 13.334 -66 38.001c-20 24.667 -37.333 55 -52 91c-14 35.333 -25.667 73 -35 113s-16 76.333 -20 109
c-2 17.333 -3.33301 32.666 -4 45.999v14c0 8 0.333008 14.667 1 20c8.66699 19.333 23.667 32.333 45 39c6 2 11.667 3 17 3c10.667 0 17.334 -4.66699 20.001 -14c2.66699 -27.333 6.33398 -59.666 11.001 -96.999c4.66699 -38 10 -76 16 -114
c9.33301 -58 20 -109.667 32 -155c12.667 -45.333 25.667 -68.333 39 -69c18.667 -0.666992 36.334 12.333 53.001 39c16 26 25 49.667 27 71l11 56l20 86l12 49l13 46c6.66699 20 19.667 31.333 39 34c19.333 2 30.333 -6 33 -24c-10.667 -28 -19.334 -68.333 -26.001 -121
c-6.66699 -53.333 -13 -111 -19 -173c-2.66699 -32.667 -5.66699 -65.334 -9 -98.001c-3.33301 -33.333 -7 -65.666 -11 -96.999c-6.66699 -58.667 -15 -111.334 -25 -158.001s-23 -80 -39 -100z" />
    <glyph glyph-name="Z" unicode="Z" horiz-adv-x="437" 
d="M97 6c-5.33301 -1.33301 -10.668 -1.99902 -16.001 -1.99902c-16 0 -28.667 6.66699 -38 20c-10 14 -15 28.667 -15 44c0 4 0.333008 8 1 12c6.66699 26.667 20.667 65.334 42 116.001l72 162l42 92l41 87l61 137c16 38.667 24 62.667 24 72
c-11.333 3.33301 -32.666 -0.333984 -63.999 -11.001c-31.333 -10 -68 -16.333 -110 -19c-16 0 -25.333 8 -28 24c-3.33301 15.333 3.66699 22.333 21 21c33.333 -6.66699 67.666 -5.33398 102.999 3.99902s75.666 15.333 120.999 18h1c11.333 0 25 -7.33301 41 -22
c9.33301 -8.66699 14 -19 14 -31c0 -9.33301 -3 -19.666 -9 -30.999c-18.667 -32.667 -40 -75.334 -64 -128.001s-47.333 -107.667 -70 -165c-12 -30 -23.333 -59.667 -34 -89c-11.333 -30 -21.666 -58.667 -30.999 -86c-17.333 -50 -30.666 -93 -39.999 -129
c-8.66699 -36 -11 -57.333 -7 -64c2 -2.66699 12 -3.66699 30 -3c17.333 1.33301 37.333 3.66602 60 6.99902c28 3.33301 55.333 7.33301 82 12c27.333 4.66699 44 8 50 10c4.66699 -1.33301 8.66699 -4.66602 12 -9.99902c3.33301 -4.66699 1.33301 -9 -6 -13
c-45.333 -4 -93.333 -9 -144 -15c-50 -6 -97.333 -12.667 -142 -20z" />
    <glyph glyph-name="bracketleft" unicode="[" horiz-adv-x="2299" 
d="M1835 340c-27.333 8.66699 -49.6602 20.9912 -66.9932 36.9912c-18 16 -31.333 34.333 -40 55c-15.333 37.333 -16 78.333 -2 123c13.333 44.667 39.333 82.667 78 114c19.333 15.333 41.666 28 66.999 38c26 10 54.333 16 85 18h13c23.333 0 46.333 -3.33301 69 -10
c26 -8 50 -19.333 72 -34c42 -28.667 76.333 -67.334 103 -116.001c27.333 -48.667 43.666 -101.667 49 -159c0.666992 -12 1 -24.333 1 -37c0 -35.333 -4.66699 -71.333 -14 -108c-12.667 -48.667 -35.667 -95.334 -69 -140.001c-40.667 -53.333 -96.667 -85.333 -168 -96
c-26 -4 -53.333 -6 -82 -6c-50 0 -104 6 -162 18c-94.667 19.333 -197.334 51 -308.001 95c-110 44 -221 92 -333 144l-216 104l-206 99c-123.333 58.667 -233.333 105.667 -330 141c-96.667 34.667 -168.334 44.334 -215.001 29.001c-24.667 -8 -44.334 -19 -59.001 -33
s-25.334 -29.333 -32.001 -46c-12.667 -33.333 -12.334 -69.666 0.999023 -108.999s34 -72.666 62 -99.999c15.333 -14.667 31.666 -27 48.999 -37c18 -9.33301 36.667 -14.666 56 -15.999c14 -1.33301 26 -0.333008 36 3c10.667 2.66699 19.667 7 27 13
c22 17.333 31 39 27 65c-4.66699 26.667 -19 36.334 -43 29.001c-18 0 -28.667 13.667 -32 41s3 43.333 19 48c16.667 4.66699 31 6 43 4c12.667 -2 23 -6.33301 31 -13c16.667 -12 26.667 -30.667 30 -56c2.66699 -25.333 -0.333008 -51 -9 -77c-4 -14 -10 -27 -18 -39
c-8 -12.667 -17.333 -23.667 -28 -33c-10 -8.66699 -21.333 -15.667 -34 -21c-12.667 -4.66699 -26.334 -6.66699 -41.001 -6c-24 0.666992 -47.667 5.66699 -71 15c-22.667 9.33301 -44 22 -64 38c-36 28.667 -64 64.667 -84 108c-13.333 29.333 -20 58.333 -20 87
c0 14 1.66699 27.667 5 41c6 27.333 19.667 52.666 41 75.999s52 42.666 92 57.999c23.333 8.66699 51 12.334 83 11.001c32.667 -1.33301 68.667 -6.66602 108 -15.999c73.333 -17.333 157.333 -45.666 252 -84.999l297 -132l262 -122
c88.667 -41.333 175.667 -79.666 261 -114.999c106 -43.333 206.333 -78.666 301 -105.999c95.333 -27.333 179 -39.333 251 -36c38.667 2 73.334 9.33301 104.001 22s56.667 32 78 58c31.333 38.667 52.333 79.334 63 122.001c10 42 12.667 83.333 8 124
c-4 26.667 -10.333 52.334 -19 77.001c-9.33301 24.667 -20.666 47.667 -33.999 69c-24 39.333 -53.667 71 -89 95c-34.667 24.667 -69.667 36.334 -105 35.001c-40 -0.666992 -75.667 -13.667 -107 -39c-30.667 -24.667 -53.334 -53.667 -68.001 -87
c-7.33301 -17.333 -12.333 -35.333 -15 -54c-2 -18 -0.333008 -35 5 -51c4.66699 -15.333 12.667 -29.333 24 -42s26.666 -22.334 45.999 -29.001c10 -4 19 -6 27 -6s15 1.33301 21 4c18 8.66699 26 24.667 24 48c-2 22.667 -15.667 39 -41 49c-14.667 14 -17 25.667 -7 35
c10 8.66699 24.333 10.334 43 5.00098c14 -4.66699 26 -11.334 36 -20.001c10 -9.33301 18 -19.666 24 -30.999c10.667 -20.667 14 -43 10 -67c-3.33301 -24 -14.666 -43 -33.999 -57c-12.667 -9.33301 -28.667 -15 -48 -17c-20 -2.66699 -43.333 0.333008 -70 9z" />
    <glyph glyph-name="backslash" unicode="\" horiz-adv-x="574" 
d="M14 840c0.666992 14 10.335 21.668 29.002 23.001h7c15.333 0 26.666 -4.33301 33.999 -13c-2 -4.66699 -0.666992 -13.334 4 -26.001c4 -12.667 10.667 -28.667 20 -48c16.667 -34.667 40 -78 70 -130l97 -164l128 -212c43.333 -70.667 78.666 -130.667 105.999 -180
c15.333 -27.333 27.333 -50.333 36 -69s13 -32 13 -40c0.666992 -1.33301 1 -2.33301 1 -3c0 -8.66699 -7.33301 -13 -22 -13h-3c-19.333 0.666992 -29.333 12 -30 34c2 1.33301 0.666992 7.33301 -4 18s-12 24.667 -22 42c-17.333 33.333 -42 76 -74 128l-101 168l-73 117
l-70 115l-105 174c-27.333 46.667 -41 73 -41 79v0z" />
    <glyph glyph-name="bracketright" unicode="]" horiz-adv-x="1862" 
d="M168 290c4.66699 -6 3.66699 -13.6709 -3 -23.0039c-7.33301 -10 -15.333 -13 -24 -9c1.33301 15.333 -4.66699 25.666 -18 30.999s-23.666 2.66602 -30.999 -8.00098c-14 -18.667 -18.333 -41 -13 -67c4.66699 -25.333 16.334 -46.666 35.001 -63.999
c10 -9.33301 21.667 -16.666 35 -21.999c13.333 -6 28 -8.66699 44 -8c35.333 2 73.666 15.667 114.999 41s81 58.333 119 99l10 11c-5.33301 12.667 -10 25.334 -14 38.001c-22 64 -36.667 129.667 -44 197c-7.33301 68 -6.33301 130.667 3 188
c6 38.667 16 70.334 30 95.001s29.667 43.334 47 56.001c14.667 10 30 16 46 18c5.33301 1.33301 10.666 2 15.999 2c10.667 0 21 -1.66699 31 -5c28 -9.33301 52.333 -30 73 -62s30.667 -73 30 -123c-0.666992 -46 -8.33398 -93.667 -23.001 -143
c-14.667 -48.667 -34 -96 -58 -142c-19.333 -36.667 -41.333 -71.667 -66 -105c11.333 -28.667 24 -56 38 -82c28 -52.667 60.667 -96.334 98 -131.001c38 -34.667 79.667 -53.667 125 -57c35.333 -3.33301 69.333 2.66699 102 18c33.333 15.333 64.333 36.666 93 63.999
c11.333 10.667 22.333 22.667 33 36c-40.667 61.333 -69.334 124.333 -86.001 189c-10 36.667 -15.667 72.334 -17 107.001c-2 34.667 0 67.334 6 98.001c8.66699 39.333 21 71 37 95s33.667 40.667 53 50c36 18 72.333 13.333 109 -14c36 -27.333 57.333 -72.333 64 -135
c4 -40 1.66699 -82.333 -7 -127c-9.33301 -44.667 -23.666 -88.334 -42.999 -131.001c-13.333 -30 -29 -58.667 -47 -86c31.333 -43.333 69 -82 113 -116c53.333 -42 112.333 -70 177 -84c34.667 -7.33301 70.334 -10 107.001 -8s73.667 10.333 111 25
c48 18 88.333 57.667 121 119c32.667 62 52.667 128.333 60 199c3.33301 37.333 2.66602 74.333 -2.00098 111c-5.33301 36.667 -15.666 69.667 -30.999 99c-14.667 28.667 -34.334 52.667 -59.001 72s-55.334 32.333 -92.001 39c-31.333 5.33301 -59.333 -1.66699 -84 -21
c-25.333 -18.667 -36 -42.667 -32 -72c4 -28 17.667 -42.333 41 -43c23.333 -1.33301 45.666 11.334 66.999 38.001c4 4 8 6 12 6c3.33301 0.666992 6.33301 0 9 -2c8 -5.33301 11.667 -17 11 -35c-0.666992 -17.333 -7 -27.333 -19 -30
c-33.333 -25.333 -66.333 -30.666 -99 -15.999c-33.333 14.667 -52 41.334 -56 80.001c-4 39.333 9.33301 74 40 104s66.667 41.667 108 35c43.333 -6.66699 80.333 -20.667 111 -42s56 -47.333 76 -78c13.333 -20.667 24 -43.334 32 -68.001
c8.66699 -24.667 14.667 -50 18 -76c2.66699 -20.667 4 -41 4 -61c0 -30 -2.66699 -60 -8 -90c-9.33301 -51.333 -25.666 -99 -48.999 -143c-19.333 -36 -43.333 -68 -72 -96c-28 -28.667 -60.333 -49.667 -97 -63c-71.333 -27.333 -137.666 -41 -198.999 -41
c-10.667 0 -21.334 0.333008 -32.001 1c-70 5.33301 -132.333 23.333 -187 54c-60.667 34 -111.334 78.333 -152.001 133c-33.333 -39.333 -69.666 -70.333 -108.999 -93c-24 -14 -48.333 -24.333 -73 -31c-24.667 -7.33301 -49.667 -10.333 -75 -9
c-48.667 3.33301 -92.667 18 -132 44c-40 26 -75.333 59.667 -106 101c-20 26.667 -38 56 -54 88c-2.66699 4.66699 -5 9.33398 -7 14.001c-38 -42 -78 -75.667 -120 -101c-24.667 -15.333 -49.667 -27.333 -75 -36s-50.666 -13.334 -75.999 -14.001
c-26 -0.666992 -49 3 -69 11c-20.667 8.66699 -38 20 -52 34c-25.333 26 -38.666 57.333 -39.999 94v3c0 36 15 67 45 93c16 14 34 19.333 54 16c20.667 -2.66699 35 -13.667 43 -33zM538 410.996c24 42.667 43.333 86.999 58 132.999s21.667 91 21 135
c-0.666992 50.667 -14.334 86.334 -41.001 107.001c-26 21.333 -51 22.333 -75 3c-10.667 -8 -20 -20.333 -28 -37c-8 -16 -13.667 -36.667 -17 -62c-6.66699 -44.667 -8 -93 -4 -145s12.333 -103.667 25 -155c4 -18 8.66699 -36 14 -54c16.667 24 32.334 49 47.001 75z
M1061 227.995c24.667 46 42.999 94.668 54.999 146.001s15.667 100 11 146c-2.66699 26.667 -8 48.334 -16 65.001c-7.33301 16.667 -16.333 28.667 -27 36c-18.667 14 -39 12 -61 -6c-21.333 -18 -36 -51.667 -44 -101c-8.66699 -50 -6.66699 -101.333 6 -154
c12 -52.667 32.333 -102.334 61 -149.001c0.666992 -2 1.33398 -3.66699 2.00098 -5c4.66699 7.33301 9 14.666 13 21.999z" />
    <glyph glyph-name="asciicircum" unicode="^" horiz-adv-x="431" 
d="M16 569c12.667 2 30.335 16.333 53.002 43c23.333 26 46 53 68 81l50 60c15.333 18 25.666 26.667 30.999 26c6 0 18.667 -14 38 -42l62 -91l50 -74c15.333 -22 26.666 -35.667 33.999 -41v-3c0 -10.667 -5.33301 -16.667 -16 -18c-12 -2 -23.333 0 -34 6
c-8.66699 11.333 -17.334 24 -26.001 38s-17 28.333 -25 43l-42 74c-12 22.667 -20.667 36.334 -26 41.001c-6 -0.666992 -15.667 -13.667 -29 -39c-13.333 -24.667 -29 -52 -47 -82c-9.33301 -16 -19.333 -31.667 -30 -47c-10 -14.667 -20.333 -27.667 -31 -39
c-3.33301 -0.666992 -7 -1 -11 -1c-9.33301 0 -19.666 2 -30.999 6c-16.667 5.33301 -28.667 13.666 -36 24.999c-3.33301 4.66699 -5.33301 9.66699 -6 15v3c0 4.66699 1.33301 10 4 16z" />
    <glyph glyph-name="underscore" unicode="_" horiz-adv-x="421" 
d="M34 -17c-16 2.66699 -24.334 9 -25.001 19v2c0 9.33301 5.33301 17.333 16 24c14.667 1.33301 32.334 2.66602 53.001 3.99902c21.333 0.666992 44 1.66699 68 3c44.667 1.33301 90.334 2.33301 137.001 3h12c40.667 0 72.334 -1.33301 95.001 -4
c11.333 -4.66699 18.666 -13 21.999 -25c0.666992 -2 1 -3.66699 1 -5c0 -9.33301 -10 -16.333 -30 -21c-4 4.66699 -20.667 7.33398 -50 8.00098c-28.667 0.666992 -61.334 0.666992 -98.001 0c-44.667 -1.33301 -87.667 -3.33301 -129 -6
c-33.333 -1.33301 -55.333 -2 -66 -2h-6z" />
    <glyph glyph-name="grave" unicode="`" horiz-adv-x="157" 
d="M21 786c-0.666992 2.66699 -1.00098 5.66699 -1.00098 9c0 9.33301 4.66699 18.333 14 27c10 9.33301 20.333 14 31 14h5c16.667 -12 29.667 -26 39 -42s19 -33.667 29 -53c2.66699 -7.33301 4 -15 4 -23v-10c-1.33301 -10 -6.66602 -15 -15.999 -15h-2
c-7.33301 2 -15 5.66699 -23 11c-7.33301 6 -14.333 12.667 -21 20c-13.333 13.333 -25 27 -35 41c-10.667 13.333 -18.667 20.333 -24 21z" />
    <glyph glyph-name="a" unicode="a" horiz-adv-x="528" 
d="M325 443c2 -2.66699 2.66113 -5.6709 1.99414 -9.00391c-0.666992 -2.66699 -2.66699 -4.66699 -6 -6c-12 12 -24 18.333 -36 19s-24 -2.66602 -36 -9.99902c-20.667 -13.333 -40 -37.666 -58 -72.999c-17.333 -34.667 -31.666 -71.667 -42.999 -111
c-14 -50 -21.333 -96 -22 -138c0 -41.333 9.66699 -62 29 -62c8.66699 0 19.334 14 32.001 42c12.667 28.667 25.334 61.334 38.001 98.001c16 45.333 30 89.333 42 132l20 71c4 10 17 16.667 39 20c22.667 4 38.667 1.66699 48 -7c2.66699 -2 4.33398 -4.66699 5.00098 -8
c1.33301 -2.66699 1.66602 -6 0.999023 -10c-4.66699 1.33301 -11 -16 -19 -52c-8 -35.333 -15.667 -76.333 -23 -123c-6 -36.667 -11.333 -73.667 -16 -111c-5.33301 -36.667 -8.66602 -67 -9.99902 -91c-0.666992 -12.667 -0.666992 -22.667 0 -30s2 -11.333 4 -12
c10 -1.33301 24.667 13.667 44 45c20 32 39.667 67 59 105l44 89c12.667 27.333 21.667 46 27 56c4.66699 1.33301 9.66699 1.66602 15 0.999023s10.666 -2.66699 15.999 -6c-4.66699 -8.66699 -13.667 -28 -27 -58c-12.667 -30 -28 -62 -46 -96
c-22 -42 -45 -80.667 -69 -116c-23.333 -33.333 -43.666 -50 -60.999 -50h-3c-16 2 -28.667 7.66699 -38 17s-16.333 21.333 -21 36c-4 12 -6.66699 25.333 -8 40s-1.66602 29.667 -0.999023 45c1.33301 28.667 4.33301 57 9 85l10 65l-9 -32
c-4.66699 -16 -10.667 -33.667 -18 -53c-11.333 -28.667 -23.666 -56 -36.999 -82c-14 -26 -27.333 -39.667 -40 -41c-35.333 -3.33301 -68.666 3.66699 -99.999 21s-47.333 45 -48 83v11c0 46.667 7.33301 91.334 22 134.001c16 45.333 35.667 84.333 59 117
c12.667 17.333 25.667 32.333 39 45s26.333 22.334 39 29.001c6 3.33301 13.333 6 22 8c9.33301 2 19 3.33301 29 4h12c15.333 0 30.666 -2 45.999 -6c20 -4.66699 34.333 -13 43 -25z" />
    <glyph glyph-name="b" unicode="b" horiz-adv-x="511" 
d="M147 761c-0.666992 -16 -1.33203 -36.6641 -1.99902 -61.9971c-1.33301 -26 -2.66602 -54.333 -3.99902 -85l-8 -175c-3.33301 -60 -6.33301 -106 -9 -138c12.667 54.667 35.667 90.334 69 107.001c34 16 66 12.667 96 -10c16.667 -12 31.334 -29.667 44.001 -53
c12.667 -24 21.667 -53.333 27 -88c5.33301 -40.667 5.33301 -78 0 -112l-4 -24c17.333 14 34.666 29.667 51.999 47c25.333 26 46 56.333 62 91c6 3.33301 11.667 5 17 5s10.666 -1.66699 15.999 -5c-19.333 -41.333 -42 -76.666 -68 -105.999
c-25.333 -28.667 -51.333 -53.334 -78 -74.001c-6 -4.66699 -12 -9 -18 -13c-2 -4 -3.66699 -8 -5 -12c-22.667 -50 -51.667 -84.333 -87 -103c-16.667 -8.66699 -31.334 -13 -44.001 -13c-16 0 -29.333 6 -40 18c-7.33301 8 -10.666 15.333 -9.99902 22
c1.33301 7.33301 5.66602 14.666 12.999 21.999c14 13.333 36 27.666 66 42.999c2 1.33301 4.33301 2.33301 7 3c2.66699 10.667 5.33398 22.334 8.00098 35.001c4 21.333 6.66699 44 8 68s0.333008 47 -3 69c-12 75.333 -31.333 119.666 -58 132.999
c-26.667 14 -48.334 -16 -65.001 -90c-0.666992 -7.33301 -1 -17 -1 -29c0.666992 -11.333 1 -24.333 1 -39c0.666992 -26.667 1.66699 -56 3 -88c1.33301 -31.333 2 -60.333 2 -87c-6 -19.333 -19.667 -26.333 -41 -21c-21.333 4.66699 -33.333 18.667 -36 42
c-6 42 -10 88 -12 138c-2 50.667 -3 101.667 -3 153c-0.666992 62 -0.333984 121.333 0.999023 178c0.666992 56.667 0.333984 103.667 -0.999023 141c-0.666992 20 -1.66699 36.667 -3 50c-2 13.333 -4.66699 21.666 -8 24.999c-2 8 -3 15.333 -3 22v6
c1.33301 8 4 14.667 8 20c10 14.667 25.667 22 47 22c3.33301 0 7 -0.333008 11 -1c27.333 -2.66699 45 -13.334 53 -32.001zM193.002 -11.9971c-16 -6.66699 -21.667 -13 -17 -19c11.333 -14 24 -8.66699 38 16c3.33301 5.33301 6.33301 11 9 17z" />
    <glyph glyph-name="c" unicode="c" horiz-adv-x="467" 
d="M228 360c2.66699 14 3.33789 29.335 2.00488 46.002c-2 17.333 -8.33301 26.666 -19 27.999c-12.667 1.33301 -25.334 -15.667 -38.001 -51s-22.334 -77 -29.001 -125c-5.33301 -37.333 -7.66602 -75.333 -6.99902 -114s5.66699 -71 15 -97
c4.66699 -14.667 11 -26.667 19 -36s17.667 -15.333 29 -18c22.667 -5.33301 48.667 8 78 40c28.667 31.333 55.667 67 81 107c14 22 26.333 43.333 37 64l29 56c5.33301 3.33301 10.666 5 15.999 5c5.33301 -0.666992 10.333 -3.33398 15 -8.00098
c-8 -18 -17.667 -38.667 -29 -62c-12 -22.667 -25.333 -46 -40 -70c-26.667 -43.333 -57.334 -82 -92.001 -116c-28.667 -28 -58.667 -42 -90 -42c-6 0 -12 0.333008 -18 1c-32 5.33301 -59.667 17 -83 35c-23.333 18.667 -42.333 41 -57 67
c-24.667 45.333 -37 98.333 -37 159v12c1.33301 65.333 15.666 124.333 42.999 177c10 18.667 21.333 33.667 34 45c13.333 11.333 27 19.333 41 24c12 4.66699 24 7 36 7c20 0 39.333 -6.33301 58 -19c29.333 -19.333 44.333 -49 45 -89
c0 -7.33301 -0.333008 -14.333 -1 -21s-1.66699 -13.334 -3 -20.001c-5.33301 -5.33301 -12.333 -6 -21 -2c-8.66699 4.66699 -13.334 10.334 -14.001 17.001z" />
    <glyph glyph-name="d" unicode="d" horiz-adv-x="572" 
d="M418 735c1.33301 -6.66699 1.67188 -19.0039 1.00488 -37.0039c-1.33301 -18 -3.33301 -39.333 -6 -64c-5.33301 -46.667 -13.333 -102.667 -24 -168l-32 -193c-5.33301 -28 -10 -55.333 -14 -82c-4.66699 -26 -8.66699 -50.667 -12 -74
c-6.66699 -42.667 -11.667 -77.667 -15 -105c-2.66699 -27.333 -2.33398 -41.333 0.999023 -42c17.333 -5.33301 39.333 9.33398 66 44.001s52 72.667 76 114c16 27.333 30 52.666 42 75.999l27 52c4.66699 3.33301 9.66699 4.66602 15 3.99902c6 -0.666992 11.667 -3 17 -7
c-4.66699 -10 -13.334 -27.667 -26.001 -53c-12 -25.333 -26.333 -53 -43 -83l-29 -48c-10 -16 -20.333 -31.333 -31 -46c-20 -27.333 -40.667 -49.666 -62 -66.999c-16.667 -13.333 -32.667 -20 -48 -20c-4.66699 0 -9 0.666992 -13 2c-10.667 2.66699 -19.667 8 -27 16
c-6.66699 8.66699 -12.334 19.334 -17.001 32.001c-8.66699 23.333 -13.667 52 -15 86l-1 34c-9.33301 -20 -19.666 -38 -30.999 -54c-15.333 -22 -30.666 -33.333 -45.999 -34c-42 -3.33301 -76.333 8.33398 -103 35.001c-26.667 26 -43.334 61.333 -50.001 106
c-2 13.333 -3 27 -3 41c0 12 0.666992 24.333 2 37c2.66699 28 9 57.667 19 89c8.66699 26.667 20.334 48.667 35.001 66c15.333 17.333 31.666 30.333 48.999 39c32.667 15.333 65 17 97 5c32 -12.667 51.667 -35.667 59 -69l10 62c5.33301 28.667 10.333 59.667 15 93
l8 53c2.66699 18 4.66699 35 6 51c3.33301 30.667 4.66602 57 3.99902 79s-4.66699 35 -12 39c4 18.667 15 31.667 33 39c7.33301 2.66699 14.666 4.33398 21.999 5.00098c9.33301 0 18.666 -2.66699 27.999 -8c6 -4 11.667 -9.66699 17 -17s9 -16.666 11 -27.999z
M251.006 173.996c2.66699 35.333 5.99902 67.999 9.99902 97.999l9 66c-15.333 42.667 -34.333 63 -57 61c-23.333 -1.33301 -44 -35 -62 -101c-6 -22 -10.333 -43.667 -13 -65c-2 -20.667 -3 -40.667 -3 -60c0.666992 -35.333 5.33398 -64.666 14.001 -87.999
c8 -23.333 17 -35 27 -35c8.66699 0 18.667 9.33301 30 28s22 39 32 61c4 10 8 19.333 12 28c0 2 0.333008 4.33301 1 7z" />
    <glyph glyph-name="e" unicode="e" horiz-adv-x="458" 
d="M133 155c1.33301 -34 6.66992 -64.001 16.0029 -90.001c10 -26 25.333 -41.333 46 -46c22.667 -5.33301 48.667 5.66699 78 33c29.333 26.667 56.666 58.334 81.999 95.001c13.333 20 25.666 39.667 36.999 59c11.333 20 20.666 38 27.999 54
c5.33301 4.66699 10.666 6.66699 15.999 6s10.666 -3.66699 15.999 -9l-30 -60c-12 -21.333 -25.333 -42.666 -40 -63.999c-26.667 -40.667 -57.334 -75.667 -92.001 -105c-28.667 -24 -58.334 -36 -89.001 -36c-6 0 -12.333 0.333008 -19 1
c-32.667 6 -60.334 17.667 -83.001 35s-41 38.666 -55 63.999c-24 42 -36 90.667 -36 146v15c2.66699 62 17.334 117 44.001 165c12 21.333 25.667 38 41 50c14.667 12 29.667 19.667 45 23c6.66699 1.33301 13.334 2 20.001 2c20 0 38.667 -7.33301 56 -22
c22.667 -20 34.334 -48.333 35.001 -85c0.666992 -58 -17.666 -102.667 -54.999 -134c-17.333 -14.667 -37.333 -27.334 -60 -38.001v-1c-1.33301 -19.333 -1.66602 -38.666 -0.999023 -57.999zM184.004 281.999c26.667 31.333 40.333 63.668 41 97.001
s-5.66602 51.666 -18.999 54.999c-12 2.66699 -24.333 -12.333 -37 -45c-12.667 -33.333 -22.334 -72.333 -29.001 -117l-4 -30c19.333 12 35.333 25.333 48 40z" />
    <glyph glyph-name="f" unicode="f" horiz-adv-x="445" 
d="M111 96l-2 -22.001c27.333 4.66699 57 12 89 22c39.333 12 76.333 30 111 54c18.667 12.667 36 27.334 52 44.001c16 17.333 29.333 36.666 40 57.999c5.33301 3.33301 10.666 5 15.999 5s10.666 -2 15.999 -6c-14 -28 -29.667 -52.333 -47 -73
s-35.666 -38.334 -54.999 -53.001c-34.667 -27.333 -69.334 -46 -104.001 -56c-34 -9.33301 -60.333 -13.666 -79 -12.999c24 -13.333 43.667 -31 59 -53s27 -46 35 -72c14.667 -46.667 17.334 -94.334 8.00098 -143.001s-28 -82.667 -56 -102
c-12.667 -9.33301 -29.667 -14 -51 -14h-3c-22 0.666992 -42.667 5.33398 -62 14.001c-10 4.66699 -19 10.667 -27 18s-14 15.666 -18 24.999c-3.33301 8.66699 -6 22.334 -8 41.001c-2 18 -3.66699 40 -5 66v51c0 36.667 1 77.334 3 122.001
c2.66699 66.667 7.33398 135 14.001 205c7.33301 70.667 16.333 138.334 27 203.001c10.667 65.333 23 118.333 37 159c8.66699 32 28 54.333 58 67c14.667 6 28.667 9 42 9c14 0 27.333 -3.66699 40 -11c7.33301 -4.66699 14.333 -11 21 -19c6 -8 10.333 -17.667 13 -29
c8 -30.667 10.667 -67 8 -109c-2.66699 -41.333 -10.334 -82.666 -23.001 -123.999c-6.66699 -22.667 -14.667 -44.334 -24 -65.001c-9.33301 -21.333 -19.666 -41 -30.999 -59c-18.667 -27.333 -39.667 -50 -63 -68c-9.33301 -6.66699 -19 -12.334 -29 -17.001z
M120 182.999c16 9.33301 30.332 21.3311 42.999 35.998c20.667 23.333 37 52 49 86c12.667 34 21.667 68.333 27 103c8 52.667 9.66699 100.334 5 143.001c-5.33301 42.667 -15.333 65 -30 67c-18 2.66699 -34 -21.333 -48 -72c-14 -51.333 -25.333 -114.666 -34 -189.999
c-5.33301 -40.667 -9.66602 -83 -12.999 -127l-4 -49c2 1.33301 3.66699 2.33301 5 3zM105.999 -94.0029c0.666992 -58.667 2.66699 -106 6 -142c2 -19.333 4.66699 -34.333 8 -45s7 -15.667 11 -15c10 0.666992 19 14.667 27 42c8.66699 28 13.334 60.333 14.001 97
c0.666992 20.667 -0.333008 41.334 -3 62.001s-7.33398 40.667 -14.001 60c-6.66699 18 -15 35 -25 51c-6.66699 8.66699 -14 16.667 -22 24c-1.33301 -46.667 -2 -91.334 -2 -134.001z" />
    <glyph glyph-name="g" unicode="g" horiz-adv-x="510" 
d="M466 253c4.66699 3.33301 9.66504 4.66992 14.998 4.00293s11 -3.33398 17 -8.00098c-33.333 -62 -67.666 -112.333 -102.999 -151c-28.667 -32 -55 -58.667 -79 -80v-6c-2 -45.333 -5.66699 -89.666 -11 -132.999c-5.33301 -42.667 -13.666 -80.667 -24.999 -114
c-11.333 -31.333 -26.333 -56.666 -45 -75.999c-18 -18.667 -40.333 -27.667 -67 -27h-2c-10.667 0 -19.667 2.66699 -27 8c-7.33301 4.66699 -13 11.334 -17 20.001c-10.667 22.667 -12 54 -4 94c7.33301 39.333 20 76.666 38 111.999c10 18.667 20.667 35.667 32 51
c9.33301 12 18.666 21.667 27.999 29l2 41c0 36 1 66 3 90c-4.66699 -21.333 -12 -38.333 -22 -51c-9.33301 -12.667 -20 -21 -32 -25c-22 -8.66699 -45.333 -5.33398 -70 9.99902c-25.333 16 -45.666 40.333 -60.999 73c-7.33301 17.333 -13 36.333 -17 57
c-2 13.333 -3 27.333 -3 42c0 8 0.333008 16.333 1 25c3.33301 41.333 11.333 77.666 24 108.999c12 31.333 26.667 57.666 44 78.999c31.333 40 66 63.667 104 71c8.66699 1.33301 16.667 2 24 2c26 0 46.333 -9.66699 61 -29c0.666992 -4 0 -7.66699 -2 -11
s-5.66699 -4 -11 -2c-14.667 10 -28 14.333 -40 13c-12 -0.666992 -23 -5.33398 -33 -14.001c-18 -16 -32.667 -42.667 -44 -80c-10.667 -37.333 -17.667 -76.333 -21 -117c-4.66699 -52 -3.33398 -99.667 3.99902 -143c6.66699 -42.667 19.334 -64.334 38.001 -65.001
c13.333 -0.666992 24.333 15 33 47c9.33301 32.667 16.666 69 21.999 109c4 26.667 7 52.667 9 78c2.66699 26 4.33398 47.333 5.00098 64c2 6 4.66699 11 8 15c3.33301 3.33301 7 6.33301 11 9c13.333 6.66699 28.333 6.66699 45 0c16 -6 25.333 -15.333 28 -28
c-3.33301 -0.666992 -5.66602 -6 -6.99902 -16c-1.33301 -9.33301 -2.33301 -22.666 -3 -39.999c-0.666992 -31.333 -0.333984 -72 0.999023 -122v-111c20.667 19.333 42.667 42.333 66 69c32 37.333 59.667 80 83 128zM197.998 -102.996
c-10 -25.333 -18 -51.668 -24 -79.001c-8 -34.667 -12.667 -66 -14 -94s1.66699 -42 9 -42c17.333 0.666992 29 24 35 70c6 45.333 9.66699 96.333 11 153v29c-6 -9.33301 -11.667 -21.666 -17 -36.999z" />
    <glyph glyph-name="h" unicode="h" horiz-adv-x="518" 
d="M84 732c7.33301 -4 13.6699 -17.6689 19.0029 -41.002c4.66699 -23.333 8.66699 -51.666 12 -84.999c2 -18 3.66699 -36.667 5 -56c1.33301 -20 2.33301 -39.667 3 -59c2 -36.667 3.66699 -71.334 5 -104.001c0.666992 -32 1.66699 -56 3 -72c3.33301 15.333 12 36 26 62
c13.333 25.333 29.333 47.333 48 66c10 10 20.333 18 31 24c11.333 6 22.333 8.66699 33 8c12 -0.666992 21.667 -5.66699 29 -15c7.33301 -8.66699 13 -20.667 17 -36c7.33301 -27.333 10.333 -62.333 9 -105s-4 -85.667 -8 -129c-6 -54 -11.667 -102.333 -17 -145
c-5.33301 -42 -4.33301 -64 3 -66c13.333 -4 30.333 9 51 39c21.333 30 42 63.667 62 101l36 71l25 54c5.33301 3.33301 10.666 4.66602 15.999 3.99902c5.33301 -1.33301 11 -3.66602 17 -6.99902l-27 -58c-11.333 -24.667 -24 -50.667 -38 -78
c-22 -40.667 -46 -77.334 -72 -110.001c-22.667 -27.333 -44.334 -41 -65.001 -41c-4 0 -7.66699 0.333008 -11 1c-34 8 -55 34 -63 78c-8.66699 44.667 -11.334 93.667 -8.00098 147c1.33301 22.667 3.33301 45.334 6 68.001c2.66699 23.333 5.66699 45.333 9 66
c5.33301 38.667 10 71 14 97s3.66699 39.333 -1 40c-11.333 0.666992 -25 -8.66602 -41 -27.999c-15.333 -19.333 -29.666 -41.333 -42.999 -66l-21 -41c-6 -14 -10.667 -26.667 -14 -38c-0.666992 -24.667 -1.66699 -51.667 -3 -81c-0.666992 -29.333 -2 -55.333 -4 -78
c-1.33301 -11.333 -2.66602 -21.333 -3.99902 -30s-2.66602 -14.667 -3.99902 -18c-12.667 -21.333 -29.334 -31.666 -50.001 -30.999s-38 16.334 -52 47.001c-1.33301 16.667 -2 36 -2 58c0 19.333 0.666992 41 2 65c2 50 5 102 9 156l6 84
c1.33301 28 2.66602 54.333 3.99902 79c2.66699 46.667 3.66699 86.667 3 120c-0.666992 32.667 -4.66699 52 -12 58c5.33301 17.333 13.666 27 24.999 29c2.66699 0.666992 5.66699 1 9 1c8 -0.666992 15.667 -2.33398 23 -5.00098z" />
    <glyph glyph-name="i" unicode="i" horiz-adv-x="347" 
d="M43 415c4.66699 13.333 16.002 23.3311 34.002 29.998c9.33301 3.33301 17.666 5 24.999 5c8 0 14.667 -1.66699 20 -5c4 -2.66699 7.33301 -6 10 -10c2 -4 3 -9 3 -15c-0.666992 -3.33301 -4 -24 -10 -62s-11.333 -81 -16 -129c-4.66699 -38 -8 -75.667 -10 -113
c-2.66699 -37.333 -3 -67.666 -1 -90.999c0.666992 -13.333 2.33398 -23.666 5.00098 -30.999s6.33398 -11.333 11.001 -12c10.667 -0.666992 28.667 16.333 54 51s50 71.667 74 111l42 72c12.667 22 21 37.333 25 46c5.33301 2.66699 10.666 3.66699 15.999 3
c4.66699 -0.666992 9.66699 -3.33398 15 -8.00098c-2 -4.66699 -5.33301 -11.667 -10 -21s-10.334 -20 -17.001 -32l-45 -77c-17.333 -29.333 -35.333 -56.666 -54 -81.999c-19.333 -26.667 -38 -49 -56 -67c-17.333 -16.667 -32.333 -25 -45 -25h-3
c-24 2 -43 9.33301 -57 22c-14 13.333 -24.333 30.333 -31 51c-6.66699 22 -10.334 46.667 -11.001 74v11c0 24 1.33301 48.333 4 73c5.33301 53.333 13 103 23 149c9.33301 46 11 73.333 5 82zM51.002 611.998c-0.666992 2 -1 3.66699 -1 5c0 10.667 5.33301 22 16 34
c12 14 25.667 21 41 21c3.33301 -10.667 11.333 -18 24 -22c13.333 -3.33301 20.333 -11.666 21 -24.999v-3c0 -10.667 -3.33301 -22.334 -10 -35.001c-6.66699 -14 -17 -21.667 -31 -23c-2 -0.666992 -4 -1 -6 -1c-12.667 0 -24 5.33301 -34 16c-12 12 -18.667 23 -20 33z
" />
    <glyph glyph-name="j" unicode="j" horiz-adv-x="425" 
d="M386 252c4.66699 2 9.32812 3.00293 13.9951 3.00293c5.33301 -0.666992 11 -3 17 -7c-32.667 -62 -66.667 -111.667 -102 -149s-67.333 -67 -96 -89l-1 -1v-34c-1.33301 -36.667 -3.66602 -72 -6.99902 -106c-7.33301 -62 -20.666 -114 -39.999 -156
s-48.666 -63.333 -87.999 -64h-1c-14.667 0.666992 -26.667 3.66699 -36 9s-16.666 12.666 -21.999 21.999c-7.33301 13.333 -11 29.666 -11 48.999c0 12.667 1.66699 27 5 43c8.66699 38.667 22 76 40 112c12.667 24 26.334 45.667 41.001 65c10 14 20 25.333 30 34
c-1.33301 63.333 -3 130.333 -5 201c-1.33301 40 -2.33301 80.667 -3 122c0 40.667 0.333008 81.334 1 122.001c1.33301 6.66699 3.66602 12 6.99902 16s7.33301 7 12 9s9.33398 3 14.001 3c10 0 20.667 -3.66699 32 -11c18 -10.667 28.333 -22.334 31 -35.001
c-6 -0.666992 -9 -16 -9 -46c0.666992 -30 2 -68 4 -114c0.666992 -24.667 1.66699 -51.334 3 -80.001c1.33301 -28 2 -56.667 2 -86v-37c25.333 19.333 51 43.333 77 72c16.667 18.667 32.667 39 48 61c16 22 30.333 46 43 72zM107.994 -94.9971
c-10.667 -26.667 -19.333 -54.998 -26 -84.998c-8 -36.667 -12.333 -70.334 -13 -101.001c0 -30.667 5.33301 -46 16 -46c14 -0.666992 24.333 10.666 31 33.999c6.66699 22.667 11 53.667 13 93c2 42 2.66699 91 2 147c-8 -10 -15.667 -24 -23 -42zM163.995 680.005
c2 0.666992 4 1 6 1c10.667 0 22.667 -4.33301 36 -13c16 -10 25.333 -23 28 -39c-10 -2 -16 -8 -18 -18c-1.33301 -10 -3.66602 -19 -6.99902 -27c-1.33301 -3.33301 -3 -6.33301 -5 -9c-2 -2 -5 -3.33301 -9 -4c-2.66699 -0.666992 -5.33398 -1 -8.00098 -1
c-10 0 -20.333 2.66699 -31 8c-13.333 6.66699 -22 17 -26 31c-1.33301 6 -2 12 -2 18c0 8.66699 1.66699 17.667 5 27c6.66699 15.333 17 24 31 26z" />
    <glyph glyph-name="k" unicode="k" horiz-adv-x="498" 
d="M93 700c6 -6 9.66602 -24.6602 10.999 -55.9932c1.33301 -32 2 -67.333 2 -106c-0.666992 -47.333 -1.66699 -92 -3 -134c-0.666992 -41.333 0 -63 2 -65c2 6 7.66699 18.667 17 38c8.66699 20 20.334 39.333 35.001 58c8 10 16.667 19.333 26 28
c9.33301 8 19.333 14 30 18c23.333 7.33301 48.333 7.33301 75 0c26 -7.33301 39 -27.666 39 -60.999v-1c0 -16 -3.33301 -31.333 -10 -46c-6.66699 -15.333 -15.334 -30 -26.001 -44c-25.333 -32.667 -56 -59.667 -92 -81c8 -7.33301 14.667 -18.333 20 -33
c7.33301 -21.333 13.333 -45.333 18 -72c6.66699 -40.667 11.667 -80 15 -118c4 -38 11.667 -58.333 23 -61c9.33301 -2.66699 25.666 13 48.999 47c23.333 33.333 46.333 69.666 69 108.999c15.333 26.667 29 51.667 41 75c12.667 23.333 21.667 40.666 27 51.999
c5.33301 1.33301 11 2 17 2c5.33301 -0.666992 10 -3 14 -7c-7.33301 -17.333 -17.666 -39.333 -30.999 -66s-28.333 -53.667 -45 -81c-24 -41.333 -49.667 -78 -77 -110c-24.667 -30 -46 -45 -64 -45c-1.33301 0 -3 0.333008 -5 1c-17.333 2.66699 -31.333 10 -42 22
s-19.334 26.667 -26.001 44c-10 26 -17.333 55.333 -22 88c-4 32 -9.66699 60 -17 84c-4 13.333 -9 24.333 -15 33c-2.66699 4 -5.33398 7.33301 -8.00098 10c-10 -2.66699 -18.333 -3.33398 -25 -2.00098c0 -12 0.333008 -25 1 -39l4 -40c2.66699 -26 5 -50 7 -72
s1 -37.667 -3 -47c-6 -6.66699 -17.667 -11.667 -35 -15c-6.66699 -1.33301 -12.667 -2 -18 -2c-11.333 0 -21.666 2.33301 -30.999 7c-6 3.33301 -11.333 7.66602 -16 12.999s-7.66699 12 -9 20c-4.66699 44 -7 91.333 -7 142v20c0 43.333 0.666992 86 2 128
c2 59.333 4.66699 114.666 8 165.999c2.66699 51.333 4.33398 92.666 5.00098 123.999c0 17.333 -0.666992 30.666 -2 39.999c-0.666992 10 -2.66699 15.333 -6 16c4.66699 27.333 16.667 41.666 36 42.999h4c16.667 0.666992 29.334 -7.33301 38.001 -24zM112.999 249.007
c1.33301 -0.666992 2.66504 -1.00098 3.99805 -1.00098c6.66699 0 15.334 2 26.001 6c12.667 4 20.667 7.66699 24 11c10.667 10.667 21 22.667 31 36s18.667 27.333 26 42c13.333 26.667 21.333 51.334 24 74.001c0 3.33301 0.333008 6.33301 1 9
c0 17.333 -7 26.666 -21 27.999h-1c-11.333 0 -30.666 -18 -57.999 -54c-28 -37.333 -46.667 -87.666 -56 -150.999z" />
    <glyph glyph-name="l" unicode="l" horiz-adv-x="391" 
d="M131 291c-2.66699 -27.333 -4.66699 -53.667 -6 -79s-2 -49.666 -2 -72.999c-0.666992 -42 1.33301 -77.333 6 -106s12.667 -44.667 24 -48c13.333 -4.66699 32 8 56 38c24 29.333 47.333 62.333 70 99c15.333 24.667 29.333 48.334 42 71.001
c12.667 23.333 22.334 42 29.001 56c5.33301 2.66699 10.666 4 15.999 4c5.33301 -0.666992 10.666 -3 15.999 -7l-31 -63c-12.667 -26 -27 -52.333 -43 -79c-24 -40 -50.333 -75.333 -79 -106c-24 -24.667 -48 -37 -72 -37c-5.33301 -0.666992 -11 -0.333984 -17 0.999023
c-19.333 4.66699 -36 13.667 -50 27c-13.333 13.333 -24.666 30.333 -33.999 51c-16.667 37.333 -26.334 83.666 -29.001 138.999v35c0 44 3 89.333 9 136c8.66699 60 21.334 117.667 38.001 173s35.334 101 56.001 137c10.667 13.333 25 22.333 43 27
c15.333 4 27.666 6 36.999 6h6c29.333 -2.66699 46 -25.667 50 -69c4 -44 -2 -91.333 -18 -142c-8.66699 -28 -20 -55 -34 -81s-30 -48.667 -48 -68c-10.667 -11.333 -22 -21.333 -34 -30c-0.666992 -4 -1 -8 -1 -12zM141 348.999
c13.333 14.667 25.334 32.001 36.001 52.001c10.667 19.333 20 39.666 28 60.999c6.66699 17.333 12 35 16 53c4.66699 17.333 8 34 10 50c4.66699 30 6 55.333 4 76s-7 31.667 -15 33c-10 1.33301 -20.667 -16.334 -32 -53.001c-11.333 -37.333 -22 -83.666 -32 -138.999
c-4.66699 -29.333 -9.33398 -60.333 -14.001 -93l-6 -45z" />
    <glyph glyph-name="m" unicode="m" horiz-adv-x="721" 
d="M112 375c10 15.333 24.3369 35.6689 43.0039 61.002c18.667 24 38 36 58 36h1c20 0 36.667 -8 50 -24s23.666 -33.667 30.999 -53c3.33301 -10.667 6.33301 -21.334 9 -32.001c2 -10 3.66699 -19.333 5 -28c6.66699 23.333 22.667 48.666 48 75.999s52 40.666 80 39.999
c24 -0.666992 40.667 -14.667 50 -42c9.33301 -26.667 14.666 -59.667 15.999 -99c0.666992 -20.667 0.333984 -42.667 -0.999023 -66c-1.33301 -22.667 -3 -45.334 -5 -68.001l-13 -142c-4 -41.333 -1.66699 -62.666 7 -63.999c10.667 -2.66699 27.667 12 51 44
c22.667 32 45.667 68.333 69 109l35 64l29 58c5.33301 3.33301 10.666 4.66602 15.999 3.99902s10.333 -2.66699 15 -6c-12 -27.333 -29.667 -63.333 -53 -108c-22.667 -44.667 -47 -84.334 -73 -119.001c-17.333 -23.333 -34.333 -42.333 -51 -57
c-14 -11.333 -27 -17 -39 -17c-3.33301 0 -6.33301 0.333008 -9 1c-30.667 6.66699 -49.667 31.334 -57 74.001c-8 43.333 -10.667 91.333 -8 144c0.666992 22.667 2 45.334 4 68.001l6 65c3.33301 38 5.33301 70 6 96c0.666992 25.333 -3.33301 38.333 -12 39
c-16 0 -35.667 -14.667 -59 -44c-22.667 -30 -37 -62.333 -43 -97c-1.33301 -28 -1.66602 -55.667 -0.999023 -83s-0.333008 -48 -3 -62c-4.66699 -12 -19.334 -17.667 -44.001 -17c-24.667 0 -40.667 7.66699 -48 23c0 18.667 0.333008 41 1 67c0 26 0.333008 52.333 1 79
c0 40 -1.33301 75.667 -4 107c-2.66699 32 -8.66699 48 -18 48c-8 -0.666992 -18 -7.66699 -30 -21c-12.667 -13.333 -24 -28.333 -34 -45c-6.66699 -11.333 -12.334 -22 -17.001 -32c-4.66699 -10.667 -7 -19.667 -7 -27c4.66699 -40 7 -82.667 7 -128v-123
c-14.667 -28 -33.334 -43.333 -56.001 -46c-22.667 -3.33301 -39.334 4.33398 -50.001 23.001c-4 21.333 -6 45.666 -6 72.999c-0.666992 28 0 56.667 2 86c2.66699 54.667 5.33398 106.334 8.00098 155.001c2.66699 48 -2 78 -14 90v1c0 10 6.33301 15 19 15s27 -7 43 -21
c8 -8 16 -18 24 -30c8 -12.667 15 -27.667 21 -45z" />
    <glyph glyph-name="n" unicode="n" horiz-adv-x="527" 
d="M86 493c7.33301 -0.666992 13.333 -4.00195 18 -10.002s8.33398 -13.667 11.001 -23c5.33301 -18 8.33301 -40.333 9 -67c0.666992 -26 1.66699 -52 3 -78c4 15.333 12.667 36 26 62c13.333 25.333 29.333 47.333 48 66c10 10 20.667 18 32 24
c10.667 6 21.667 8.66699 33 8c28 -2 45.333 -24.333 52 -67c6.66699 -42 8.66699 -90 6 -144c-1.33301 -23.333 -3 -46.666 -5 -69.999l-6 -68c-4.66699 -40 -8 -74 -10 -102s-0.333008 -42.667 5 -44c13.333 -4 30.666 9 51.999 39s42.333 63.333 63 100l37 71
c12 22.667 21 40.667 27 54c5.33301 2.66699 10.666 4 15.999 4c5.33301 0.666992 11 -1.66602 17 -6.99902l-27 -58c-12 -25.333 -25.333 -51.666 -40 -78.999c-22.667 -40.667 -47.667 -77.667 -75 -111c-22.667 -28 -44.667 -42 -66 -42c-3.33301 0 -7 0.333008 -11 1
c-15.333 4 -27.666 11.667 -36.999 23c-10 11.333 -18 25.666 -24 42.999c-9.33301 27.333 -14 59.666 -14 96.999c-0.666992 37.333 0.666016 75.333 3.99902 114c5.33301 56.667 11.333 107.667 18 153c7.33301 45.333 7.66602 68.333 0.999023 69
c-11.333 0.666992 -24.666 -8.66602 -39.999 -27.999c-16 -19.333 -30.667 -41.666 -44 -66.999c-7.33301 -13.333 -14 -26.666 -20 -39.999c-6 -14 -11 -27 -15 -39c-0.666992 -12.667 -1 -26.334 -1 -41.001l-2 -43c-1.33301 -26.667 -3 -50.667 -5 -72
c-2 -22 -4.33301 -36 -7 -42c-17.333 -18 -36 -30.333 -56 -37s-37.333 5 -52 35c-1.33301 14.667 -2 29.667 -2 45c0 14 0.666992 28 2 42c2 30 5 59.333 9 88l20 140c6 41.333 3 66.666 -9 75.999c6.66699 10.667 15.334 18 26.001 22c8 2.66699 16 4 24 4
c3.33301 0 6.33301 -0.333008 9 -1z" />
    <glyph glyph-name="o" unicode="o" horiz-adv-x="507" 
d="M240 453c7.33301 -2.66699 8.66895 -5.66992 4.00195 -9.00293s-9.33398 -4.33301 -14.001 -3c-28.667 9.33301 -52.334 2.33301 -71.001 -21c-18.667 -24 -32.667 -54 -42 -90c-5.33301 -19.333 -9 -39.333 -11 -60c-2.66699 -20.667 -3.66699 -40.667 -3 -60
c0 -14 1 -29.333 3 -46c2 -16 5 -31.667 9 -47c7.33301 -29.333 18 -54.666 32 -75.999c14.667 -21.333 33.334 -31.666 56.001 -30.999c10 0.666992 20 4.33398 30 11.001s19.333 15.667 28 27c13.333 16.667 25 38.334 35 65.001c-19.333 6 -38.333 18 -57 36
c-20.667 19.333 -38.334 41 -53.001 65c-22.667 37.333 -36.334 75.333 -41.001 114s6 65.667 32 81c44 25.333 80.667 23.666 110 -5.00098c29.333 -28 47.333 -83 54 -165c2.66699 -36 0.666992 -70 -6 -102c4 0 8 0.333008 12 1c12 2.66699 23.333 7 34 13
c20.667 10.667 38.667 25.667 54 45c16 19.333 27 36 33 50c6 2 11.667 2.66699 17 2c5.33301 0 10.666 -1 15.999 -3c-9.33301 -22 -23.666 -45 -42.999 -69c-18.667 -23.333 -40.667 -41.333 -66 -54c-14 -7.33301 -28.333 -12 -43 -14
c-7.33301 -1.33301 -14.666 -1.66602 -21.999 -0.999023c-10 -32 -24 -58.333 -42 -79c-11.333 -12.667 -24.333 -22.334 -39 -29.001c-14 -7.33301 -29.333 -11 -46 -11h-1c-62 0 -109 20.333 -141 61c-31.333 40.667 -47 97.667 -47 171v1c0 58 10.667 107.667 32 149
s48.333 70 81 86c17.333 8 36 12 56 12c19.333 0 39.333 -5 60 -15zM311.003 234.997c-5.33301 44.667 -20.665 76.999 -45.998 96.999c-25.333 19.333 -48 23.333 -68 12c-10.667 -5.33301 -11.334 -21.666 -2.00098 -48.999c8.66699 -26.667 21.667 -53.667 39 -81
c11.333 -18 23.666 -33.667 36.999 -47c12 -12.667 23.333 -21 34 -25c7.33301 29.333 9.33301 60.333 6 93z" />
    <glyph glyph-name="p" unicode="p" horiz-adv-x="491" 
d="M21 432c3.33301 27.333 15.9961 40.9961 37.9961 40.9961h2c23.333 -1.33301 42 -9.66602 56 -24.999c4 -16.667 6.33301 -35 7 -55c0.666992 -19.333 2 -38.333 4 -57c7.33301 36.667 25.666 63.334 54.999 80.001c28.667 16 56.334 18.333 83.001 7
c12 -4.66699 22.667 -12.334 32 -23.001c10 -10 18 -23 24 -39c13.333 -34.667 20 -72.667 20 -114c0.666992 -32 -2 -63 -8 -93l35 23c36.667 23.333 61 47.333 73 72c6.66699 4 12.667 6 18 6s10.333 -1.33301 15 -4c-6 -15.333 -14 -29 -24 -41
c-9.33301 -11.333 -19.666 -21.666 -30.999 -30.999c-21.333 -18 -44 -33.333 -68 -46l-25 -14c-4.66699 -16.667 -9.66699 -32.334 -15 -47.001c-7.33301 -18 -15 -34 -23 -48c-15.333 -26.667 -32.666 -45.334 -51.999 -56.001
c-19.333 -11.333 -38.666 -9.66602 -57.999 5.00098c-11.333 9.33301 -13 21.666 -5 36.999c8.66699 14.667 21 30 37 46c10 10 20.333 19.667 31 29c2 17.333 3 36 3 56c0 30.667 -2.33301 61.334 -7 92.001c-4.66699 31.333 -12 58.333 -22 81
c-12.667 28.667 -26.334 45 -41.001 49c-15.333 4.66699 -29.333 -14 -42 -56c-0.666992 -61.333 3 -128.333 11 -201c7.33301 -73.333 15.333 -140.666 24 -201.999c4.66699 -33.333 8.66699 -63.333 12 -90c4 -27.333 7 -49.666 9 -66.999
c-1.33301 -16 -4.66602 -30 -9.99902 -42c-6 -12 -12.333 -21.667 -19 -29c-11.333 -12.667 -23.333 -19 -36 -19c-2 0 -4 0.333008 -6 1c-14.667 2 -23.667 14 -27 36c-8 44 -14 97 -18 159c-4 62.667 -7.33301 126 -10 190l-8 180c-2 56.667 -5.66699 103.334 -11 140.001
c-2.66699 20 -6 36 -10 48c-3.33301 12 -7.66602 19 -12.999 21zM201.996 13.9961c-10 -12 -11.667 -20 -5 -24c14 -10 25.333 1.33301 34 34c2 7.33301 4 15.333 6 24c-14 -12 -25.667 -23.333 -35 -34z" />
    <glyph glyph-name="q" unicode="q" horiz-adv-x="518" 
d="M301 419c1.33301 -4.66699 0.335938 -8.33105 -2.99707 -10.998c-3.33301 -3.33301 -8 -5.66602 -14 -6.99902c-15.333 22.667 -31.333 28.667 -48 18c-17.333 -10.667 -33.666 -30 -48.999 -58c-8 -15.333 -15.667 -32 -23 -50c-7.33301 -18.667 -14 -37.667 -20 -57
c-13.333 -45.333 -21.333 -88.333 -24 -129c-2 -40 4.66699 -62 20 -66c24 -6.66699 45 4 63 32s33.667 63.333 47 106c7.33301 22.667 14 46.334 20 71.001c6 25.333 11.333 49.666 16 72.999c2 12 10.667 21.333 26 28c16 7.33301 28.667 7 38 -1
c3.33301 -2.66699 5.66602 -6.33398 6.99902 -11.001s1.66602 -10.334 0.999023 -17.001c-7.33301 -32.667 -15 -76.334 -23 -131.001c-6.66699 -46.667 -12.334 -94.667 -17.001 -144c18.667 13.333 37.334 28.333 56.001 45c36.667 32 71 76 103 132
c6.66699 6.66699 12.667 10 18 10c4.66699 0.666992 10.334 -1.66602 17.001 -6.99902c-26 -53.333 -60.667 -100.666 -104 -141.999c-32 -30 -63 -52.667 -93 -68c-0.666992 -12 -1.66699 -23.667 -3 -35c14.667 -13.333 27.667 -29.333 39 -48c18 -30.667 31 -63 39 -97
c11.333 -51.333 10.666 -99.333 -2.00098 -144s-39.334 -67.334 -80.001 -68.001h-2c-20.667 0 -36.334 11.333 -47.001 34c-11.333 24 -19.333 54.333 -24 91c-2.66699 20 -4.33398 41 -5.00098 63s-0.666992 44.333 0 67c1.33301 43.333 4.33301 85.666 9 126.999
c4 41.333 8.33301 75 13 101c-7.33301 -16.667 -19.333 -37.667 -36 -63c-16 -24.667 -36 -37.667 -60 -39c-50.667 -2.66699 -86.667 15 -108 53c-20 35.333 -30 72.666 -30 111.999v8c0.666992 29.333 5.66699 57.333 15 84c8.66699 26.667 20.334 50.667 35.001 72
c22 32.667 47.667 58.334 77 77.001c29.333 19.333 57.333 29 84 29h1c14 -0.666992 27.333 -4 40 -10c12 -6.66699 22.333 -16.667 31 -30zM307.003 -126.997c-0.666992 -53.333 1.66895 -96.666 7.00195 -129.999c3.33301 -18.667 7.66602 -33 12.999 -43
c5.33301 -10.667 12 -16.334 20 -17.001c8.66699 0 12.667 12.667 12 38c0 25.333 -3.66699 55 -11 89c-8.66699 42 -21 83.333 -37 124c-0.666992 2 -1.33398 3.66699 -2.00098 5z" />
    <glyph glyph-name="r" unicode="r" horiz-adv-x="458" 
d="M143 420c18.667 0.666992 37.665 0.332031 56.998 -1.00098c11.333 -0.666992 21.666 -2 30.999 -4c10 -2 18.333 -4.66699 25 -8c4.66699 -2.66699 8.66699 -6 12 -10c3.33301 -3.33301 5.33301 -7.66602 6 -12.999c0 -3.33301 -3.66699 -16 -11 -38l-25 -80
c-5.33301 -16.667 -10.333 -34 -15 -52l-13 -54c-8.66699 -42 -12.667 -79.333 -12 -112c1.33301 -32.667 13.333 -50.334 36 -53.001c12.667 -2 30.667 13.667 54 47s46 69 68 107l39 72l25 49c5.33301 2 10.333 3 15 3c5.33301 0 10.666 -2.33301 15.999 -7l-26 -54
c-11.333 -24 -24.666 -49.333 -39.999 -76c-22.667 -40 -47.667 -77.333 -75 -112c-26 -31.333 -50.667 -47.333 -74 -48c-1.33301 0 -3 0.333008 -5 1c-38 3.33301 -65.667 26.333 -83 69c-16.667 42.667 -24.667 89.334 -24 140.001c1.33301 34 6.33301 67.333 15 100
c8.66699 32 20.667 58.667 36 80c-26 6 -48 13.667 -66 23c-1.33301 -4.66699 -3 -9 -5 -13l-36 -77c-12 -24 -21.333 -43.333 -28 -58c-5.33301 -2 -10.666 -3.33301 -15.999 -4c-5.33301 0 -10.666 2.33301 -15.999 7l28 57l34 73l14 33
c-13.333 11.333 -23 23.666 -29 36.999c-14 29.333 -12.333 56.333 5 81c13.333 18 29.333 27 48 27c6 0 12.667 -1 20 -3c18.667 -5.33301 23.667 -25.666 15 -60.999c-5.33301 -22 -12.666 -45 -21.999 -69c4 0 11.333 0.333008 22 1zM120.998 531.998
c-5.33301 1.33301 -10.332 -2.33203 -14.999 -10.999s-8.33398 -19.334 -11.001 -32.001c-3.33301 -15.333 -4.33301 -30.333 -3 -45c0 -5.33301 0.666992 -10 2 -14c7.33301 17.333 14 34 20 50c12 32.667 14.333 50 7 52z" />
    <glyph glyph-name="s" unicode="s" horiz-adv-x="428" 
d="M187 396c-2.66699 -6 -9.67383 -10.666 -21.0068 -13.999c-12 -3.33301 -20 0 -24 10c0 16 -1.66699 29 -5 39s-7.66602 17.333 -12.999 22c-12 11.333 -25.667 10.666 -41 -2.00098c-14.667 -12 -21 -31.667 -19 -59c1.33301 -10.667 5 -20.667 11 -30
s13.333 -18.333 22 -27c17.333 -15.333 38.333 -30 63 -44c24 -14 47.667 -30 71 -48c18.667 -14.667 35 -31.334 49 -50.001c4.66699 -6 8.66699 -12.667 12 -20c4 2.66699 8.33301 5.33398 13 8.00098c34.667 20 60.667 47 78 81c6 2 11.333 3 16 3s9.66699 -2 15 -6
c-6 -14.667 -14 -28 -24 -40c-9.33301 -11.333 -20 -22 -32 -32c-17.333 -15.333 -35.333 -29 -54 -41c2 -6.66699 3.66699 -13.667 5 -21c4 -23.333 3.66699 -45.666 -1 -66.999c-4 -21.333 -11 -41 -21 -59c-8 -14.667 -17.333 -28 -28 -40
c-11.333 -12 -23.333 -22 -36 -30c-23.333 -16 -47.666 -24.667 -72.999 -26h-6c-23.333 0 -43.666 8.33301 -60.999 25c-15.333 15.333 -17.333 33.333 -6 54c10.667 20 27.667 41.333 51 64c12.667 12 26.334 24 41.001 36l19 15c-0.666992 6.66699 -1.66699 13 -3 19
c-6 24 -23.333 49 -52 75c-28 25.333 -54.667 52.666 -80 81.999c-13.333 15.333 -24.666 31.666 -33.999 48.999c-9.33301 16.667 -14.666 34.334 -15.999 53.001v6c0 11.333 2 21.666 6 30.999c4.66699 12 11.667 22.333 21 31c16 16.667 36 27.334 60 32.001
c6.66699 2 13.334 3 20.001 3c15.333 0 29.666 -4.33301 42.999 -13c8.66699 -6.66699 16.334 -15.667 23.001 -27c6 -10.667 9.66699 -24.667 11 -42zM155.993 28.001c-22.667 -20.667 -39.667 -38.667 -51 -54c-6 -8 -10 -15.333 -12 -22c-2 -6 -1 -10.667 3 -14
c8.66699 -8 20.667 -4.66699 36 10c15.333 15.333 28.333 35.333 39 60c6 14 10.333 29.333 13 46z" />
    <glyph glyph-name="t" unicode="t" horiz-adv-x="421" 
d="M19 583c-7.33301 0.666992 -10.9961 3.33496 -10.9961 8.00195v2c1.33301 6 4 11.667 8 17l83 2l2 12c2 17.333 3.33301 31.666 4 42.999c0 11.333 -1.33301 18.333 -4 21c4.66699 14.667 17 27 37 37c12.667 6.66699 24 10 34 10c4.66699 0 9 -1 13 -3
c4 -1.33301 7.33301 -4 10 -8c2 -3.33301 3 -8.33301 3 -15c0 -0.666992 -0.666992 -6 -2 -16c-0.666992 -9.33301 -2 -22 -4 -38c-1.33301 -13.333 -2.66602 -28 -3.99902 -44c21.333 -1.33301 43.333 -3 66 -5c8.66699 -3.33301 13 -8 13 -14v-1c0 -5.33301 -3 -8 -9 -8
h-2c-17.333 2 -40.666 3.33301 -69.999 4c-1.33301 -14.667 -2.66602 -30.334 -3.99902 -47.001c-4 -47.333 -8 -97.666 -12 -150.999c-4 -65.333 -7.66699 -130 -11 -194c-2.66699 -64 -3.33398 -116.667 -2.00098 -158c0.666992 -22 2.33398 -39.667 5.00098 -53
s6 -20.666 10 -21.999c13.333 -2.66699 32 12 56 44s47.667 67.667 71 107l51 91c15.333 28.667 25.333 48 30 58c5.33301 2 10.333 3 15 3c5.33301 -0.666992 10.666 -3.33398 15.999 -8.00098c-2.66699 -4.66699 -6.33398 -12 -11.001 -22s-10.334 -21.333 -17.001 -34
c-12 -24.667 -26.667 -53 -44 -85c-18 -31.333 -36.667 -61 -56 -89c-19.333 -28.667 -39 -52.334 -59 -71.001c-17.333 -16 -33.333 -24 -48 -24h-7c-22.667 4.66699 -41.334 15 -56.001 31c-14.667 16.667 -26.334 37.334 -35.001 62.001
c-13.333 39.333 -20.333 86.666 -21 141.999c-0.666992 6.66699 -1 13.334 -1 20.001c0 49.333 2.66699 99.333 8 150c4.66699 56 11 109.333 19 160c5.33301 34 9.66602 64.333 12.999 91c-26.667 -0.666992 -52.334 -2.33398 -77.001 -5.00098z" />
    <glyph glyph-name="u" unicode="u" horiz-adv-x="555" 
d="M11 436c5.33301 16.667 14.6729 24.999 28.0059 24.999h3c15.333 -2 30.666 -10.667 45.999 -26c8 -8 15.333 -18 22 -30c7.33301 -12 13.333 -25.333 18 -40c0.666992 -17.333 0 -39.666 -2 -66.999l-6 -85c-3.33301 -43.333 -4.33301 -83.333 -3 -120
c0.666992 -36 9 -54.333 25 -55c16.667 0 34.667 20.667 54 62c18.667 41.333 34 88.666 46 141.999c6.66699 28.667 11.667 57.334 15 86.001c3.33301 28 4.66602 54 3.99902 78c3.33301 14.667 17.666 20 42.999 16c25.333 -4.66699 38.666 -17 39.999 -37
c-1.33301 -18 -4 -42.667 -8 -74l-12 -101c-2 -18 -3.66699 -36.333 -5 -55c-1.33301 -18 -2.33301 -35.333 -3 -52c-1.33301 -31.333 -0.666016 -57.666 2.00098 -78.999c3.33301 -21.333 10 -33.333 20 -36c12 -2 29 12.333 51 43c22 31.333 43.333 65.333 64 102l37 69
c11.333 22 19.333 38.667 24 50c5.33301 1.33301 10.666 1.66602 15.999 0.999023c5.33301 0 10.666 -2 15.999 -6l-9 -20l-15 -31c-10 -22 -22.667 -47.333 -38 -76c-14.667 -28.667 -30.667 -55.334 -48 -80.001c-17.333 -25.333 -35 -46 -53 -62
c-14.667 -13.333 -28.667 -20 -42 -20c-3.33301 0 -6.33301 0.333008 -9 1c-16 4 -29 11.667 -39 23s-18 24.333 -24 39c-11.333 28 -17 58 -17 90c-0.666992 32 -1 55.667 -1 71c-3.33301 -8.66699 -9 -25 -17 -49c-8.66699 -24.667 -19.667 -47.667 -33 -69
c-9.33301 -14.667 -19.333 -27 -30 -37c-10.667 -9.33301 -21.667 -14 -33 -14c-24 0.666992 -43.667 6.33398 -59 17.001c-14.667 10.667 -26.667 25 -36 43c-9.33301 18.667 -16 40 -20 64c-4 24.667 -6.33301 50 -7 76c-1.33301 47.333 -0.333008 93 3 137
c3.33301 43.333 0.666016 72 -8.00098 86z" />
    <glyph glyph-name="v" unicode="v" horiz-adv-x="382" 
d="M145 394c4 -17.333 8.33496 -37.335 13.002 -60.002c4 -22.667 8.33301 -45.334 13 -68.001l24 -119c7.33301 -35.333 13 -53.666 17 -54.999c3.33301 2.66699 11.666 25.334 24.999 68.001l46 142c8.66699 28.667 18 56.667 28 84s19.333 51.666 28 72.999
c2.66699 6.66699 6.66699 10 12 10c2 0 4.66699 -0.333008 8 -1c6 -2 9 -5 9 -9c0 -2 -1 -4.33301 -3 -7l-68 -208c-22 -70 -46 -137.333 -72 -202c-9.33301 -21.333 -26 -36.666 -50 -45.999c-6.66699 -2.66699 -12.667 -4 -18 -4c-14.667 0 -25 9.33301 -31 28
c-8 21.333 -15.667 45.666 -23 72.999s-14.333 55.333 -21 84l-37 153c-11.333 48.667 -23 80.334 -35 95.001c4.66699 10.667 10.334 18.667 17.001 24c7.33301 4.66699 15 7.66699 23 9c19.333 1.33301 38.666 -5.66699 57.999 -21s31.666 -29.666 36.999 -42.999z" />
    <glyph glyph-name="w" unicode="w" horiz-adv-x="720" 
d="M329 -24c-10.667 2 -21.0029 6.00586 -31.0029 12.0059c-9.33301 6 -17.666 13.667 -24.999 23c-14 16 -24.667 35 -32 57c-8 21.333 -11.667 40 -11 56c-10 -23.333 -30 -47.333 -60 -72c-29.333 -24 -58.333 -34 -87 -30c-24 4 -40.333 24.667 -49 62
c-8 36.667 -12.333 79 -13 127v17c0 31.333 1 62.666 3 93.999l5 94v33c0 8 -1 13 -3 15c2 6 5 10.667 9 14c4 4 8.33301 6.66699 13 8c5.33301 2.66699 11 4 17 4c9.33301 -0.666992 19.333 -3.33398 30 -8.00098c17.333 -8 28.333 -18 33 -30
c1.33301 -26 0.666016 -54.667 -2.00098 -86s-6.33398 -62.666 -11.001 -93.999l-21 -157c-6.66699 -46.667 -4 -70.667 8 -72c17.333 -2.66699 39.666 9.66602 66.999 36.999c28 27.333 47 59 57 95c5.33301 28 9.33301 56.333 12 85c3.33301 28 7 49 11 63
c6.66699 12 22.667 16.333 48 13s41 -13.666 47 -30.999c-2.66699 -18.667 -5.66699 -41.334 -9 -68.001s-6.33301 -53.667 -9 -81c-4 -40.667 -6 -77.667 -6 -111c0 -32.667 5 -50 15 -52c10.667 -2 20.334 -0.333008 29.001 5s16.334 13.333 23.001 24
c12.667 19.333 22.334 45.666 29.001 78.999s11.667 68 15 104c4 46 6 88.667 6 128c0.666992 40 1.33398 66 2.00098 78c4.66699 28 18 37.667 40 29c21.333 -8.66699 32.333 -29 33 -61c1.33301 -21.333 8 -44.666 20 -69.999c12.667 -26 27.667 -48 45 -66
c8.66699 -9.33301 18 -17.333 28 -24c10 -6 19.667 -9.33301 29 -10c8.66699 -0.666992 17 1.66602 25 6.99902s15.333 14.333 22 27c6 2 12 3 18 3c6.66699 0.666992 11.334 -1 14.001 -5c-12.667 -23.333 -26 -40 -40 -50c-13.333 -10 -27 -15 -41 -15
c-9.33301 -0.666992 -18.666 1 -27.999 5c-8.66699 3.33301 -17.334 8 -26.001 14c-19.333 13.333 -35.666 29.666 -48.999 48.999c-12.667 17.333 -20 28.666 -22 33.999c1.33301 -20.667 0.666016 -43.334 -2.00098 -68.001
c-2.66699 -25.333 -7.33398 -50.333 -14.001 -75c-12 -46 -31.333 -85.667 -58 -119c-22 -27.333 -49.333 -41 -82 -41c-7.33301 0 -14.666 0.333008 -21.999 1z" />
    <glyph glyph-name="x" unicode="x" horiz-adv-x="636" 
d="M390 433c4 8 10.6709 12.6699 20.0039 14.0029c0.666992 0.666992 1.66699 0.666992 3 0c7.33301 0 11.666 -7 12.999 -21c-35.333 -70 -75.333 -141 -120 -213l10 -41c5.33301 -22 10 -42.667 14 -62c8.66699 -36 16.667 -66.333 24 -91c6.66699 -24 14 -36.333 22 -37
c10.667 -0.666992 28.667 16.333 54 51s50 71.667 74 111c16 26 30 50 42 72l26 46c4.66699 3.33301 9.66699 4.66602 15 3.99902c5.33301 -1.33301 10.333 -4.33301 15 -9c-2 -4.66699 -5.33301 -11.667 -10 -21s-10.334 -20 -17.001 -32l-45 -77
c-17.333 -29.333 -35.333 -56.666 -54 -81.999c-19.333 -26.667 -38 -49 -56 -67c-17.333 -17.333 -32.333 -26 -45 -26c-0.666992 0 -1.33398 0.333008 -2.00098 1c-16.667 1.33301 -32.334 6.66602 -47.001 15.999c-14 9.33301 -27 21.666 -39 36.999
c-16 20.667 -30.333 46 -43 76c-2.66699 6.66699 -5.66699 13 -9 19l-92 -144c-6 -7.33301 -15.667 -11.666 -29 -12.999h-4c-10.667 -0.666992 -17.334 3.66602 -20.001 12.999v1c0 3.33301 2.33301 10 7 20c5.33301 10 12.666 22.333 21.999 37
c16.667 27.333 38.334 60.666 65.001 99.999l31 44c-2 5.33301 -3.66699 10.666 -5 15.999c-11.333 38.667 -20.666 76.334 -27.999 113.001c-8 36.667 -15 66.667 -21 90c-2.66699 12.667 -5.66699 22.667 -9 30c-2.66699 7.33301 -5.33398 11.333 -8.00098 12
c-6.66699 1.33301 -16 -8.33398 -28 -29.001c-12 -21.333 -23.333 -44 -34 -68l-20 -45c-6 -14 -10 -24 -12 -30c-5.33301 -5.33301 -11.666 -7.66602 -18.999 -6.99902c-6.66699 0.666992 -11.334 3.66699 -14.001 9c3.33301 6.66699 8.66602 19 15.999 37s16 37.333 26 58
c14.667 32 30.667 62 48 90c16.667 26 32 39 46 39h2c14.667 -2 28.334 -8 41.001 -18c12.667 -10.667 24.334 -24 35.001 -40c14.667 -22.667 27.667 -49.667 39 -81c7.33301 -21.333 14 -43 20 -65l63 95c26 39.333 38.333 62 37 68z" />
    <glyph glyph-name="y" unicode="y" horiz-adv-x="506" 
d="M474 252c4.66699 2.66699 10 4.33203 16 4.99902c5.33301 0.666992 10.666 -2.33301 15.999 -9c-18 -33.333 -36.333 -63.333 -55 -90c-18.667 -26 -37 -49.333 -55 -70c-27.333 -30 -52.666 -54.667 -75.999 -74c-2 -42 -5.33301 -84.333 -10 -127
c-6.66699 -64 -20 -116 -40 -156c-11.333 -22 -24.666 -39 -39.999 -51s-33.333 -18 -54 -18h-2c-10.667 0.666992 -19.667 3.33398 -27 8.00098c-7.33301 5.33301 -13 12.333 -17 21c-10.667 22.667 -12 54 -4 94c8 39.333 20.667 76.333 38 111
c10 19.333 20.667 36.333 32 51c12 15.333 24 27 36 35c2 1.33301 4 3 6 5l2 70c0.666992 39.333 1 70.666 1 93.999c-7.33301 -36.667 -19.666 -67 -36.999 -91s-37.333 -36 -60 -36c-48 0 -81.667 32 -101 96c-14.667 48 -22 119.333 -22 214c0 32 0.666992 66.667 2 104
c4 20 17.667 32.667 41 38c3.33301 0.666992 6.66602 1 9.99902 1c19.333 0.666992 34.666 -11.333 45.999 -36c-4.66699 -24.667 -9 -54.334 -13 -89.001c-4.66699 -34.667 -7.66699 -69.667 -9 -105c-2 -52.667 0.666992 -99.667 8 -141s24 -61.666 50 -60.999
c16 0.666992 31.667 19.667 47 57s27.666 79.333 36.999 126c6 31.333 10.333 62 13 92c3.33301 30.667 4 56.667 2 78c1.33301 8.66699 3.33301 15.667 6 21c3.33301 5.33301 7.33301 9 12 11c10 5.33301 21.333 4.33301 34 -3c12.667 -8 20 -17.667 22 -29
c-5.33301 -1.33301 -8.33301 -16.333 -9 -45c-0.666992 -29.333 -0.666992 -66.333 0 -111c0.666992 -24 1.33398 -49.667 2.00098 -77v-85c0 -9.33301 -0.333008 -18.666 -1 -27.999c22 20.667 45.333 45 70 73c32 36.667 59.667 79 83 127zM206 -103.002
c-9.33301 -24.667 -17.333 -51.001 -24 -79.001c-8 -34 -12.667 -65 -14 -93s2 -42 10 -42c6 0 11.333 3.66699 16 11c5.33301 7.33301 10 17.333 14 30c7.33301 23.333 13.333 54.333 18 93c4 38 7.33301 77.333 10 118l1 15l-1 -1
c-10.667 -9.33301 -20.667 -26.666 -30 -51.999z" />
    <glyph glyph-name="z" unicode="z" horiz-adv-x="466" 
d="M135 406c18.667 3.33301 38.6699 6.33398 60.0029 9.00098c11.333 1.33301 22.666 2 33.999 2s21.666 -0.666992 30.999 -2c9.33301 -2 17.666 -4.66699 24.999 -8c6.66699 -4 12 -9.33301 16 -16c1.33301 -6.66699 0.666016 -16.334 -2.00098 -29.001
c-2.66699 -12 -6.66699 -25.333 -12 -40c-10 -26.667 -24 -55 -42 -85c-17.333 -30 -34.666 -53.667 -51.999 -71c37.333 0.666992 66.666 -21.666 87.999 -66.999c0.666992 -2.66699 1.66699 -5.33398 3 -8.00098l13 13l72 72c24 26 40.333 48.667 49 68
c5.33301 2 10.666 3 15.999 3s10.666 -1.33301 15.999 -4c-6.66699 -14 -15.667 -28.333 -27 -43c-10.667 -15.333 -22.667 -30.666 -36 -45.999c-24.667 -28 -50 -54.667 -76 -80c-5.33301 -5.33301 -10.333 -10 -15 -14c12 -36 19.333 -75.333 22 -118
c1.33301 -24.667 1 -50 -1 -76c-2 -25.333 -6 -49.666 -12 -72.999c-10 -43.333 -26.333 -79.666 -49 -108.999c-22 -28.667 -50.333 -43 -85 -43h-2c-39.333 0.666992 -61.333 23 -66 67c-4 44.667 4.66699 95.667 26 153c11.333 30.667 26 61.667 44 93
c10 19.333 21.333 37.333 34 54c-4 30 -9.66699 57 -17 81c-9.33301 28 -20.333 43.667 -33 47c-10.667 3.33301 -20 4.66602 -28 3.99902c-7.33301 0 -14.666 -0.666992 -21.999 -2c-4.66699 6 -8 14 -10 24c-1.33301 10.667 1.66699 19.334 9 26.001
c8 5.33301 16.333 12 25 20c8 7.33301 16.333 16 25 26c15.333 17.333 28.333 36.333 39 57c11.333 20.667 15.666 39.667 12.999 57c-34.667 -1.33301 -64 1.66699 -88 9c-4.66699 1.33301 -9 2.66602 -13 3.99902c-2 -6.66699 -4.33301 -13.334 -7 -20.001
c-7.33301 -19.333 -14.666 -37 -21.999 -53s-13.666 -29 -18.999 -39c-5.33301 -2.66699 -10.666 -4 -15.999 -4c-5.33301 0.666992 -11 2 -17 4c8 14 17 33 27 57c9.33301 22 18 45.333 26 70c-6.66699 4 -12.667 8.66699 -18 14c-12 10.667 -21.333 23 -28 37
c-6 13.333 -9.66699 26.666 -11 39.999v10c0 21.333 6.33301 40.666 19 57.999c14 19.333 34 29 60 29h1c9.33301 0 17 -2.33301 23 -7c5.33301 -4.66699 9.33301 -11 12 -19c7.33301 -21.333 6.33301 -50.666 -3 -87.999c-4 -16 -8.33301 -31.667 -13 -47
c4 0.666992 8.66699 1.66699 14 3zM204.003 -65.999c-15.333 -28 -28.334 -55.666 -39.001 -82.999c-20 -51.333 -30.667 -96 -32 -134c-0.666992 -38 12.333 -56.333 39 -55c16 0.666992 27.667 20.667 35 60s11 84.666 11 135.999c0 22 -0.666992 44.333 -2 67l-2 28
c-3.33301 -6 -6.66602 -12.333 -9.99902 -19zM99.002 544.002c-6 0 -11 -5.99805 -15 -17.998c-4 -11.333 -6.33301 -25 -7 -41c-2 -18.667 -1.33301 -37 2 -55c2 -12.667 5 -21.334 9 -26.001c10 31.333 17.333 60.666 22 87.999c6 34 2.33301 51.333 -11 52z" />
    <glyph glyph-name="braceleft" unicode="{" horiz-adv-x="276" 
d="M50 -17c-0.666992 12.667 2 27.6631 8 44.9961c6.66699 16.667 14.334 34.334 23.001 53.001c17.333 35.333 34.333 72 51 110s21 70.667 13 98c-2.66699 8.66699 -7.33398 17 -14.001 25c-7.33301 8 -15.666 15.667 -24.999 23c-17.333 13.333 -36.333 25 -57 35l-44 24
c10.667 7.33301 28.334 16.333 53.001 27c24.667 10 45 22.667 61 38c6.66699 6.66699 12 14 16 22c4 7.33301 5.33301 15.333 4 24c-2 13.333 -6 25.333 -12 36c-5.33301 11.333 -12 22.333 -20 33l-46 62c-16 22 -25.667 49.667 -29 83
c-4.66699 54 6.66602 102 33.999 144c28 42 66.667 64.333 116 67c18.667 -2 29.334 -7.66699 32.001 -17s-1 -16.666 -11 -21.999c-18.667 4.66699 -37.334 -0.666016 -56.001 -15.999s-33.334 -35.666 -44.001 -60.999c-6 -13.333 -10.333 -27.666 -13 -42.999
c-3.33301 -14.667 -4 -30 -2 -46c1.33301 -14 4.33301 -27 9 -39c5.33301 -12.667 11.666 -25 18.999 -37l40 -67c14 -22 21.333 -48.667 22 -80c0.666992 -21.333 -5.66602 -39 -18.999 -53c-14 -14 -29.667 -25 -47 -33c-9.33301 -4.66699 -18.333 -8.66699 -27 -12
c-9.33301 -3.33301 -17.333 -6.33301 -24 -9c22.667 -9.33301 45.667 -21.333 69 -36s38.666 -33 45.999 -55c6 -15.333 8.33301 -33 7 -53c-1.33301 -19.333 -4.66602 -39.666 -9.99902 -60.999c-9.33301 -38.667 -21.333 -76.334 -36 -113.001
s-21.667 -63.334 -21 -80.001c0.666992 -10 3.66699 -19 9 -27c6 -8 13 -14.667 21 -20c16 -10.667 34.667 -17 56 -19c22 -2.66699 40.667 -1 56 5c2 -8.66699 3 -16.667 3 -24c0 -19.333 -7.33301 -35.333 -22 -48c-12.667 -11.333 -28.667 -17 -48 -17
c-12 -0.666992 -25 1.33301 -39 6c-29.333 14 -53.666 31.667 -72.999 53c-18.667 22 -28.334 47 -29.001 75z" />
    <glyph glyph-name="bar" unicode="|" horiz-adv-x="1813" 
d="M1316 39c-6 -13.333 -13.998 -21.0029 -23.998 -23.0029c-10 -2.66699 -18.667 4.33301 -26 21c5.33301 16.667 3.66602 33.334 -5.00098 50.001c-8.66699 16 -20 22.667 -34 20c-25.333 -6 -43.666 -24 -54.999 -54c-12 -30.667 -9.66699 -59 7 -85
c8.66699 -14 22.334 -25.667 41.001 -35c18.667 -10 43.334 -15.333 74.001 -16c14 -0.666992 27.667 1.33301 41 6s25.666 11.334 36.999 20.001c22 16 39 37 51 63c12 25.333 16.333 52 13 80c-3.33301 30 -17.666 58.667 -42.999 86c-25.333 26.667 -57.333 51 -96 73
c-25.333 14.667 -53 28 -83 40c-22 9.33301 -44.667 17.666 -68 24.999c-30 -25.333 -60.333 -48.666 -91 -69.999c-44 -30.667 -88.333 -54.334 -133 -71.001c-44.667 -16 -88.667 -20 -132 -12c-30 5.33301 -56.333 14.333 -79 27c-22 12 -40 26 -54 42
c-22 24.667 -34.667 51.334 -38 80.001c-3.33301 28 2.66699 53 18 75c8 11.333 18.667 21.333 32 30c14 8.66699 30.333 14.667 49 18c52.667 10 107.667 13.667 165 11c58 -2.66699 115.333 -10.334 172 -23.001c38.667 -8.66699 76 -19.667 112 -33l33 29l30 27l-54 14
l-141 39l-217 60c-73.333 20 -144 38 -212 54c-82.667 18.667 -159.667 32 -231 40s-132 6 -182 -6c-27.333 -6 -50.666 -15.667 -69.999 -29c-20 -12.667 -35.333 -29.667 -46 -51c-13.333 -25.333 -15.666 -50.333 -6.99902 -75c8 -24.667 23 -43.667 45 -57
c11.333 -7.33301 24.333 -12.666 39 -15.999c14.667 -2.66699 30.334 -2.33398 47.001 0.999023c22 4 34 17.333 36 40s-9.33301 34 -34 34c-16 0 -22.667 10.333 -20 31c2.66699 21.333 11 32 25 32c16.667 6.66699 31.667 4.66699 45 -6c13.333 -11.333 23 -26.333 29 -45
c3.33301 -12 4.66602 -25 3.99902 -39s-4.33398 -27 -11.001 -39c-5.33301 -10 -13 -19 -23 -27c-10 -7.33301 -22.667 -13 -38 -17c-42.667 -10.667 -80.667 -7.33398 -114 9.99902c-32.667 17.333 -54.667 42.666 -66 75.999c-4.66699 14 -7 29.667 -7 47v11
c1.33301 20.667 7.33301 42.334 18 65.001c24 50.667 62 86 114 106c50 19.333 108 29 174 29h11c74 -1.33301 155.333 -11.666 244 -30.999c89.333 -18.667 179.666 -41.334 270.999 -68.001l178 -53l171 -52l84 -25c2 1.33301 4 3 6 5c60 52 118.333 96.667 175 134
s110.667 54 162 50c26 -2.66699 48.333 -9 67 -19c19.333 -10 35 -22.333 47 -37c9.33301 -12 16.666 -25 21.999 -39c4.66699 -14.667 7 -29.334 7 -44.001v-1c0 -27.333 -8 -54 -24 -80c-16.667 -26 -41.334 -46 -74.001 -60c-38 -16.667 -89.333 -22 -154 -16
c-64 5.33301 -136 17 -216 35c-10.667 2 -21.334 4.33301 -32.001 7c-4.66699 -4 -9 -8 -13 -12l-54 -49c13.333 -5.33301 26.333 -11 39 -17c62 -28.667 114 -62.667 156 -102c22.667 -21.333 42 -43.666 58 -66.999c16 -24 27.667 -48.667 35 -74
c12.667 -45.333 10.667 -85.666 -6 -120.999c-16.667 -36 -41.334 -63.667 -74.001 -83c-18 -11.333 -37.667 -19.666 -59 -24.999c-19.333 -4.66699 -39.333 -7 -60 -7h-6c-24 0.666992 -45.667 4.33398 -65 11.001c-18.667 6.66699 -35 15.667 -49 27
c-27.333 22 -44.333 48.667 -51 80c-7.33301 32 -4 61 10 87c8 14 18.667 26.333 32 37c14 11.333 31 19.333 51 24c26.667 6.66699 50.667 -1.33301 72 -24c20.667 -23.333 28 -48 22 -74zM1483 446.997c80.667 -16 140.331 -15.6689 178.998 0.998047
c16.667 6.66699 29.334 15.334 38.001 26.001c9.33301 10.667 15.333 22 18 34c7.33301 28 -0.666992 55.667 -24 83c-22.667 27.333 -53.667 42.333 -93 45c-47.333 3.33301 -99.333 -18 -156 -64c-35.333 -28 -71.666 -58.333 -108.999 -91
c52.667 -13.333 101.667 -24.666 147 -33.999zM935.999 353.995c-62.667 6 -120.669 5.66699 -174.002 -1c-41.333 -6 -66 -21.333 -74 -46c-7.33301 -25.333 -0.333008 -48 21 -68c8.66699 -8.66699 20.334 -16 35.001 -22c14 -6.66699 30.333 -11 49 -13
c50.667 -5.33301 101.667 4.66699 153 30c48.667 24 97.667 54.333 147 91c-51.333 13.333 -103.666 23 -156.999 29z" />
    <glyph glyph-name="braceright" unicode="}" horiz-adv-x="297" 
d="M232 782c0.666992 -12.667 -2.33496 -27.3311 -9.00195 -43.998c-6 -16.667 -13.667 -34.667 -23 -54l-50 -109c-16.667 -38 -21 -71 -13 -99c2.66699 -8.66699 7.33398 -16.667 14.001 -24c7.33301 -8 15.666 -15.667 24.999 -23c17.333 -13.333 36 -25.333 56 -36
c20.667 -10 35.667 -18 45 -24c-10.667 -6.66699 -28.334 -15.334 -53.001 -26.001c-24.667 -10 -45 -23 -61 -39c-6.66699 -6 -12 -13 -16 -21c-4 -7.33301 -5.33301 -15.666 -4 -24.999c3.33301 -24 13 -45 29 -63c15.333 -18.667 30.666 -39.334 45.999 -62.001
c7.33301 -12 14 -25.333 20 -40s10 -31 12 -49c4.66699 -54 -7 -102 -35 -144c-27.333 -42 -65.666 -64.333 -114.999 -67c-18.667 2.66699 -29.334 8.66699 -32.001 18c-3.33301 9.33301 0.333984 16.333 11.001 21c10 -2 20 -1.33301 30 2c10 4 20 10 30 18
c16.667 15.333 30.667 36.333 42 63s15.666 54.334 12.999 83.001c-1.33301 14 -4.66602 27.333 -9.99902 40c-4.66699 12.667 -10.667 24.667 -18 36l-40 67c-14 22.667 -21.333 49.334 -22 80.001c-0.666992 11.333 1 21.666 5 30.999
c4.66699 9.33301 10.334 17.666 17.001 24.999c12.667 14 28.334 25 47.001 33s34.667 14 48 18c-22.667 10 -45.667 22.333 -69 37s-39 33 -47 55c-5.33301 15.333 -7.33301 32.666 -6 51.999c1.33301 20 4.66602 40.333 9.99902 61c9.33301 39.333 21.333 77.333 36 114
s21.334 63 20.001 79c0 10.667 -3 19.667 -9 27c-5.33301 8 -12.333 15 -21 21c-15.333 10 -33.666 16.333 -54.999 19c-22 2.66699 -40.667 1 -56 -5c-2 8.66699 -3 16.667 -3 24c0 18.667 7.33301 34.667 22 48c12.667 11.333 28.667 17 48 17c11.333 0 24.333 -2 39 -6
c29.333 -14 53.666 -32 72.999 -54c18.667 -21.333 28.334 -46.333 29.001 -75z" />
    <glyph glyph-name="asciitilde" unicode="~" horiz-adv-x="441" 
d="M15 323l0.00195312 5.99902c0 16 5.66699 35 17 57c12.667 24 31.667 38 57 42c2 0.666992 4.33301 1 7 1c9.33301 0 21.666 -2.66699 36.999 -8c19.333 -6 40.333 -13.667 63 -23l98 -42c31.333 -13.333 50.333 -18.333 57 -15c10.667 5.33301 11.334 14 2.00098 26
s-17 20.333 -23 25c-2.66699 10 1.66602 18 12.999 24c12 6 24.333 7.33301 37 4c12.667 -6 22.667 -15 30 -27c8 -12 13.333 -24.667 16 -38c1.33301 -8 2 -15.667 2 -23c0 -12.667 -2 -25.334 -6 -38.001c-7.33301 -19.333 -19.333 -32 -36 -38
c-11.333 -4.66699 -23 -7 -35 -7c-2.66699 0 -5.33398 0.333008 -8.00098 1c-15.333 0.666992 -30.666 3.66699 -45.999 9c-30 10.667 -59.667 26.334 -89 47.001l-75 53c-11.333 8.66699 -21 15.334 -29 20.001c-8.66699 4.66699 -15 6.66699 -19 6
c-10 -2 -18.667 -11 -26 -27c-6.66699 -16 -4.66699 -27 6 -33c-2.66699 -14 -10.334 -21 -23.001 -21c-12.667 0.666992 -21.667 7 -27 19z" />
    <glyph glyph-name="exclamdown" unicode="&#xa1;" horiz-adv-x="151" 
d="M129 41c-0.666992 -5.33301 -2.00098 -10.0029 -4.00098 -14.0029c-2 -4.66699 -4.66699 -9 -8 -13c-14 -14.667 -32.333 -22.667 -55 -24c-2.66699 -0.666992 -4.66699 -1 -6 -1c-19.333 0.666992 -29.333 8.66699 -30 24c0.666992 2 2 16.667 4 44
c1.33301 27.333 3.33301 61.333 6 102c0.666992 22.667 1.66699 46.334 3 71.001c1.33301 25.333 2.33301 51 3 77c1.33301 40 2.33301 80 3 120s0.666992 76.667 0 110c2.66699 23.333 10.334 37 23.001 41h6c10 0 17.667 -7 23 -21c6.66699 -31.333 11 -66.333 13 -105
c2.66699 -39.333 4.66699 -78.666 6 -117.999v-75v-71c0 -41.333 0.666992 -75.666 2 -102.999s5 -42 11 -44zM52.999 730.997c-12 5.33301 -19.001 15.0029 -21.001 29.0029c-0.666992 5.33301 -1 10.333 -1 15c0 8 1.33301 15.333 4 22
c4.66699 11.333 13 16.666 25 15.999c12.667 -0.666992 22 3.33301 28 12c13.333 -4.66699 23.333 -15 30 -31c4 -8.66699 6 -16.334 6 -23.001c0 -6 -1.33301 -11 -4 -15c-4 -8.66699 -13 -16.334 -27 -23.001c-7.33301 -4 -14.666 -6 -21.999 -6c-6 0 -12 1.33301 -18 4z
" />
    <glyph glyph-name="cent" unicode="&#xa2;" horiz-adv-x="281" 
d="M196 88c-9.33301 -8.66699 -18.6641 -14.668 -27.9971 -18.001c-2.66699 -0.666992 -5 -1 -7 -1c-6.66699 0 -12.334 4 -17.001 12c-2.66699 13.333 -4 28 -4 44c0 8 0.333008 16.333 1 25c1.33301 20 4 38.333 8 55c-20.667 4.66699 -38.334 12.334 -53.001 23.001
c-18 14 -32.667 31 -44 51c-17.333 33.333 -26 72 -26 116v20c3.33301 52.667 15.666 100.667 36.999 144c8.66699 17.333 19 31.333 31 42s24.667 18 38 22c8 2.66699 16 4.33398 24 5.00098c-0.666992 12 -1.66699 28.667 -3 50c-0.666992 10.667 -1 20 -1 28
c0 14 1 24.667 3 32c5.33301 17.333 11.666 26 18.999 26c2 0 3.66699 -0.333008 5 -1c10.667 -4.66699 19 -10.334 25 -17.001c1.33301 -8 2 -16.333 2 -25c0 -14.667 -2.33301 -29.667 -7 -45c-5.33301 -20 -7.33301 -38 -6 -54c8.66699 -2.66699 17.334 -7 26.001 -13
c28 -19.333 42 -47.333 42 -84c0 -7.33301 -0.666992 -14 -2 -20c-0.666992 -6 -1.66699 -12.333 -3 -19c-5.33301 -4.66699 -12 -4.66699 -20 0c-8 4 -12 9 -12 15c2.66699 13.333 2.66699 29 0 47c-3.33301 18 -10 27.333 -20 28
c-16.667 1.33301 -32.334 -11.667 -47.001 -39c-14.667 -28 -26 -60.667 -34 -98c-3.33301 -16 -6 -32.333 -8 -49c-2 -16 -3 -31.667 -3 -47c0.666992 -28 5.33398 -52.333 14.001 -73c8.66699 -20 22.667 -31.333 42 -34c12.667 -2 26.667 3.66699 42 17
c14.667 13.333 22.334 24.333 23.001 33c6 4 12.667 6 20 6c7.33301 0.666992 12.666 -3 15.999 -11c-0.666992 -16.667 -12 -34.334 -34 -53.001c-16.667 -14 -34 -22.333 -52 -25v-7c0 -9.33301 0.333008 -18.666 1 -27.999c0.666992 -18 2 -35 4 -51
s4.66699 -25.667 8 -29z" />
    <glyph glyph-name="sterling" unicode="&#xa3;" horiz-adv-x="511" 
d="M89 359c-14 0 -23.3359 4.66992 -28.0029 14.0029c-1.33301 2.66699 -2 5.33398 -2 8.00098c0 5.33301 3.33301 10 10 14c21.333 3.33301 48.666 5.66602 81.999 6.99902l20 1c-1.33301 42.667 -2 85 -2 127c0 43.333 3 82.333 9 117
c5.33301 32.667 14.333 60.334 27 83.001c13.333 22 31.666 35.667 54.999 41c11.333 2.66699 22 4 32 4c20.667 0 39 -5.33301 55 -16c23.333 -16 40 -38.667 50 -68c5.33301 -15.333 8.33301 -32.333 9 -51c0.666992 -18 -1 -36.667 -5 -56
c-0.666992 -10 -2.66699 -17.667 -6 -23s-7.66602 -8.66602 -12.999 -9.99902c-8.66699 -2.66699 -18.334 -0.666992 -29.001 6c-11.333 7.33301 -19.333 15.333 -24 24c3.33301 6.66699 6.33301 14.667 9 24c2.66699 8.66699 4.33398 18.334 5.00098 29.001
c2 20 1 40 -3 60s-11.667 35.333 -23 46c-5.33301 5.33301 -12 9 -20 11s-17 1.33301 -27 -2c-20.667 -6 -34 -26.333 -40 -61c-5.33301 -34 -7.33301 -75.333 -6 -124c0.666992 -26.667 2 -54.334 4 -83.001l4 -77c6.66699 0.666992 13.334 1 20.001 1
c18 0 35.667 0.333008 53 1c16.667 0 32.334 0.333008 47.001 1c10.667 -6.66699 16 -14.667 16 -24v-2c-1.33301 -10.667 -9.33301 -17.334 -24 -20.001c-6 -1.33301 -20.333 -1 -43 1c-20.667 1.33301 -43 2.66602 -67 3.99902c2 -37.333 3 -74 3 -110
c0 -44 -4 -83.667 -12 -119l103 -38c23.333 -8.66699 47.333 -16 72 -22c24 -5.33301 47.667 -7.33301 71 -6c14.667 -2.66699 22 -9.66699 22 -21c0 -4.66699 -1.33301 -10.334 -4 -17.001c-9.33301 -21.333 -26 -35 -50 -41c-26 2.66699 -50.333 9 -73 19
c-23.333 10 -45.666 21.667 -66.999 35l-84 52c-6.66699 -18.667 -15 -35.334 -25 -50.001c-16 -23.333 -39 -38 -69 -44c-14.667 -3.33301 -27.667 -4 -39 -2c-12 2 -22 5.66699 -30 11c-16 10.667 -25.667 25.667 -29 45c-0.666992 4.66699 -1 9 -1 13
c0 14.667 4 29 12 43c6 9.33301 13.667 18 23 26c9.33301 7.33301 20.666 13 33.999 17c24 7.33301 50.333 7.66602 79 0.999023c2.66699 22.667 4.33398 48 5.00098 76c0.666992 25.333 0.333984 52 -0.999023 80l-2 55c-13.333 0.666992 -26 1 -38 1
c-28.667 0 -43.667 -3.66699 -45 -11zM94.9971 136.003c-21.333 -6 -33.001 -18.332 -35.001 -36.999c-2 -18 4 -31.333 18 -40c4.66699 -2.66699 10.334 -4.33398 17.001 -5.00098c6 -0.666992 13 0 21 2c22.667 6 38 25.333 46 58c1.33301 4.66699 2.33301 9.66699 3 15
c-24 10.667 -47.333 13 -70 7z" />
    <glyph glyph-name="currency" unicode="&#xa4;" horiz-adv-x="486" 
d="M283 431c10.667 -3.33301 17.6699 -11.6631 21.0029 -24.9961c3.33301 -12.667 1 -24 -7 -34c-3.33301 -4.66699 -8 -8.33398 -14 -11.001c-5.33301 -3.33301 -12.333 -5 -21 -5c-9.33301 6 -18.333 9.33301 -27 10s-17 -0.666016 -25 -3.99902
c-18 -8 -32.333 -25.333 -43 -52s-15 -53.334 -13 -80.001c1.33301 -18 5.66602 -34.667 12.999 -50c7.33301 -14.667 18.666 -25.334 33.999 -32.001c26 -12 52.667 -10.667 80 4c26.667 14.667 48.334 35 65.001 61c8.66699 14 15.334 29 20.001 45
c4.66699 15.333 6 30.666 4 45.999c-2 14.667 -7.33301 28.667 -16 42s-21.334 25 -38.001 35c-12.667 7.33301 -15.667 17.666 -9 30.999c6 12.667 14.333 15 25 7c24.667 -13.333 43.667 -29.333 57 -48c12.667 -18.667 20.667 -38.667 24 -60c2 -9.33301 3 -18.333 3 -27
c0 -30.667 -9 -61 -27 -91c-22.667 -38.667 -53.667 -65 -93 -79c-16.667 -6 -34.334 -9 -53.001 -9c-4.66699 0 -9 0.333008 -13 1c-24 1.33301 -48.667 9 -74 23c-18.667 10 -34 23.333 -46 40c-11.333 16.667 -19.333 34.667 -24 54c-3.33301 14 -5 28.333 -5 43
c0 22 4 44.667 12 68c13.333 38 35.666 66.333 66.999 85c16 10 34.333 16.333 55 19c5.33301 0.666992 11 1 17 1c16 0 33 -2.66699 51 -8zM155.003 415.003c6 -12 7.00195 -19.667 3.00195 -23c-2 -2 -5 -3.33301 -9 -4c-4 -1.33301 -9.66699 -2 -17 -2
c-8.66699 16.667 -23.334 31.667 -44.001 45c-20 14 -35.333 30 -46 48c0.666992 8.66699 3 17.667 7 27c2 4 5.33301 6 10 6c5.33301 0 12.666 -3 21.999 -9s22.333 -19.667 39 -41zM407.005 503.003h6.00293c9.33301 0 17.666 -1.33301 24.999 -4
c7.33301 -3.33301 11 -9 11 -17c0 -1.33301 -0.333008 -3 -1 -5c-8.66699 -16 -21.667 -32.667 -39 -50s-34 -31.666 -50 -42.999c-8.66699 3.33301 -12.334 6 -11.001 8s-1.66699 5.66699 -9 11c12 13.333 26.333 31.666 43 54.999c17.333 22.667 25.666 37.667 24.999 45z
M337.008 125.003c-3.33301 7.33301 -5.00098 13 -5.00098 17c0 2.66699 0.666992 4.66699 2 6c4.66699 3.33301 13.334 5.33301 26.001 6c8.66699 -16.667 23 -32 43 -46c20.667 -13.333 36 -29 46 -47c0 -8.66699 -2 -17.667 -6 -27c-2 -4 -5.33301 -6 -10 -6
c-5.33301 0 -13 3 -23 9c-9.33301 6 -22 19.667 -38 41zM87.0068 37.0029h-6.00391c-9.33301 0 -17.666 1.33301 -24.999 4c-7.33301 3.33301 -10.666 9 -9.99902 17v5c9.33301 16 22.333 32.667 39 50c17.333 17.333 34 31.666 50 42.999
c8.66699 -3.33301 12.334 -6 11.001 -8s1.66699 -5.66699 9 -11c-10 -11.333 -22 -26.333 -36 -45c-2 -3.33301 -4.33301 -6.66602 -7 -9.99902c-17.333 -22.667 -25.666 -37.667 -24.999 -45z" />
    <glyph glyph-name="yen" unicode="&#xa5;" horiz-adv-x="455" 
d="M130 204c-15.333 2.66699 -23.333 10.001 -24 22.001v1c0.666992 13.333 6.66699 23.333 18 30c23.333 2 50.666 3 81.999 3h13h26c4 18.667 7.33301 37 10 55c-27.333 0.666992 -53.333 0.333984 -78 -0.999023c-34 -1.33301 -53 -6.33301 -57 -15
c-22 4.66699 -33 12.667 -33 24c0 0.666992 0.333008 1.33398 1 2.00098c1.33301 12.667 7.33301 21.334 18 26.001c13.333 1.33301 29 2.66602 47 3.99902c17.333 1.33301 36 2.33301 56 3l52 2c4.66699 38.667 7.33398 63 8.00098 73c-4 -10 -12.333 -23 -25 -39
c-13.333 -15.333 -32 -21 -56 -17c-22.667 4 -43.334 17 -62.001 39c-18.667 22.667 -34.667 49.334 -48 80.001c-21.333 47.333 -36.666 96.666 -45.999 147.999c-8 40.667 -12 72 -12 94c0 6 0.333008 11.333 1 16c8 18 21.667 30 41 36c6 2 11.333 3 16 3
c10 0 16 -4.33301 18 -13c2.66699 -22 6 -47 10 -75s8.33301 -56.333 13 -85c9.33301 -54 20 -103.333 32 -148c12.667 -44 25.667 -67 39 -69c19.333 -2.66699 38.666 6 57.999 26c18.667 20.667 29.334 41 32.001 61c1.33301 15.333 4.66602 44.666 9.99902 87.999
c4.66699 43.333 12.334 83.666 23.001 120.999c6.66699 18.667 19 29 37 31c17.333 2 27.333 -5.33301 30 -22c-10 -26 -18 -63.333 -24 -112c-6 -49.333 -11.667 -102.666 -17 -159.999l-8 -75c36 0 66.333 -1 91 -3c11.333 -7.33301 17 -16 17 -26v-2
c-0.666992 -10.667 -9 -17.334 -25 -20.001c-5.33301 -0.666992 -20.333 0 -45 2l-42 2l-5 -46c-0.666992 -3.33301 -1 -7 -1 -11h7l54 -4c17.333 -0.666992 32.666 -2 45.999 -4c9.33301 -4 14 -9.66699 14 -17v-3c-1.33301 -8 -8.33301 -14 -21 -18
c-5.33301 0 -20 -0.333008 -44 -1c-19.333 -0.666992 -40.333 -1.33398 -63 -2.00098c-4 -32 -9 -61.667 -15 -89c-5.33301 -22.667 -11 -43 -17 -61c-6 -17.333 -13 -31 -21 -41c-3.33301 -3.33301 -9.66602 -5 -18.999 -5s-22.333 2.33301 -39 7
c-31.333 9.33301 -45 23 -41 41c14.667 -2 28 11.333 40 40s22.333 62.667 31 102c0 1.33301 0.333008 2.33301 1 3h-44c-21.333 -0.666992 -37 -1 -47 -1h-13z" />
    <glyph glyph-name="section" unicode="&#xa7;" horiz-adv-x="305" 
d="M269 664c-3.33301 -11.333 -8.66504 -18.3311 -15.998 -20.998c-8 -3.33301 -13.667 0 -17 10c1.33301 17.333 -4.66699 36 -18 56c-12.667 20 -32.667 27.667 -60 23c-22.667 -3.33301 -38.667 -18 -48 -44c-10 -25.333 -13.333 -49 -10 -71
c3.33301 -26 19 -47.667 47 -65c27.333 -17.333 54 -38 80 -62c13.333 -12.667 25.333 -27.334 36 -44.001c10 -16.667 16 -36.667 18 -60c0.666992 -2.66699 1 -5.33398 1 -8.00098c0 -25.333 -11.667 -51 -35 -77c-16.667 -18.667 -33.667 -33 -51 -43l24 -21
c13.333 -12 24.666 -25.667 33.999 -41c9.33301 -14.667 15 -32.334 17 -53.001c0.666992 -3.33301 1 -6.66602 1 -9.99902c0 -24 -8.66699 -46.333 -26 -67c-19.333 -24 -45 -38.333 -77 -43c-4.66699 -0.666992 -9.33398 -1 -14.001 -1c-14 0 -29 3.33301 -45 10
c-20 9.33301 -35 22.333 -45 39c-5.33301 8.66699 -8.66602 18.667 -9.99902 30c-0.666992 11.333 1.33301 23 6 35c12 12 22.667 16.333 32 13c9.33301 -2.66699 12.666 -11 9.99902 -25c-4 -20.667 -0.666992 -39.334 10 -56.001s28 -23.667 52 -21
c22.667 2.66699 40 14 52 34c12.667 20.667 17.667 40.667 15 60c-2 14.667 -8.33301 27.667 -19 39c-10.667 10.667 -23 21 -37 31l-83 56c-28.667 19.333 -44 46.333 -46 81v4c0 12 2.33301 23 7 33c6 12 13.667 22.667 23 32c17.333 18 38.333 32 63 42
c7.33301 2.66699 14 5.33398 20 8.00098c-24 16 -47.333 33.333 -70 52c-14.667 12 -27.334 25.667 -38.001 41s-17 33.333 -19 54c-0.666992 4 -1 8.33301 -1 13c0 31.333 11.667 58.333 35 81c26.667 26 55.667 41.333 87 46c6 1.33301 11.667 2 17 2
c22.667 0 43.334 -7.66699 62.001 -23c23.333 -19.333 35.333 -42.333 36 -69zM135.001 417.002c-25.333 -16.667 -36.334 -38.334 -33.001 -65.001c2.66699 -23.333 17 -43 43 -59c6 -4 12.333 -8 19 -12c12 8.66699 25.667 21.667 41 39
c20 22.667 28.667 43.334 26 62.001c-3.33301 22.667 -14 42 -32 58c-21.333 -1.33301 -42.666 -9 -63.999 -23z" />
    <glyph glyph-name="dieresis" unicode="&#xa8;" horiz-adv-x="249" 
d="M14 750l-0.00195312 3c0 8.66699 4.33301 18 13 28c9.33301 12 20.333 17.667 33 17c2.66699 -8.66699 9.33398 -14.334 20.001 -17.001c10.667 -3.33301 16.334 -10.333 17.001 -21c0.666992 -9.33301 -2 -19.666 -8 -30.999c-5.33301 -9.33301 -12.333 -15.333 -21 -18
c-1.33301 0 -3 -0.333008 -5 -1h-4c-10.667 0 -20.334 4.33301 -29.001 13c-9.33301 9.33301 -14.666 18.333 -15.999 27zM166.998 809l4 -0.00390625c8.66699 0 17.334 -4.66699 26.001 -14c10.667 -11.333 17 -23.666 19 -36.999
c-4.66699 -5.33301 -7.33398 -13.666 -8.00098 -24.999s-6.66699 -17.666 -18 -18.999c-0.666992 -0.666992 -1.33398 -1 -2.00098 -1h-4c-8 0 -16.667 2.33301 -26 7c-11.333 5.33301 -18.666 14 -21.999 26c-1.33301 4.66699 -2 9.33398 -2 14.001c0 8 2 16.333 6 25
c6 14 15 22 27 24z" />
    <glyph glyph-name="copyright" unicode="&#xa9;" horiz-adv-x="552" 
d="M209 758c15.333 5.33301 28.6689 8.00098 40.002 8.00098h3c10 0 18 -1 24 -3c13.333 -5.33301 21 -14.333 23 -27c1.33301 -12 -1 -23 -7 -33c-43.333 -11.333 -78.333 -28 -105 -50c-26 -22.667 -45.333 -47.667 -58 -75c-18.667 -42 -24 -86 -16 -132
c8.66699 -46 25.667 -84 51 -114c14 -16.667 29.667 -29.667 47 -39c17.333 -10 35.666 -14.667 54.999 -14c26.667 0 52 6.66699 76 20c24 12.667 45.667 29.667 65 51c36 39.333 60.667 87 74 143s7.66602 105 -17.001 147c-12.667 21.333 -31.334 39.666 -56.001 54.999
c-24 14.667 -55 23.667 -93 27c-3.33301 8 -4.33301 15.333 -3 22c1.33301 6 7 7.33301 17 4c38.667 -2.66699 71.334 -11.667 98.001 -27c27.333 -16 49 -35.333 65 -58c24 -36 36 -76.667 36 -122c0 -12.667 -1 -25.667 -3 -39c-8.66699 -62 -33.667 -115 -75 -159
c-22.667 -24 -49.667 -43 -81 -57c-31.333 -14.667 -66.333 -22 -105 -22c-32.667 -0.666992 -63 5.33301 -91 18c-27.333 12.667 -51.333 29.334 -72 50.001c-38 39.333 -62.333 87.666 -73 144.999c-3.33301 16 -5 31.667 -5 47c0 40.667 10 79 30 115
c14.667 25.333 34.667 48.333 60 69c25.333 21.333 57.333 38 96 50zM337.003 558.001c2.66699 10 2.66602 21.999 -0.000976562 35.999c-2 14 -7 21 -15 21c-15.333 1.33301 -29.666 -13.334 -42.999 -44.001c-13.333 -31.333 -22 -64.666 -26 -99.999
c-2.66699 -29.333 -1.33398 -55.666 3.99902 -78.999c6 -23.333 18.333 -36.333 37 -39c10 -0.666992 20.667 4 32 14c12 10 18 18.333 18 25c4.66699 3.33301 10 5 16 5c5.33301 0 9.33301 -3 12 -9c0 -12.667 -8.66699 -26.334 -26 -41.001c-16 -12.667 -32 -19 -48 -19
h-7c-20.667 2.66699 -38 9.33398 -52 20.001c-14 10 -25.333 23 -34 39c-14 25.333 -20.667 55.333 -20 90v14c2 40.667 11.667 77.667 29 111c6.66699 13.333 14.334 24 23.001 32c9.33301 8 19 13.667 29 17c8 2.66699 16 4 24 4c15.333 0 30 -4.66699 44 -14
c21.333 -15.333 32 -37 32 -65c0 -5.33301 -0.333008 -10.333 -1 -15c-0.666992 -5.33301 -1.66699 -10.333 -3 -15c-4 -3.33301 -9 -3.33301 -15 0s-9.33301 7.33301 -10 12z" />
    <glyph glyph-name="guillemotleft" unicode="&#xab;" horiz-adv-x="526" 
d="M316 461l-44 -31l-52 -34l-90 -60c-28 -18.667 -42.667 -30.667 -44 -36c4 -6 16 -20 36 -42l65 -72l39 -39c12 -13.333 23.333 -24.666 34 -33.999c4.66699 -11.333 5.33398 -23 2.00098 -35c-2.66699 -9.33301 -8.33398 -14 -17.001 -14c-2 0 -4 0.333008 -6 1
c-4 7.33301 -16 22 -36 44l-65 72l-81 90c-24 28 -36 45 -36 51v0c0.666992 7.33301 15 22.666 43 45.999l90 74l71 62c21.333 19.333 34 34 38 44c4 1.33301 8 2 12 2h6c5.33301 -1.33301 10 -4 14 -8c10 -8.66699 17 -21.334 21 -38.001
c1.33301 -9.33301 2 -17.666 2 -24.999c0 -6.66699 -0.666992 -12.667 -2 -18zM502 438c-14.667 -10.667 -32.999 -22.001 -54.999 -34.001c-22 -12.667 -44.667 -25 -68 -37l-95 -49c-28 -14.667 -43 -24.667 -45 -30c4 -5.33301 17 -17 39 -35l69 -58
c14 -11.333 27.333 -22.666 40 -33.999c13.333 -11.333 25.333 -22 36 -32c16 -10.667 19.667 -21.667 11 -33c-7.33301 -9.33301 -15.333 -14 -24 -14c-2.66699 0 -5 0.333008 -7 1c-5.33301 6.66699 -17 19 -35 37l-58 60l-72 75c-20.667 23.333 -31.334 38 -32.001 44v0
c0.666992 6 11.334 18 32.001 36l72 60l96 75c31.333 24 49.666 39 54.999 45c6 2 11.333 3 16 3c12.667 0 20.667 -8 24 -24c2.66699 -10.667 4 -20.667 4 -30s-1 -18 -3 -26z" />
    <glyph glyph-name="" unicode="&#xad;" horiz-adv-x="286" 
d="M34 376h1c6 0 17.333 -1.66699 34 -5c18 -4 37.667 -8 59 -12c26 -4.66699 51 -7.66699 75 -9c23.333 -2 37.333 1.33301 42 10c22 -4.66699 32.667 -13 32 -25v-1c-1.33301 -12.667 -7.33301 -21.667 -18 -27c-24 -2 -48 -3 -72 -3c-14 0 -28 0.333008 -42 1
c-38 2 -77.333 5 -118 9c-11.333 6.66699 -17 18 -17 34s8 25.333 24 28z" />
    <glyph glyph-name="registered" unicode="&#xae;" horiz-adv-x="480" 
d="M189 762c20.667 6.66699 36.667 10.001 48 10.001c10 0 16.333 -2.66699 19 -8c6.66699 -11.333 5.66699 -23.666 -3 -36.999c-41.333 -9.33301 -74.333 -23.666 -99 -42.999c-24 -20 -41 -42.333 -51 -67c-8.66699 -20.667 -13.334 -42 -14.001 -64
c-0.666992 -22.667 1.66602 -44.667 6.99902 -66c10 -39.333 28.667 -73.333 56 -102c26.667 -28.667 56 -42.667 88 -42c22 0 43 4.33301 63 13c20 9.33301 38.333 21.666 55 36.999c14 12 26.333 25.667 37 41c10.667 16 19.667 32.333 27 49c13.333 32 20 64.667 20 98
c0 34 -9 63.667 -27 89c-12.667 18.667 -30.667 34 -54 46c-24 11.333 -53.667 17.666 -89 18.999c-3.33301 6.66699 -4.33301 12.667 -3 18c1.33301 6 6.33301 7.33301 15 4c34 -2.66699 63 -10.667 87 -24s43 -30.333 57 -51c23.333 -32.667 35 -70.334 35 -113.001
c0 -9.33301 -0.666992 -19 -2 -29c-6 -54.667 -26.667 -101.334 -62 -140.001c-19.333 -21.333 -42.666 -38.333 -69.999 -51c-26.667 -13.333 -57.334 -20 -92.001 -20c-28 0 -54.333 5.66699 -79 17c-24 10.667 -45 25.334 -63 44.001
c-33.333 34 -54.666 76.333 -63.999 127c-2.66699 14 -4 27.667 -4 41c0 34.667 8.66699 68 26 100c12.667 22.667 30.334 43 53.001 61c22 18 49.667 32.333 83 43zM212 671.001c7.33301 -24.667 10.001 -48.3311 8.00098 -70.998s-1.66699 -34.667 1 -36
c1.33301 1.33301 4.33301 11.666 9 30.999s12.334 36.333 23.001 51c4 5.33301 8 9.66602 12 12.999c4.66699 3.33301 9.66699 6 15 8c12 3.33301 24.333 -1 37 -13c11.333 -11.333 17 -23.333 17 -36v-2c-0.666992 -11.333 -4.33398 -22.333 -11.001 -33s-15 -21 -25 -31
c-10.667 -10.667 -22 -20.334 -34 -29.001c10.667 -7.33301 19.334 -19.666 26.001 -36.999c8 -22 17 -39.333 27 -52c4 -5.33301 8.66699 -9 14 -11c4.66699 -2 10.334 -1.66699 17.001 1c6 2.66699 9 0.666992 9 -6c-0.666992 -6 -5.33398 -9.66699 -14.001 -11
c-3.33301 -0.666992 -6.66602 -1 -9.99902 -1c-6.66699 0 -12.667 1.33301 -18 4c-8.66699 4 -16.334 9.66699 -23.001 17c-13.333 14 -25.333 30.333 -36 49c-7.33301 12.667 -15.333 22 -24 28c-4.66699 -1.33301 -8.33398 -2 -11.001 -2c0 -18 1.33301 -35.333 4 -52
c3.33301 -17.333 3.66602 -33 0.999023 -47c0 -4.66699 -2.66699 -7 -8 -7c-3.33301 -0.666992 -8 0.333008 -14 3c-14 6 -21.333 13 -22 21c-3.33301 26 -5 51.667 -5 77c0 11.333 0.333008 22.333 1 33c2 35.333 4.66699 65 8 89l5 34c0.666992 8.66699 1 15 1 19
c0.666992 5.33301 2.66699 8 6 8h3c5.33301 -2.66699 9 -5.66699 11 -9zM228.001 527.004l3.99902 -0.000976562c1.33301 0 3 0.333008 5 1c2.66699 0.666992 5 1.66699 7 3c16.667 14.667 30.334 35.334 41.001 62.001c5.33301 12.667 8 22.667 8 30
c0 9.33301 -3.33301 15.333 -10 18h-2c-6 0 -15 -9 -27 -27c-13.333 -19.333 -22 -48.333 -26 -87z" />
    <glyph glyph-name="macron" unicode="&#xaf;" horiz-adv-x="460" 
d="M61 726c-22 4.66699 -32.6699 13 -32.0029 25v1c1.33301 12.667 7.33301 21.667 18 27c24.667 2.66699 60.334 5 107.001 7c46.667 2.66699 92.667 4 138 4c10 0.666992 20 1 30 1c12.667 0 25 -0.333008 37 -1c21.333 0 39 -0.666992 53 -2
c10.667 -6.66699 16.334 -16.667 17.001 -30c0 -1.33301 -0.333008 -2.66602 -1 -3.99902c-0.666992 -15.333 -9 -24.333 -25 -27c-5.33301 0 -22.666 1 -51.999 3c-29.333 2.66699 -62 5 -98 7c-44 2 -86 3 -126 3c-39.333 -0.666992 -61.333 -5.33398 -66 -14.001z" />
    <glyph glyph-name="degree" unicode="&#xb0;" horiz-adv-x="226" 
d="M85 815c6.66699 2 12.667 -0.333984 18 -7.00098v2c-0.666992 8.66699 2 13.334 8 14.001c1.33301 0 2.66602 -0.333008 3.99902 -1c17.333 0 32.333 -3.33301 45 -10s23.334 -15.334 32.001 -26.001c15.333 -19.333 22.333 -42.333 21 -69
c-0.666992 -27.333 -9.66699 -50.333 -27 -69c-9.33301 -10 -20.666 -18 -33.999 -24c-6 -2.66699 -12.667 -5 -20 -7c-8 -1.33301 -16.667 -2 -26 -2h-1c-12.667 0 -24.334 2.66699 -35.001 8c-11.333 5.33301 -21 12.333 -29 21c-15.333 16.667 -25 37.334 -29 62.001
c-1.33301 6 -2 12.333 -2 19c0 16.667 4 32.334 12 47.001c6 10 14 18.667 24 26c10.667 7.33301 23.667 12.666 39 15.999zM98 765.999c-14.667 -1.33301 -22.999 -9.33301 -24.999 -24s0 -30 6 -46c5.33301 -12.667 12.666 -23.667 21.999 -33
c8.66699 -9.33301 18.667 -13.666 30 -12.999c24.667 2.66699 41 18.667 49 48c8.66699 29.333 4.66699 53.666 -12 72.999c-5.33301 6.66699 -12.333 12 -21 16c-8 4 -18 6 -30 6c-2.66699 0 -4.66699 0.333008 -6 1c3.33301 -10.667 -1 -20 -13 -28z" />
    <glyph glyph-name="acute" unicode="&#xb4;" horiz-adv-x="156" 
d="M32 703l-2.00195 -0.000976562c-9.33301 0 -14.666 5.33301 -15.999 16c-0.666992 3.33301 -1 6.33301 -1 9c0.666992 8 2 15.667 4 23l30 53c8.66699 16 21.334 30 38.001 42h6c10.667 0 21 -4.66699 31 -14c12 -10.667 16 -22.667 12 -36
c-4.66699 -0.666992 -12.334 -7.66699 -23.001 -21c-10.667 -14 -22.334 -27.667 -35.001 -41c-7.33301 -7.33301 -14.666 -13.666 -21.999 -18.999c-7.33301 -6 -14.666 -10 -21.999 -12z" />
    <glyph glyph-name="mu" unicode="&#xb5;" horiz-adv-x="407" 
d="M72 425c6.66699 20 20.665 31 41.998 33c20.667 2 33.667 -4 39 -18c6.66699 -15.333 6 -36.666 -2 -63.999c-8.66699 -28 -12.334 -56 -11.001 -84c2 -12.667 5 -30.667 9 -54c4.66699 -23.333 10.334 -48 17.001 -74c10.667 -39.333 24.334 -75.666 41.001 -108.999
c17.333 -34 38 -51 62 -51c2.66699 0 4.66699 3.33301 6 10c0.666992 7.33301 1 17 1 29c0 23.333 -1 53.666 -3 90.999c-2.66699 37.333 -4 75.666 -4 114.999c0 40 2.66699 78.667 8 116c4.66699 36.667 14 65 28 85c8 12 21 18.667 39 20h8c14 0 24.667 -4 32 -12
c2.66699 -3.33301 4.66699 -7.33301 6 -12v-6c0.666992 -3.33301 0.333984 -6.66602 -0.999023 -9.99902c-18 -14 -27 -40.667 -27 -80c-0.666992 -38.667 -0.333984 -83.334 0.999023 -134.001c0.666992 -26.667 0.666992 -54.334 0 -83.001s-3 -57 -7 -85
c-2.66699 -20 -13.667 -36.667 -33 -50s-35.666 -19.666 -48.999 -18.999c-18 0 -33.667 4.33301 -47 13c-14 8 -26 18.667 -36 32c-19.333 25.333 -33.333 56.333 -42 93c-8.66699 37.333 -13.667 72 -15 104c1.33301 -16 1.33301 -49 0 -99
c-2 -50 -3.33301 -103.333 -4 -160v-91c0.666992 -29.333 2 -56.333 4 -81c0 -8 -7 -16.333 -21 -25c-4 -2.66699 -8 -4 -12 -4c-10 0 -19.667 7.33301 -29 22c3.33301 6.66699 4.33301 28.667 3 66c-0.666992 36.667 -2 80.667 -4 132l-4 86c-1.33301 30 -2.33301 60 -3 90
c-1.33301 42 -2 82 -2 120v38c0.666992 49.333 4 86 10 110z" />
    <glyph glyph-name="paragraph" unicode="&#xb6;" horiz-adv-x="434" 
d="M295 483c6.66699 -3.33301 10.001 -9.66309 10.001 -18.9961s-3.66699 -14 -11 -14l-12 -4l2 -136c0.666992 -62.667 2.33398 -118.334 5.00098 -167.001c2 -48.667 6 -74.334 12 -77.001c-1.33301 -20 -7.66602 -30.333 -18.999 -31h-2c-10.667 0 -19.334 4 -26.001 12
l-3 33c-0.666992 15.333 -1.66699 33.666 -3 54.999l-7 136c-2.66699 52.667 -5 104.334 -7 155.001c-0.666992 4 -1 8 -1 12h-17c-7.33301 0 -14.333 0.333008 -21 1c-30.667 3.33301 -58 10.666 -82 21.999c-44 21.333 -73 53 -87 95c-4.66699 13.333 -7 26.333 -7 39
c0 27.333 10.333 53 31 77c20 24 51.333 44 94 60c42 16.667 97.667 25.667 167 27c12.667 -1.33301 21.667 -8.66602 27 -21.999c1.33301 -3.33301 2 -6.33301 2 -9c0 -8.66699 -5.66699 -15.334 -17 -20.001c-55.333 -2 -100.333 -9 -135 -21s-61 -26.667 -79 -44
c-26 -26.667 -34.333 -55 -25 -85c9.33301 -30.667 31.333 -53.667 66 -69c18 -8 39.667 -13 65 -15c5.33301 -0.666992 10.666 -1 15.999 -1c-1.33301 33.333 -2.33301 64.666 -3 93.999c-2 42 -3 70.667 -3 86c7.33301 8 18 12 32 12c13.333 0 20.666 -5.33301 21.999 -16
c0.666992 -2.66699 1 -10 1 -22c0.666992 -11.333 1 -26 1 -44c0.666992 -28.667 1 -63 1 -103zM398.001 83.0029c-1.33301 -12 -6.66797 -18.001 -16.001 -18.001h-5c-13.333 2.66699 -23.333 9 -30 19c-1.33301 7.33301 -2.66602 19 -3.99902 35
c-1.33301 15.333 -2.66602 33.333 -3.99902 54c-2.66699 38.667 -5.33398 84 -8.00098 136l-6 152c-2 51.333 -3.66699 97.666 -5 138.999c-0.666992 23.333 -1 42.333 -1 57c0 11.333 0.333008 20.333 1 27c3.33301 6 8 9 14 9h3c7.33301 -1.33301 13 -5.66602 17 -12.999
c0 -6 2 -34.667 6 -86l13 -172l6 -82c2.66699 -28 5 -54.667 7 -80c3.33301 -47.333 6.33301 -87.666 9 -120.999c2 -33.333 3 -52 3 -56z" />
    <glyph glyph-name="guillemotright" unicode="&#xbb;" horiz-adv-x="511" 
d="M255 548c4 -10 16.666 -24.667 37.999 -44l71 -62l90 -74c28 -23.333 42.333 -38.666 43 -45.999v0c0 -4.66699 -8.33301 -17 -25 -37l-60 -69l-84 -92c-27.333 -30 -43.666 -49.667 -48.999 -59c-2 -0.666992 -4 -1 -6 -1c-8.66699 0 -14.334 4.66699 -17.001 14
c-3.33301 12 -2.66602 23.667 2.00098 35c10 9.33301 21.333 20.666 34 33.999l38 39l66 71c20 22.667 32 37 36 43c-1.33301 5.33301 -16 17.333 -44 36l-90 60l-52 34l-44 31c-2 5.33301 -3 11.333 -3 18c0 7.33301 1 15.666 3 24.999c3.33301 16.667 10 29.334 20 38.001
c4.66699 4 9.66699 6.33301 15 7c2 0.666992 4 1 6 1c4 0 8 -0.666992 12 -2zM56.999 515c4 -4.66699 17.333 -15.667 40 -33l75 -59l94 -76c29.333 -24.667 44.333 -40.667 45 -48h1c0 -4.66699 -7.33301 -15.667 -22 -33c-15.333 -17.333 -33.333 -36.333 -54 -57l-75 -77
c-24.667 -24.667 -40 -41 -46 -49c-2 -0.666992 -4.33301 -1 -7 -1c-9.33301 0 -17.333 4.66699 -24 14c-8.66699 11.333 -5 22.333 11 33l35 32l40 34l70 58c21.333 18 34.333 29.667 39 35c-2 5.33301 -17.333 15.333 -46 30l-95 49l-67 37c-22 12 -40.333 23.333 -55 34
c-2 8 -3 16.667 -3 26s1 19.333 3 30c4 16 12.333 24 25 24c4.66699 0 10 -1 16 -3z" />
    <glyph glyph-name="questiondown" unicode="&#xbf;" horiz-adv-x="380" 
d="M371 178c-0.666992 18.667 -8.66504 33.665 -23.998 44.998c-15.333 10.667 -30 13 -44 7c-6 -2.66699 -11 -7.33398 -15 -14.001c-4.66699 -6 -8 -14.667 -10 -26c2 -14 -0.666992 -29 -8 -45c-6.66699 -15.333 -16.334 -29.666 -29.001 -42.999
c-18 -20 -39.667 -35.333 -65 -46c-24.667 -10 -46.334 -8.66699 -65.001 4c-26 16.667 -35.667 43.667 -29 81c6.66699 36.667 21.334 73 44.001 109c14.667 24 31.334 46 50.001 66c18 20 35.667 35 53 45c12.667 8 22.667 18 30 30c6.66699 12.667 11.667 26 15 40
c6 26 8.33301 51.667 7 77c-0.666992 26 2.33301 43.333 9 52c-2 16 -12 25.667 -30 29c-2.66699 0.666992 -5 1 -7 1c-13.333 0 -22 -8.66699 -26 -26c1.33301 -11.333 3.66602 -27.333 6.99902 -48c3.33301 -21.333 2.33301 -42 -3 -62
c-2.66699 -10 -7.33398 -19.333 -14.001 -28s-15.667 -15 -27 -19c-41.333 -16 -78.666 -45.667 -111.999 -89s-52 -89 -56 -137v-14c0 -21.333 3.66699 -41.666 11 -60.999c8.66699 -24.667 24.667 -47 48 -67c16.667 -14.667 35 -24.667 55 -30
c15.333 -4.66699 30.666 -6.66699 45.999 -6h13c46 4 87.333 23.333 124 58c35.333 32.667 53 69.334 53 110.001c0 2.66699 -0.333008 5 -1 7zM209.002 747.998c3.33301 12 10.665 20.665 21.998 25.998c8.66699 4.66699 17.334 7 26.001 7h6
c11.333 -2 17.333 -8.66699 18 -20s3.33398 -19.666 8.00098 -24.999c-2 -13.333 -8.33301 -25.333 -19 -36c-8.66699 -10 -17.334 -15 -26.001 -15c-1.33301 0 -2.66602 0.333008 -3.99902 1c-12 1.33301 -21 9 -27 23c-4 8.66699 -6 17 -6 25
c0 4.66699 0.666992 9.33398 2 14.001z" />
    <glyph glyph-name="Agrave" unicode="&#xc0;" 
d="M43 783c4.66699 8 10.6641 11.9961 17.9971 11.9961c4.66699 0 10.334 -1.66699 17.001 -5c15.333 -8.66699 23.666 -18 24.999 -28c2.66699 -10.667 5 -27 7 -49c2 -21.333 3.66699 -44.333 5 -69c2 -38 3.66699 -73.333 5 -106c1.33301 -33.333 3 -50.333 5 -51
c0.666992 3.33301 2.33398 9.33301 5.00098 18c2 8.66699 4.66699 18.667 8 30l24 77c10 28.667 21.333 56.334 34 83.001s26.667 49.334 42 68.001c14.667 18.667 30.334 27.667 47.001 27c33.333 -1.33301 59 -22.333 77 -63s31.333 -90.667 40 -150
c4.66699 -32 8 -65.667 10 -101s3.33301 -71 4 -107c0.666992 -28 1 -55.667 1 -83v-73c-1.33301 -50 -2.33301 -92 -3 -126v-48c0 -13.333 0.666992 -22.666 2 -27.999c-7.33301 -13.333 -21.666 -20 -42.999 -20c-4.66699 0 -9.66699 0.333008 -15 1
c-29.333 3.33301 -49 15 -59 35c-6 35.333 -8.66699 83.666 -8 144.999c0 25.333 0.333008 51.333 1 78c-3.33301 0 -6.66602 -0.333008 -9.99902 -1c-33.333 -4 -67 -10.333 -101 -19c-14 -3.33301 -27 -6.66602 -39 -9.99902c0 -2 0.333008 -4 1 -6
c6 -55.333 10.333 -116.666 13 -183.999c-4.66699 -13.333 -22.334 -17.333 -53.001 -12s-48.667 19 -54 41c-12 64 -20 126.333 -24 187c-3.33301 50 -5 97.333 -5 142v30c2 100.667 7.66699 184.667 17 252s11.333 105 6 113zM187.997 254.996
c34 6.66699 68.334 11.999 103.001 15.999h1c0.666992 30.667 1.66699 62 3 94c1.33301 34.667 2.33301 69.334 3 104.001c1.33301 34.667 2.33301 67.667 3 99c0.666992 58 -0.333008 106.333 -3 145c-2 38.667 -8 58.667 -18 60c-10.667 0.666992 -23.334 -12 -38.001 -38
s-29.334 -57.333 -44.001 -94c-18 -44 -33.667 -88.667 -47 -134c-14 -46 -21.333 -77 -22 -93c2.66699 -64.667 6.33398 -121.667 11.001 -171zM205.998 893.995c-1.33301 3.33301 -1.99902 6.99902 -1.99902 10.999c-0.666992 8.66699 3 17.334 11 26.001
c10 11.333 21 17 33 17h2c17.333 -10 31.333 -22.667 42 -38l35 -49c4 -10 6 -20.333 6 -31v-1c0 -12 -5.33301 -18 -16 -18c-6.66699 1.33301 -13.334 4 -20.001 8c-6 4 -12.333 8.66699 -19 14c-14.667 12 -28.667 25.333 -42 40c-12.667 14.667 -22.667 21.667 -30 21z
" />
    <glyph glyph-name="Aacute" unicode="&#xc1;" 
d="M43 783c4.66699 8 10.6641 11.9961 17.9971 11.9961c4.66699 0 10.334 -1.66699 17.001 -5c15.333 -8.66699 23.666 -18 24.999 -28c2.66699 -10.667 5 -27 7 -49c2 -21.333 3.66699 -44.333 5 -69c2 -38 3.66699 -73.333 5 -106c1.33301 -33.333 3 -50.333 5 -51
c0.666992 3.33301 2.33398 9.33301 5.00098 18c2 8.66699 4.66699 18.667 8 30l24 77c10 28.667 21.333 56.334 34 83.001s26.667 49.334 42 68.001c14.667 18.667 30.334 27.667 47.001 27c33.333 -1.33301 59 -22.333 77 -63s31.333 -90.667 40 -150
c4.66699 -32 8 -65.667 10 -101s3.33301 -71 4 -107c0.666992 -28 1 -55.667 1 -83v-73c-1.33301 -50 -2.33301 -92 -3 -126v-48c0 -13.333 0.666992 -22.666 2 -27.999c-7.33301 -13.333 -21.666 -20 -42.999 -20c-4.66699 0 -9.66699 0.333008 -15 1
c-29.333 3.33301 -49 15 -59 35c-6 35.333 -8.66699 83.666 -8 144.999c0 25.333 0.333008 51.333 1 78c-3.33301 0 -6.66602 -0.333008 -9.99902 -1c-33.333 -4 -67 -10.333 -101 -19c-14 -3.33301 -27 -6.66602 -39 -9.99902c0 -2 0.333008 -4 1 -6
c6 -55.333 10.333 -116.666 13 -183.999c-4.66699 -13.333 -22.334 -17.333 -53.001 -12s-48.667 19 -54 41c-12 64 -20 126.333 -24 187c-3.33301 50 -5 97.333 -5 142v30c2 100.667 7.66699 184.667 17 252s11.333 105 6 113zM187.997 254.996
c34 6.66699 68.334 11.999 103.001 15.999h1c0.666992 30.667 1.66699 62 3 94c1.33301 34.667 2.33301 69.334 3 104.001c1.33301 34.667 2.33301 67.667 3 99c0.666992 58 -0.333008 106.333 -3 145c-2 38.667 -8 58.667 -18 60c-10.667 0.666992 -23.334 -12 -38.001 -38
s-29.334 -57.333 -44.001 -94c-18 -44 -33.667 -88.667 -47 -134c-14 -46 -21.333 -77 -22 -93c2.66699 -64.667 6.33398 -121.667 11.001 -171zM249.998 809.995c-11.333 0 -17 6.00195 -17 18.002v1c0 10.667 2.33301 21 7 31l34 49c10.667 15.333 24.667 28 42 38h2
c12 0 23 -5.66699 33 -17c8 -8.66699 12 -17.334 12 -26.001c0 -4 -1 -8 -3 -12c-7.33301 1.33301 -17.333 -5.33398 -30 -20.001c-13.333 -14.667 -27.333 -28 -42 -40c-6 -6 -12.333 -10.667 -19 -14c-6.66699 -4 -13 -6.66699 -19 -8z" />
    <glyph glyph-name="Acircumflex" unicode="&#xc2;" 
d="M43 783c4.66699 8 10.6641 11.9961 17.9971 11.9961c4.66699 0 10.334 -1.66699 17.001 -5c15.333 -8.66699 23.666 -18 24.999 -28c2.66699 -10.667 5 -27 7 -49c2 -21.333 3.66699 -44.333 5 -69c2 -38 3.66699 -73.333 5 -106c1.33301 -33.333 3 -50.333 5 -51
c0.666992 3.33301 2.33398 9.33301 5.00098 18c2 8.66699 4.66699 18.667 8 30l24 77c10 28.667 21.333 56.334 34 83.001s26.667 49.334 42 68.001c14.667 18.667 30.334 27.667 47.001 27c33.333 -1.33301 59 -22.333 77 -63s31.333 -90.667 40 -150
c4.66699 -32 8 -65.667 10 -101s3.33301 -71 4 -107c0.666992 -28 1 -55.667 1 -83v-73c-1.33301 -50 -2.33301 -92 -3 -126v-48c0 -13.333 0.666992 -22.666 2 -27.999c-7.33301 -13.333 -21.666 -20 -42.999 -20c-4.66699 0 -9.66699 0.333008 -15 1
c-29.333 3.33301 -49 15 -59 35c-6 35.333 -8.66699 83.666 -8 144.999c0 25.333 0.333008 51.333 1 78c-3.33301 0 -6.66602 -0.333008 -9.99902 -1c-33.333 -4 -67 -10.333 -101 -19c-14 -3.33301 -27 -6.66602 -39 -9.99902c0 -2 0.333008 -4 1 -6
c6 -55.333 10.333 -116.666 13 -183.999c-4.66699 -13.333 -22.334 -17.333 -53.001 -12s-48.667 19 -54 41c-12 64 -20 126.333 -24 187c-3.33301 50 -5 97.333 -5 142v30c2 100.667 7.66699 184.667 17 252s11.333 105 6 113zM187.997 254.996
c34 6.66699 68.334 11.999 103.001 15.999h1c0.666992 30.667 1.66699 62 3 94c1.33301 34.667 2.33301 69.334 3 104.001c1.33301 34.667 2.33301 67.667 3 99c0.666992 58 -0.333008 106.333 -3 145c-2 38.667 -8 58.667 -18 60c-10.667 0.666992 -23.334 -12 -38.001 -38
s-29.334 -57.333 -44.001 -94c-18 -44 -33.667 -88.667 -47 -134c-14 -46 -21.333 -77 -22 -93c2.66699 -64.667 6.33398 -121.667 11.001 -171zM165.998 852.995c5.33301 1.33301 12.999 6.66895 22.999 16.002c9.33301 9.33301 19 19.666 29 30.999l35 41
c10.667 12 18 18 22 18c2.66699 0 9.33398 -7 20.001 -21l33 -46l26 -37c8.66699 -11.333 14.667 -18.333 18 -21v-1c0 -5.33301 -5.33301 -8 -16 -8c-11.333 0.666992 -19.666 2.66699 -24.999 6c-13.333 17.333 -24 34.666 -32 51.999c-8 16.667 -14 27 -18 31
c-4 -2 -9 -14 -15 -36c-5.33301 -22 -16 -41.333 -32 -58c-2 -0.666992 -4.33301 -1 -7 -1c-8.66699 0 -21.334 2.66699 -38.001 8c-16 4.66699 -24.333 11 -25 19c0 2.66699 0.666992 5 2 7z" />
    <glyph glyph-name="Atilde" unicode="&#xc3;" 
d="M43 783c4.66699 8 10.6641 11.9961 17.9971 11.9961c4.66699 0 10.334 -1.66699 17.001 -5c15.333 -8.66699 23.666 -18 24.999 -28c2.66699 -10.667 5 -27 7 -49c2 -21.333 3.66699 -44.333 5 -69c2 -38 3.66699 -73.333 5 -106c1.33301 -33.333 3 -50.333 5 -51
c0.666992 3.33301 2.33398 9.33301 5.00098 18c2 8.66699 4.66699 18.667 8 30l24 77c10 28.667 21.333 56.334 34 83.001s26.667 49.334 42 68.001c14.667 18.667 30.334 27.667 47.001 27c33.333 -1.33301 59 -22.333 77 -63s31.333 -90.667 40 -150
c4.66699 -32 8 -65.667 10 -101s3.33301 -71 4 -107c0.666992 -28 1 -55.667 1 -83v-73c-1.33301 -50 -2.33301 -92 -3 -126v-48c0 -13.333 0.666992 -22.666 2 -27.999c-7.33301 -13.333 -21.666 -20 -42.999 -20c-4.66699 0 -9.66699 0.333008 -15 1
c-29.333 3.33301 -49 15 -59 35c-6 35.333 -8.66699 83.666 -8 144.999c0 25.333 0.333008 51.333 1 78c-3.33301 0 -6.66602 -0.333008 -9.99902 -1c-33.333 -4 -67 -10.333 -101 -19c-14 -3.33301 -27 -6.66602 -39 -9.99902c0 -2 0.333008 -4 1 -6
c6 -55.333 10.333 -116.666 13 -183.999c-4.66699 -13.333 -22.334 -17.333 -53.001 -12s-48.667 19 -54 41c-12 64 -20 126.333 -24 187c-3.33301 50 -5 97.333 -5 142v30c2 100.667 7.66699 184.667 17 252s11.333 105 6 113zM187.997 254.996
c34 6.66699 68.334 11.999 103.001 15.999h1c0.666992 30.667 1.66699 62 3 94c1.33301 34.667 2.33301 69.334 3 104.001c1.33301 34.667 2.33301 67.667 3 99c0.666992 58 -0.333008 106.333 -3 145c-2 38.667 -8 58.667 -18 60c-10.667 0.666992 -23.334 -12 -38.001 -38
s-29.334 -57.333 -44.001 -94c-18 -44 -33.667 -88.667 -47 -134c-14 -46 -21.333 -77 -22 -93c2.66699 -64.667 6.33398 -121.667 11.001 -171zM112.998 849.995c-1.33301 5.33301 -1.99805 10.9961 -1.99805 16.9961c0 10 1.33301 21.333 4 34
c4 20.667 15.333 33.667 34 39c7.33301 2.66699 17 2 29 -2c12 -3.33301 24.667 -7.66602 38 -12.999l56 -26c18.667 -8 30.334 -10.333 35.001 -7c7.33301 4.66699 6.66602 11 -2.00098 19c-8 8 -14.667 13.333 -20 16c-2.66699 7.33301 1 14.666 11 21.999
c9.33301 6.66699 18.333 10 27 10h4c10 -3.33301 18.667 -9.66602 26 -18.999s13.333 -20 18 -32c4.66699 -14 7 -28 7 -42v-11c-2 -18 -9 -30.333 -21 -37c-10.667 -6 -21.334 -9 -32.001 -9c-1.33301 0 -2.66602 0.333008 -3.99902 1
c-12.667 0.666992 -25 3.33398 -37 8.00098c-18.667 8 -36.334 18.667 -53.001 32l-44 35l-17 12c-4.66699 2.66699 -8.33398 3.33398 -11.001 2.00098c-8 -2.66699 -13.667 -9.33398 -17 -20.001c-4 -11.333 -1.66699 -18.666 7 -21.999c0 -10.667 -5 -16.667 -15 -18
c-9.33301 -1.33301 -16.333 2.33398 -21 11.001z" />
    <glyph glyph-name="Adieresis" unicode="&#xc4;" 
d="M43 783c4.66699 8 10.6641 11.9961 17.9971 11.9961c4.66699 0 10.334 -1.66699 17.001 -5c15.333 -8.66699 23.666 -18 24.999 -28c2.66699 -10.667 5 -27 7 -49c2 -21.333 3.66699 -44.333 5 -69c2 -38 3.66699 -73.333 5 -106c1.33301 -33.333 3 -50.333 5 -51
c0.666992 3.33301 2.33398 9.33301 5.00098 18c2 8.66699 4.66699 18.667 8 30l24 77c10 28.667 21.333 56.334 34 83.001s26.667 49.334 42 68.001c14.667 18.667 30.334 27.667 47.001 27c33.333 -1.33301 59 -22.333 77 -63s31.333 -90.667 40 -150
c4.66699 -32 8 -65.667 10 -101s3.33301 -71 4 -107c0.666992 -28 1 -55.667 1 -83v-73c-1.33301 -50 -2.33301 -92 -3 -126v-48c0 -13.333 0.666992 -22.666 2 -27.999c-7.33301 -13.333 -21.666 -20 -42.999 -20c-4.66699 0 -9.66699 0.333008 -15 1
c-29.333 3.33301 -49 15 -59 35c-6 35.333 -8.66699 83.666 -8 144.999c0 25.333 0.333008 51.333 1 78c-3.33301 0 -6.66602 -0.333008 -9.99902 -1c-33.333 -4 -67 -10.333 -101 -19c-14 -3.33301 -27 -6.66602 -39 -9.99902c0 -2 0.333008 -4 1 -6
c6 -55.333 10.333 -116.666 13 -183.999c-4.66699 -13.333 -22.334 -17.333 -53.001 -12s-48.667 19 -54 41c-12 64 -20 126.333 -24 187c-3.33301 50 -5 97.333 -5 142v30c2 100.667 7.66699 184.667 17 252s11.333 105 6 113zM187.997 254.996
c34 6.66699 68.334 11.999 103.001 15.999h1c0.666992 30.667 1.66699 62 3 94c1.33301 34.667 2.33301 69.334 3 104.001c1.33301 34.667 2.33301 67.667 3 99c0.666992 58 -0.333008 106.333 -3 145c-2 38.667 -8 58.667 -18 60c-10.667 0.666992 -23.334 -12 -38.001 -38
s-29.334 -57.333 -44.001 -94c-18 -44 -33.667 -88.667 -47 -134c-14 -46 -21.333 -77 -22 -93c2.66699 -64.667 6.33398 -121.667 11.001 -171zM331.998 910.995l4.99805 -0.00195312c8.66699 0 17.334 -4.66699 26.001 -14c10 -11.333 16 -23.333 18 -36
c-4.66699 -6 -7 -14.667 -7 -26c-0.666992 -11.333 -6.66699 -17.666 -18 -18.999c-2 -0.666992 -4.33301 -1 -7 -1c-8 0 -16.333 2.33301 -25 7c-11.333 5.33301 -18.666 14 -21.999 26c-1.33301 4.66699 -2 9.33398 -2 14.001c0 8 2 16.333 6 25c6 14 14.667 22 26 24z
M179.996 851.993c-0.666992 1.33301 -1.00293 2.66895 -1.00293 4.00195c0 8.66699 4.33301 18 13 28c10 11.333 21.333 17 34 17c2 -9.33301 8.33301 -15.333 19 -18s16.334 -9.33398 17.001 -20.001v-3c0 -8.66699 -2.66699 -18.334 -8 -29.001
s-13.666 -16.667 -24.999 -18c-2 -0.666992 -3.66699 -1 -5 -1c-10 0 -19.333 4.33301 -28 13c-9.33301 10 -14.666 19 -15.999 27z" />
    <glyph glyph-name="Aring" unicode="&#xc5;" 
d="M43 783c4.66699 8 10.6641 11.9961 17.9971 11.9961c4.66699 0 10.334 -1.66699 17.001 -5c15.333 -8.66699 23.666 -18 24.999 -28c2.66699 -10.667 5 -27 7 -49c2 -21.333 3.66699 -44.333 5 -69c2 -38 3.66699 -73.333 5 -106c1.33301 -33.333 3 -50.333 5 -51
c0.666992 3.33301 2.33398 9.33301 5.00098 18c2 8.66699 4.66699 18.667 8 30l24 77c10 28.667 21.333 56.334 34 83.001s26.667 49.334 42 68.001c14.667 18.667 30.334 27.667 47.001 27c33.333 -1.33301 59 -22.333 77 -63s31.333 -90.667 40 -150
c4.66699 -32 8 -65.667 10 -101s3.33301 -71 4 -107c0.666992 -28 1 -55.667 1 -83v-73c-1.33301 -50 -2.33301 -92 -3 -126v-48c0 -13.333 0.666992 -22.666 2 -27.999c-7.33301 -13.333 -21.666 -20 -42.999 -20c-4.66699 0 -9.66699 0.333008 -15 1
c-29.333 3.33301 -49 15 -59 35c-6 35.333 -8.66699 83.666 -8 144.999c0 25.333 0.333008 51.333 1 78c-3.33301 0 -6.66602 -0.333008 -9.99902 -1c-33.333 -4 -67 -10.333 -101 -19c-14 -3.33301 -27 -6.66602 -39 -9.99902c0 -2 0.333008 -4 1 -6
c6 -55.333 10.333 -116.666 13 -183.999c-4.66699 -13.333 -22.334 -17.333 -53.001 -12s-48.667 19 -54 41c-12 64 -20 126.333 -24 187c-3.33301 50 -5 97.333 -5 142v30c2 100.667 7.66699 184.667 17 252s11.333 105 6 113zM187.997 254.996
c34 6.66699 68.334 11.999 103.001 15.999h1c0.666992 30.667 1.66699 62 3 94c1.33301 34.667 2.33301 69.334 3 104.001c1.33301 34.667 2.33301 67.667 3 99c0.666992 58 -0.333008 106.333 -3 145c-2 38.667 -8 58.667 -18 60c-10.667 0.666992 -23.334 -12 -38.001 -38
s-29.334 -57.333 -44.001 -94c-18 -44 -33.667 -88.667 -47 -134c-14 -46 -21.333 -77 -22 -93c2.66699 -64.667 6.33398 -121.667 11.001 -171zM261.998 937.995c4.66699 0.666992 9.00195 -2.33594 13.002 -9.00293v3c-0.666992 8.66699 1.66602 12.667 6.99902 12h6
c28 0 46.333 -12.667 55 -38c3.33301 -10 5 -19.333 5 -28c0 -16.667 -5.66699 -31.667 -17 -45c-6 -6.66699 -13.667 -12.667 -23 -18c-8.66699 -4.66699 -19.334 -7.66699 -32.001 -9c-2.66699 -0.666992 -5.33398 -1 -8.00098 -1c-8 0 -15 1.33301 -21 4
c-9.33301 2.66699 -17.333 7.33398 -24 14.001c-12 10.667 -19.667 24.667 -23 42c-0.666992 4 -1 8 -1 12c0 12.667 3.66699 24.334 11 35.001c5.33301 6.66699 12 12.334 20 17.001c8.66699 4.66699 19.334 7.66699 32.001 9zM273 898.992
c-16 0.666992 -20.667 -9.66504 -14 -30.998s17.667 -30.333 33 -27c13.333 2.66699 22 12.667 26 30s1.66699 30.666 -7 39.999c-3.33301 3.33301 -7.33301 6 -12 8c-4 1.33301 -9.33301 1.66602 -16 0.999023c-2 -0.666992 -3.33301 -0.666992 -4 0
c3.33301 -10 1.33301 -17 -6 -21z" />
    <glyph glyph-name="AE" unicode="&#xc6;" horiz-adv-x="694" 
d="M46 783c5.33301 8 11.6621 11.9961 18.9951 11.9961c4.66699 0 10.334 -1.66699 17.001 -5c15.333 -8.66699 23.666 -18 24.999 -28c2.66699 -10.667 5 -27 7 -49c2 -21.333 3.66699 -44.333 5 -69c2 -38 3.66699 -73.333 5 -106
c1.33301 -33.333 2.66602 -50.333 3.99902 -51c1.33301 3.33301 3.33301 9.33301 6 18c2 8.66699 4.66699 18.667 8 30l24 77c10 28.667 21.333 56.334 34 83.001s26.667 49.334 42 68.001c14.667 18.667 30.334 27.667 47.001 27c27.333 -1.33301 49 -16 65 -44
c16.667 -28 29.334 -64.333 38.001 -109c1.33301 -6.66699 2.33301 -13.334 3 -20.001c4 16 8.33301 31.667 13 47c11.333 42 25 82 41 120c8.66699 6.66699 17.334 10 26.001 10c4 0 7.66699 -0.666992 11 -2c12.667 -3.33301 23.334 -8.66602 32.001 -15.999
c11.333 -4.66699 33 -6.66699 65 -6s61 2.66699 87 6c4.66699 0 7.66699 -1.66699 9 -5v-3c0 -2 -0.666992 -4 -2 -6c-25.333 -11.333 -53 -18 -83 -20c-30.667 -1.33301 -52 -3.66602 -64 -6.99902c-2.66699 -5.33301 -6 -23.333 -10 -54
c-4 -31.333 -7.66699 -68.333 -11 -111c-2 -22.667 -4 -46.667 -6 -72c-2 -24.667 -3.66699 -49.667 -5 -75c-4 -57.333 -6.66699 -109 -8 -155c-2 -46 -1.66699 -72.333 1 -79c5.33301 -4.66699 22 -4.33398 50 0.999023c28 6 51.667 14.667 71 26
c7.33301 0 11.333 -3.66699 12 -11s-1.33301 -13.666 -6 -18.999c-21.333 -14 -44.333 -22.333 -69 -25c-25.333 -3.33301 -42.333 -6 -51 -8c-2.66699 -3.33301 -2.66699 -12.333 0 -27c2 -14.667 5.33301 -30 10 -46c3.33301 -12.667 7.66602 -23.667 12.999 -33
c4.66699 -10 9.33398 -15.333 14.001 -16c8.66699 -0.666992 27 4 55 14s52 19.667 72 29c1.33301 -2 2.33301 -4.66699 3 -8s-0.333008 -7 -3 -11c-21.333 -12.667 -46.333 -24.667 -75 -36c-28 -12 -47 -19 -57 -21c-6.66699 -1.33301 -13.334 -2 -20.001 -2
c-16 0 -34 3 -54 9c-26 8.66699 -44 19.667 -54 33c0 -16 0.666992 -27 2 -33c-9.33301 -11.333 -21.666 -17 -36.999 -17c-5.33301 0 -10.666 0.666992 -15.999 2c-22 4.66699 -38.333 17 -49 37c-5.33301 35.333 -7.66602 83.666 -6.99902 144.999
c0 25.333 0.333008 51.333 1 78c-3.33301 0 -6.66602 -0.333008 -9.99902 -1c-33.333 -4 -67.333 -10.333 -102 -19c-13.333 -3.33301 -26 -6.66602 -38 -9.99902c0 -2 0.333008 -4 1 -6c6 -55.333 10.333 -116.666 13 -183.999
c-4.66699 -13.333 -22.334 -17.333 -53.001 -12s-48.667 19 -54 41c-12 64 -20 126.333 -24 187c-3.33301 50 -5 97.333 -5 142v30c2 100.667 7.66699 184.667 17 252s11 105 5 113zM191.996 254.996c34 6.66699 68.335 11.999 103.002 15.999h1
c0.666992 30.667 1.66699 62 3 94c0.666992 34.667 1.66699 69.334 3 104.001s2.33301 67.667 3 99c0.666992 58 -0.333008 106.333 -3 145c-2 38.667 -8 58.667 -18 60c-10.667 0.666992 -23.334 -12 -38.001 -38s-29.334 -57.333 -44.001 -94
c-18 -44 -33.667 -88.667 -47 -134c-14 -46 -21.667 -77 -23 -93c3.33301 -64.667 7.33301 -121.667 12 -171z" />
    <glyph glyph-name="Ccedilla" unicode="&#xc7;" horiz-adv-x="386" 
d="M184 -123c1.33301 12.667 12.6611 21.001 33.9941 25.001c20.667 3.33301 32.334 -4 35.001 -22c-2.66699 -17.333 0 -33.333 8 -48c8.66699 -14.667 20.334 -16.667 35.001 -6c11.333 8 15 20 11 36c-3.33301 16 -10.333 31.667 -21 47c-6 8 -12.667 15.667 -20 23
c-6.66699 6.66699 -13.667 12.334 -21 17.001c-6.66699 4.66699 -11 14.667 -13 30c-1.33301 8 -2.33301 14.667 -3 20c-11.333 2.66699 -22 6.33398 -32 11.001c-23.333 10.667 -44.666 25.667 -63.999 45c-34.667 36.667 -61.334 84.667 -80.001 144
c-18 60 -27.667 122 -29 186v11c0 49.333 6.33301 103.666 19 162.999c14.667 64 37.334 116.667 68.001 158c16.667 22.667 36 40 58 52c17.333 10 36.333 15 57 15c5.33301 0 10.666 -0.333008 15.999 -1c48.667 -5.33301 80.334 -26.666 95.001 -63.999
c15.333 -36.667 20.666 -82 15.999 -136c-3.33301 -8.66699 -9.66602 -15 -18.999 -19c-10 -4 -16 -0.666992 -18 10c4 21.333 5.33301 46.333 4 75c-0.666992 28 -6.66699 52 -18 72c-6 11.333 -13.333 20.333 -22 27c-9.33301 6.66699 -20.666 10.667 -33.999 12
c-21.333 0.666992 -38.333 -20.666 -51 -63.999s-21.667 -92.333 -27 -147c-3.33301 -30 -5.66602 -59.333 -6.99902 -88c-1.33301 -29.333 -2 -56 -2 -80c0 -20 1.66699 -43.333 5 -70c3.33301 -26 8 -52.667 14 -80c10.667 -50.667 25.667 -96.334 45 -137.001
c18.667 -41.333 39 -62 61 -62c11.333 0 20.666 9.33301 27.999 28s12.666 40 15.999 64c2.66699 15.333 4.33398 31 5.00098 47s0.666992 30 0 42c2.66699 5.33301 7.66699 7.33301 15 6c8 -2 12.667 -6.66699 14 -14c0 -16.667 -1 -43.334 -3 -80.001
s-10.333 -67.667 -25 -93c-6 -10.667 -14 -19.334 -24 -26.001c-9.33301 -7.33301 -20.666 -11 -33.999 -11h-1v-5c0 -6 2.33301 -10 7 -12c10.667 -4.66699 20.667 -11 30 -19c10 -8.66699 18.333 -18.334 25 -29.001c13.333 -20 20 -41.667 20 -65v-1
c0 -23.333 -10.667 -43.333 -32 -60c-8.66699 -7.33301 -18 -12 -28 -14c-6.66699 -2 -13 -3 -19 -3c-3.33301 0 -6.66602 0.333008 -9.99902 1c-22.667 2.66699 -42.667 12.667 -60 30c-16 16 -24 33.667 -24 53v6z" />
    <glyph glyph-name="Egrave" unicode="&#xc8;" horiz-adv-x="364" 
d="M120 784c8.66699 6.66699 17.3311 9.99805 25.998 9.99805c4 0 7.66699 -0.666992 11 -2c12.667 -3.33301 23.334 -8.66602 32.001 -15.999c11.333 -4.66699 33 -6.66699 65 -6s61 2.66699 87 6c4.66699 0 7.66699 -1.66699 9 -5v-3c0 -2 -0.666992 -4 -2 -6
c-25.333 -11.333 -53 -18 -83 -20c-30.667 -1.33301 -52 -3.66602 -64 -6.99902c-3.33301 -6.66699 -7.66602 -33 -12.999 -79c-4.66699 -46 -9.33398 -97.667 -14.001 -155c-2 -24.667 -3.66699 -49.667 -5 -75c-2 -24.667 -3.66699 -48.667 -5 -72
c-2 -42.667 -3.33301 -79.334 -4 -110.001c-0.666992 -31.333 0 -49.666 2 -54.999c5.33301 -4.66699 22 -4.33398 50 0.999023c28 6 51.667 14.667 71 26c7.33301 -0.666992 11.333 -4.33398 12 -11.001c0.666992 -7.33301 -1.33301 -13.666 -6 -18.999
c-21.333 -14 -44.333 -22.333 -69 -25c-25.333 -3.33301 -42.333 -6 -51 -8c-2 -2.66699 -2.33301 -9.33398 -1 -20.001c0.666992 -10.667 2.66699 -22.667 6 -36c4 -15.333 9 -30 15 -44c5.33301 -14 11 -21.333 17 -22c8.66699 -0.666992 27 4 55 14s52 19.333 72 28
c1.33301 -1.33301 2.33301 -3.66602 3 -6.99902s-0.333008 -7 -3 -11c-21.333 -12.667 -46.333 -24.667 -75 -36c-28 -12 -47 -19 -57 -21c-8 -1.33301 -16.333 -2 -25 -2c-15.333 0 -32 2 -50 6c-29.333 6.66699 -48.666 18 -57.999 34c-12 40.667 -21 83.334 -27 128.001
c-6 44 -9.33301 89 -10 135v20c0 78 7 155.667 21 233c16 84 38.667 161.333 68 232zM146.997 890.998c-1.33301 4 -1.99902 7.66602 -1.99902 10.999c0 9.33301 3.66699 18 11 26c10 11.333 21 17 33 17h2c18 -10 32.333 -22.333 43 -37l34 -50
c4.66699 -9.33301 6.66699 -19.666 6 -30.999v-1c0 -12 -5.33301 -18 -16 -18c-6.66699 1.33301 -13 4 -19 8c-6.66699 4 -13.334 8.66699 -20.001 14c-14.667 12.667 -28.334 26 -41.001 40c-13.333 14.667 -23.666 21.667 -30.999 21z" />
    <glyph glyph-name="Eacute" unicode="&#xc9;" horiz-adv-x="364" 
d="M120 784c8.66699 6.66699 17.3291 9.99707 25.9961 9.99707c4 0 7.66699 -0.666992 11 -2c12.667 -3.33301 23.334 -8.66602 32.001 -15.999c11.333 -4.66699 33 -6.66699 65 -6s61 2.66699 87 6c4.66699 0 7.66699 -1.66699 9 -5v-3c0 -2 -0.666992 -4 -2 -6
c-25.333 -11.333 -53 -18 -83 -20c-30.667 -1.33301 -52 -3.66602 -64 -6.99902c-1.33301 -2.66699 -3 -9.66699 -5 -21c-2 -10.667 -4 -24 -6 -40c-3.33301 -30.667 -7 -68.667 -11 -114s-7.33301 -91 -10 -137c-4 -57.333 -7 -109 -9 -155
c-1.33301 -46 -0.666016 -72.333 2.00098 -79c5.33301 -4.66699 22 -4.33398 50 0.999023c28 6 51.667 14.667 71 26c7.33301 0 11.333 -3.66699 12 -11s-1.33301 -13.666 -6 -18.999c-21.333 -14 -44.333 -22.333 -69 -25c-25.333 -3.33301 -42.333 -6 -51 -8
c-2.66699 -3.33301 -3 -12.333 -1 -27c2.66699 -14.667 6.33398 -30 11.001 -46c3.33301 -12.667 7.66602 -23.667 12.999 -33c4.66699 -10 9.33398 -15.333 14.001 -16c8.66699 -0.666992 27 4 55 14s52 19.667 72 29c1.33301 -2 2.33301 -4.66699 3 -8
s-0.333008 -7 -3 -11c-21.333 -12.667 -46.333 -24.667 -75 -36c-28 -12 -47 -19 -57 -21c-8 -1.33301 -16.333 -2 -25 -2c-15.333 0 -32 2 -50 6c-29.333 6.66699 -48.666 18 -57.999 34c-12 40.667 -21 83.334 -27 128.001c-6 44 -9.33301 89 -10 135v20
c0 78 7 155.667 21 233c16 84 38.667 161.333 68 232zM183.995 810.997c-10.667 0 -16 5.66992 -16 17.0029v1c0 11.333 2 21.666 6 30.999l35 50c10.667 15.333 24.667 27.666 42 36.999c0.666992 0.666992 1.33398 1 2.00098 1c12 0 23 -6 33 -18
c7.33301 -8 11 -16.333 11 -25c0 -4 -0.666992 -8 -2 -12c-7.33301 0.666992 -17.666 -6 -30.999 -20c-12.667 -14.667 -26.334 -28.334 -41.001 -41.001c-6.66699 -5.33301 -13.334 -10 -20.001 -14c-6 -4 -12.333 -6.33301 -19 -7z" />
    <glyph glyph-name="Ecircumflex" unicode="&#xca;" horiz-adv-x="364" 
d="M120 784c8.66699 6.66699 17.3291 9.99707 25.9961 9.99707c4 0 7.66699 -0.666992 11 -2c12.667 -3.33301 23.334 -8.66602 32.001 -15.999c11.333 -4.66699 33 -6.66699 65 -6s61 2.66699 87 6c4.66699 0 7.66699 -1.66699 9 -5v-3c0 -2 -0.666992 -4 -2 -6
c-25.333 -11.333 -53 -18 -83 -20c-30.667 -1.33301 -52 -3.66602 -64 -6.99902c-1.33301 -2.66699 -3 -9.66699 -5 -21c-2 -10.667 -4 -24 -6 -40c-3.33301 -30.667 -7 -68.667 -11 -114s-7.33301 -91 -10 -137c-4 -57.333 -7 -109 -9 -155
c-1.33301 -46 -0.666016 -72.333 2.00098 -79c5.33301 -4.66699 22 -4.33398 50 0.999023c28 6 51.667 14.667 71 26c7.33301 0 11.333 -3.66699 12 -11s-1.33301 -13.666 -6 -18.999c-21.333 -14 -44.333 -22.333 -69 -25c-25.333 -3.33301 -42.333 -6 -51 -8
c-2.66699 -3.33301 -3 -12.333 -1 -27c2.66699 -14.667 6.33398 -30 11.001 -46c3.33301 -12.667 7.66602 -23.667 12.999 -33c4.66699 -10 9.33398 -15.333 14.001 -16c8.66699 -0.666992 27 4 55 14s52 19.667 72 29c1.33301 -2 2.33301 -4.66699 3 -8
s-0.333008 -7 -3 -11c-21.333 -12.667 -46.333 -24.667 -75 -36c-28 -12 -47 -19 -57 -21c-8 -1.33301 -16.333 -2 -25 -2c-15.333 0 -32 2 -50 6c-29.333 6.66699 -48.666 18 -57.999 34c-12 40.667 -21 83.334 -27 128.001c-6 44 -9.33301 89 -10 135v20
c0 78 7 155.667 21 233c16 84 38.667 161.333 68 232zM125.995 850.997c5.33301 1.33301 12.668 6.66895 22.001 16.002s19 19.666 29 30.999l35 41c11.333 12.667 18.666 18.667 21.999 18c2.66699 0 7.66699 -4.66699 15 -14c8 -10 16.667 -21.667 26 -35l33 -47
c11.333 -16 19.333 -25.667 24 -29v-1c0 -5.33301 -5.33301 -8 -16 -8c-11.333 0.666992 -20 2.66699 -26 6c-12.667 17.333 -23 34.666 -31 51.999c-8 16.667 -14.333 27 -19 31c-4 -2 -8.66699 -14 -14 -36c-6 -21.333 -17 -40.666 -33 -57.999h-6
c-9.33301 -0.666992 -22 1.66602 -38 6.99902c-16.667 4.66699 -25 11 -25 19c0 2.66699 0.666992 5 2 7z" />
    <glyph glyph-name="Edieresis" unicode="&#xcb;" horiz-adv-x="364" 
d="M120 784c8.66699 6.66699 17.3291 9.99707 25.9961 9.99707c4 0 7.66699 -0.666992 11 -2c12.667 -3.33301 23.334 -8.66602 32.001 -15.999c11.333 -4.66699 33 -6.66699 65 -6s61 2.66699 87 6c4.66699 0 7.66699 -1.66699 9 -5v-3c0 -2 -0.666992 -4 -2 -6
c-25.333 -11.333 -53 -18 -83 -20c-30.667 -1.33301 -52 -3.66602 -64 -6.99902c-1.33301 -2.66699 -3 -9.66699 -5 -21c-2 -10.667 -4 -24 -6 -40c-3.33301 -30.667 -7 -68.667 -11 -114s-7.33301 -91 -10 -137c-4 -57.333 -7 -109 -9 -155
c-1.33301 -46 -0.666016 -72.333 2.00098 -79c5.33301 -4.66699 22 -4.33398 50 0.999023c28 6 51.667 14.667 71 26c7.33301 0 11.333 -3.66699 12 -11s-1.33301 -13.666 -6 -18.999c-21.333 -14 -44.333 -22.333 -69 -25c-25.333 -3.33301 -42.333 -6 -51 -8
c-2.66699 -3.33301 -3 -12.333 -1 -27c2.66699 -14.667 6.33398 -30 11.001 -46c3.33301 -12.667 7.66602 -23.667 12.999 -33c4.66699 -10 9.33398 -15.333 14.001 -16c8.66699 -0.666992 27 4 55 14s52 19.667 72 29c1.33301 -2 2.33301 -4.66699 3 -8
s-0.333008 -7 -3 -11c-21.333 -12.667 -46.333 -24.667 -75 -36c-28 -12 -47 -19 -57 -21c-8 -1.33301 -16.333 -2 -25 -2c-15.333 0 -32 2 -50 6c-29.333 6.66699 -48.666 18 -57.999 34c-12 40.667 -21 83.334 -27 128.001c-6 44 -9.33301 89 -10 135v20
c0 78 7 155.667 21 233c16 84 38.667 161.333 68 232zM203.995 858.997c-3.33301 -12 -10.666 -20.6631 -21.999 -25.9961c-9.33301 -4.66699 -18 -7 -26 -7c-2 0 -4 0.333008 -6 1c-11.333 1.33301 -17.333 7.66602 -18 18.999s-3.33398 19.666 -8.00098 24.999
c2 13.333 8 25.666 18 36.999c9.33301 9.33301 18.333 14 27 14h4c12 -2 21 -10 27 -24c3.33301 -8.66699 5.33301 -17 6 -25c0 -4.66699 -0.666992 -9.33398 -2 -14.001zM276.995 823.001c-11.333 1.33301 -20.002 7.66504 -26.002 18.998c-5.33301 10 -8 19.667 -8 29v3
c0.666992 10 6.33398 16.667 17.001 20c10.667 2.66699 17.334 8.33398 20.001 17.001c12.667 0.666992 23.667 -4.66602 33 -15.999c8.66699 -10.667 13 -20 13 -28v-4c-1.33301 -8 -6.66602 -17 -15.999 -27c-8.66699 -8.66699 -18.334 -13 -29.001 -13h-4z" />
    <glyph glyph-name="Igrave" unicode="&#xcc;" horiz-adv-x="304" 
d="M217 779c8 0 11.002 -2.33105 9.00195 -6.99805s-4.66699 -8.66699 -8 -12c-19.333 -0.666992 -35 -0.333984 -47 0.999023c-12.667 1.33301 -20.667 1.33301 -24 0l22 -138l21 -130c11.333 -78.667 19.666 -155.667 24.999 -231s4 -153.666 -4 -234.999
c6.66699 0 16.334 -1 29.001 -3c13.333 -2 28 -4 44 -6c4 -1.33301 6 -3.66602 6 -6.99902c0 -0.666992 -0.333008 -1.33398 -1 -2.00098c-1.33301 -4 -4.33301 -7 -9 -9c-62.667 4 -110.334 7.66699 -143.001 11c-33.333 3.33301 -67.333 3 -102 -1
c-2.66699 2.66699 -4 6 -4 10c0 3.33301 1.33301 6.33301 4 9c10.667 0 21.334 0.666992 32.001 2s21.667 1.33301 33 0c-2.66699 50 -4.33398 100.667 -5.00098 152v154c1.33301 93.333 2.66602 178.666 3.99902 255.999c2 77.333 1.33301 133.333 -2 168
c-9.33301 -0.666992 -21 -0.666992 -35 0s-28.667 1 -44 1c-4 2 -5.66699 4.66699 -5 8c0 3.33301 1.66699 6.66602 5 9.99902c14.667 0.666992 29 1 43 1c26 0 50.333 -0.333008 73 -1c35.333 -0.666992 63 -1 83 -1zM54.002 886.002
c-1.33301 4 -1.99902 7.99805 -1.99902 11.998c-0.666992 8.66699 3 17.334 11 26.001c10 11.333 21 17 33 17h2c17.333 -10 31.333 -22.667 42 -38l35 -49c4 -10 6 -20.667 6 -32v-1c0 -11.333 -5.33301 -17 -16 -17c-6.66699 1.33301 -13.334 4 -20.001 8
c-6 3.33301 -12.333 8 -19 14c-14.667 12 -28.667 25.333 -42 40c-12.667 14.667 -22.667 21.334 -30 20.001z" />
    <glyph glyph-name="Iacute" unicode="&#xcd;" horiz-adv-x="304" 
d="M217 779c8 0 11.002 -2.33105 9.00195 -6.99805s-4.66699 -8.66699 -8 -12c-19.333 -0.666992 -35 -0.333984 -47 0.999023c-12.667 1.33301 -20.667 1.33301 -24 0l22 -138l21 -130c11.333 -78.667 19.666 -155.667 24.999 -231s4 -153.666 -4 -234.999
c6.66699 0 16.334 -1 29.001 -3c13.333 -2 28 -4 44 -6c4 -1.33301 6 -3.66602 6 -6.99902c0 -0.666992 -0.333008 -1.33398 -1 -2.00098c-1.33301 -4 -4.33301 -7 -9 -9c-62.667 4 -110.334 7.66699 -143.001 11c-33.333 3.33301 -67.333 3 -102 -1
c-2.66699 2.66699 -4 6 -4 10c0 3.33301 1.33301 6.33301 4 9c10.667 0 21.334 0.666992 32.001 2s21.667 1.33301 33 0c-2.66699 50 -4.33398 100.667 -5.00098 152v154c1.33301 93.333 2.66602 178.666 3.99902 255.999c2 77.333 1.33301 133.333 -2 168
c-9.33301 -0.666992 -21 -0.666992 -35 0s-28.667 1 -44 1c-4 2 -5.66699 4.66699 -5 8c0 3.33301 1.66699 6.66602 5 9.99902c14.667 0.666992 29 1 43 1c26 0 50.333 -0.333008 73 -1c35.333 -0.666992 63 -1 83 -1zM83.002 812.002
c-10.667 0 -16.3311 5.66895 -16.998 17.002v1c0 11.333 2.33301 21.666 7 30.999c12 18.667 23.333 35.334 34 50.001c10.667 15.333 25 28 43 38h2c12 0 23 -5.66699 33 -17c7.33301 -8.66699 11 -17.334 11 -26.001c0 -4 -0.666992 -8 -2 -12
c-8 1.33301 -18.333 -5.33398 -31 -20.001s-26.334 -28.334 -41.001 -41.001c-6.66699 -5.33301 -13.334 -10 -20.001 -14c-6.66699 -3.33301 -13 -5.66602 -19 -6.99902z" />
    <glyph glyph-name="Icircumflex" unicode="&#xce;" horiz-adv-x="304" 
d="M217 779c8 0 11.002 -2.33105 9.00195 -6.99805s-4.66699 -8.66699 -8 -12c-19.333 -0.666992 -35 -0.333984 -47 0.999023c-12.667 1.33301 -20.667 1.33301 -24 0l22 -138l21 -130c11.333 -78.667 19.666 -155.667 24.999 -231s4 -153.666 -4 -234.999
c6.66699 0 16.334 -1 29.001 -3c13.333 -2 28 -4 44 -6c4 -1.33301 6 -3.66602 6 -6.99902c0 -0.666992 -0.333008 -1.33398 -1 -2.00098c-1.33301 -4 -4.33301 -7 -9 -9c-62.667 4 -110.334 7.66699 -143.001 11c-33.333 3.33301 -67.333 3 -102 -1
c-2.66699 2.66699 -4 6 -4 10c0 3.33301 1.33301 6.33301 4 9c10.667 0 21.334 0.666992 32.001 2s21.667 1.33301 33 0c-2.66699 50 -4.33398 100.667 -5.00098 152v154c1.33301 93.333 2.66602 178.666 3.99902 255.999c2 77.333 1.33301 133.333 -2 168
c-9.33301 -0.666992 -21 -0.666992 -35 0s-28.667 1 -44 1c-4 2 -5.66699 4.66699 -5 8c0 3.33301 1.66699 6.66602 5 9.99902c14.667 0.666992 29 1 43 1c26 0 50.333 -0.333008 73 -1c35.333 -0.666992 63 -1 83 -1zM15.002 852.002c5.33301 0.666992 12.666 6 21.999 16
c10 9.33301 20 19.666 30 30.999c12 14.667 23.667 28 35 40c10.667 12.667 17.667 19 21 19c2.66699 0 8 -5 16 -15l25 -34l34 -48c10.667 -15.333 18.334 -24.666 23.001 -27.999v-1c0 -6 -5.33301 -8.66699 -16 -8c-11.333 0 -19.666 1.66699 -24.999 5
c-13.333 18 -24 35.333 -32 52c-8 17.333 -14 28 -18 32c-4 -2 -9 -14 -15 -36c-5.33301 -22 -16.333 -41.333 -33 -58c-1.33301 -0.666992 -3.33301 -1 -6 -1c-8.66699 0 -21.334 2.33301 -38.001 7c-16 5.33301 -24.333 12 -25 20c0 2 0.666992 4.33301 2 7z" />
    <glyph glyph-name="Idieresis" unicode="&#xcf;" horiz-adv-x="304" 
d="M217 779c8 0 11.002 -2.33105 9.00195 -6.99805s-4.66699 -8.66699 -8 -12c-19.333 -0.666992 -35 -0.333984 -47 0.999023c-12.667 1.33301 -20.667 1.33301 -24 0l22 -138l21 -130c11.333 -78.667 19.666 -155.667 24.999 -231s4 -153.666 -4 -234.999
c6.66699 0 16.334 -1 29.001 -3c13.333 -2 28 -4 44 -6c4 -1.33301 6 -3.66602 6 -6.99902c0 -0.666992 -0.333008 -1.33398 -1 -2.00098c-1.33301 -4 -4.33301 -7 -9 -9c-62.667 4 -110.334 7.66699 -143.001 11c-33.333 3.33301 -67.333 3 -102 -1
c-2.66699 2.66699 -4 6 -4 10c0 3.33301 1.33301 6.33301 4 9c10.667 0 21.334 0.666992 32.001 2s21.667 1.33301 33 0c-2.66699 50 -4.33398 100.667 -5.00098 152v154c1.33301 93.333 2.66602 178.666 3.99902 255.999c2 77.333 1.33301 133.333 -2 168
c-9.33301 -0.666992 -21 -0.666992 -35 0s-28.667 1 -44 1c-4 2 -5.66699 4.66699 -5 8c0 3.33301 1.66699 6.66602 5 9.99902c14.667 0.666992 29 1 43 1c26 0 50.333 -0.333008 73 -1c35.333 -0.666992 63 -1 83 -1zM159.002 870.002
c3.33301 12 10.666 20.665 21.999 25.998c8.66699 4.66699 17 7 25 7h7c10.667 -2 16.334 -8.66699 17.001 -20s3.33398 -19.666 8.00098 -24.999c-2 -13.333 -8 -25.333 -18 -36c-8.66699 -10 -17.334 -15 -26.001 -15c-2 0 -3.66699 0.333008 -5 1
c-12 1.33301 -21 9 -27 23c-3.33301 8.66699 -5 17 -5 25c0 4.66699 0.666992 9.33398 2 14.001zM85.002 906c12 -1.33301 20.668 -7.66699 26.001 -19c6 -11.333 8.66699 -21.666 8 -30.999c-0.666992 -10.667 -6.33398 -17.667 -17.001 -21
c-10.667 -2.66699 -17 -8.33398 -19 -17.001c-12.667 0 -24 5.66699 -34 17c-8.66699 10 -13 19.333 -13 28v3c1.33301 8.66699 7 17.667 17 27c8.66699 8.66699 18 13 28 13h4z" />
    <glyph glyph-name="Ntilde" unicode="&#xd1;" horiz-adv-x="465" 
d="M48 775c8.66699 15.333 20.332 23.0029 34.999 23.0029c3.33301 0 6.33301 -0.333008 9 -1c19.333 -3.33301 32.666 -14 39.999 -32c7.33301 -70.667 11.333 -137.334 12 -200.001c0.666992 -62 -0.666016 -109.667 -3.99902 -143c2 4 5 11.667 9 23
s9.33301 25.333 16 42c12.667 30.667 30.334 67 53.001 109c23.333 42.667 53.666 84.667 90.999 126c7.33301 7.33301 15 12.333 23 15c8.66699 2 17 2.33301 25 1c16 -3.33301 30.333 -12 43 -26s20 -29.333 22 -46c3.33301 -24 5.33301 -49.667 6 -77
c0.666992 -26.667 0.333984 -54.334 -0.999023 -83.001c-2 -52.667 -5.66699 -106 -11 -160c-5.33301 -53.333 -8.66602 -102 -9.99902 -146c-1.33301 -36 0 -67 4 -93c4 -26.667 12.333 -45 25 -55c1.33301 -4 2 -7.66699 2 -11s-0.666992 -6.66602 -2 -9.99902
c-1.33301 -6 -4 -11 -8 -15c-9.33301 -11.333 -23.666 -17 -42.999 -17h-9c-24 2 -41 10.667 -51 26c-18.667 28 -29.334 69 -32.001 123c-2 54 -0.333008 111.333 5 172c5.33301 60 12 118.333 20 175c8.66699 56.667 15 103 19 139c2 19.333 3 34.666 3 45.999
c-0.666992 11.333 -2.66699 17 -6 17c-16 2.66699 -37 -16.333 -63 -57c-25.333 -40 -49 -84.333 -71 -133c-15.333 -32.667 -28 -63.667 -38 -93c-10.667 -30 -17.334 -53.333 -20.001 -70c-0.666992 -13.333 -0.666992 -29.333 0 -48
c0 -19.333 0.666992 -39.666 2 -60.999c1.33301 -40 2.33301 -79.333 3 -118c1.33301 -39.333 -0.666992 -66.333 -6 -81c-8 -16 -26 -22.667 -54 -20s-45.667 16 -53 40c-8.66699 32.667 -13 77 -13 133v3c0 57.333 2 117.666 6 180.999c2 33.333 4.33301 66.666 7 99.999
l8 94l10 142c2 39.333 1 61.333 -3 66zM163.998 827.003c-1.33301 4.66699 -1.99805 10.3311 -1.99805 16.998c0 9.33301 1.33301 20.333 4 33c4.66699 20.667 16.334 34 35.001 40c7.33301 2 16.666 1.33301 27.999 -2c12 -3.33301 24.667 -8 38 -14
c20 -8 39 -16.333 57 -25s29.333 -11.334 34 -8.00098c7.33301 5.33301 7 12 -1 20c-8.66699 8 -15.334 13.333 -20.001 16c-2.66699 6.66699 1 14 11 22c9.33301 6.66699 18.333 10 27 10c1.33301 0 2.33301 -0.333008 3 -1c10 -3.33301 19 -9.66602 27 -18.999
c7.33301 -9.33301 13 -19.666 17 -30.999c5.33301 -14 8 -28 8 -42c0 -4 -0.333008 -8 -1 -12c-1.33301 -18 -8 -30.333 -20 -37c-10.667 -5.33301 -21.334 -8 -32.001 -8h-4c-12.667 0.666992 -25 3.66699 -37 9c-18.667 8 -36.334 18.667 -53.001 32l-44 34
c-6.66699 5.33301 -12.334 9.33301 -17.001 12c-5.33301 2.66699 -9.33301 3.66699 -12 3c-7.33301 -2.66699 -13 -9.66699 -17 -21c-3.33301 -10.667 -0.666016 -17.667 8.00098 -21c-0.666992 -11.333 -5.66699 -17.333 -15 -18
c-9.33301 -1.33301 -16.666 2.33398 -21.999 11.001z" />
    <glyph glyph-name="Ograve" unicode="&#xd2;" horiz-adv-x="481" 
d="M252 -2l-4.99902 0.00292969c-38 0 -69.667 7 -95 21c-27.333 14.667 -49.333 34 -66 58c-11.333 16 -20.333 33.667 -27 53c-7.33301 18.667 -13.333 38.667 -18 60c-8 38.667 -12 79 -12 121c-0.666992 4 -1 7.66699 -1 11c0 38 1.33301 73.333 4 106
c2 34 5.66699 67.333 11 100c5.33301 32 12.666 62 21.999 90c17.333 52 43.666 93.667 78.999 125c30 25.333 68.667 38 116 38c10.667 0 21.334 -0.333008 32.001 -1c14.667 -2 29 -9 43 -21c14.667 -12 28 -27.667 40 -47c23.333 -36.667 42.333 -83.334 57 -140.001
c15.333 -56.667 23.333 -114.334 24 -173.001v-7c0 -29.333 -2 -59.333 -6 -90c-4 -33.333 -10 -65.333 -18 -96c-15.333 -57.333 -38 -106 -68 -146c-30 -40.667 -67.333 -61.334 -112 -62.001zM406.001 402.003c0.666992 0.666992 1.00195 1.66895 1.00195 3.00195
c-0.666992 22.667 -2.33398 47 -5.00098 73c-2.66699 27.333 -7 55 -13 83c-10 50.667 -23.333 96 -40 136c-17.333 40 -35.666 61 -54.999 63h-4c-22 0 -43 -17.667 -63 -53c-20.667 -38 -37.667 -82.667 -51 -134c-7.33301 -28 -13 -56.333 -17 -85
c-4.66699 -28.667 -7.33398 -56 -8.00098 -82c-0.666992 -9.33301 -1 -19.333 -1 -30c0 -14.667 0.333008 -30.334 1 -47.001c1.33301 -28.667 3.66602 -58 6.99902 -88c6.66699 -54.667 17.667 -104.334 33 -149.001c16 -44.667 38 -68 66 -70h8
c35.333 -0.666992 63 19 83 59c20.667 42.667 35.667 92 45 148c4.66699 30 8 60 10 90s3 57.667 3 83zM191.003 893.005c-1.33301 4 -1.99902 7.99707 -1.99902 11.9971c0 8.66699 3.66699 17 11 25c10 12 21 18 33 18c0.666992 0 1.33398 -0.333008 2.00098 -1
c17.333 -9.33301 31.666 -21.666 42.999 -36.999l34 -50c4 -9.33301 6 -19.666 6 -30.999v-1c0 -11.333 -5.33301 -17 -16 -17c-6.66699 0.666992 -13 3 -19 7c-6.66699 4 -13.334 8.66699 -20.001 14c-14.667 12.667 -28.334 26.334 -41.001 41.001
c-13.333 14 -23.666 20.667 -30.999 20z" />
    </font>
</defs>
</svg>
